solid support-reed
facet normal -0.6087614290087257 -0.7933533402912314 -8.326672684688674e-17
  outer loop
    vertex 53.707106781186575 4.207106781186546 4.934941344458821e-14
    vertex 53.5 4.366025403784437 3.7
    vertex 53.50000000000005 4.366025403784437 4.2299497238218464e-14
  endloop
endfacet
facet normal -0.6087614290087257 -0.7933533402912314 -8.326672684688674e-17
  outer loop
    vertex 53.5 4.366025403784437 3.7
    vertex 53.707106781186575 4.207106781186546 4.934941344458821e-14
    vertex 53.70710678118653 4.207106781186546 3.700000000000023
  endloop
endfacet
facet normal -0.7933533402912271 -0.6087614290087313 -3.122502256758253e-16
  outer loop
    vertex 53.70710678118653 4.207106781186546 3.700000000000023
    vertex 53.8660254037845 3.999999999999999 4.1242009807263e-14
    vertex 53.86602540378446 3.999999999999999 3.7000000000000215
  endloop
endfacet
facet normal -0.7933533402912271 -0.6087614290087313 -3.122502256758253e-16
  outer loop
    vertex 53.8660254037845 3.999999999999999 4.1242009807263e-14
    vertex 53.70710678118653 4.207106781186546 3.700000000000023
    vertex 53.707106781186575 4.207106781186546 4.934941344458821e-14
  endloop
endfacet
facet normal 0.7933533402912261 -0.6087614290087326 4.371503159461554e-16
  outer loop
    vertex 52.29289321881357 4.207106781186546 -3.3487101980256284e-14
    vertex 52.13397459621558 3.9999999999999996 3.699999999999996
    vertex 52.1339745962156 3.9999999999999996 -3.489708522153023e-14
  endloop
endfacet
facet normal 0.7933533402912261 -0.6087614290087326 4.371503159461554e-16
  outer loop
    vertex 52.13397459621558 3.9999999999999996 3.699999999999996
    vertex 52.29289321881357 4.207106781186546 -3.3487101980256284e-14
    vertex 52.29289321881351 4.207106781186546 3.6999999999999664
  endloop
endfacet
facet normal 0.9914448613738105 -0.1305261922200517 8.604228440844963e-16
  outer loop
    vertex 52.034074173710955 3.7588190451025207 -1.868227794687982e-14
    vertex 52.00000000000003 3.5 3.69999999999997
    vertex 52.00000000000003 3.5 -8.107403637325205e-15
  endloop
endfacet
facet normal 0.9914448613738105 -0.1305261922200517 8.604228440844963e-16
  outer loop
    vertex 52.00000000000003 3.5 3.69999999999997
    vertex 52.034074173710955 3.7588190451025207 -1.868227794687982e-14
    vertex 52.034074173710934 3.7588190451025207 3.6999999999999775
  endloop
endfacet
facet normal -0.7933533402912356 0.6087614290087203 -4.0939474033052657e-16
  outer loop
    vertex 77.8660254037846 2.9999999999999996 3.699999999999971
    vertex 77.7071067811867 2.7928932188134525 -8.107403637325205e-15
    vertex 77.70710678118668 2.7928932188134525 3.699999999999977
  endloop
endfacet
facet normal -0.7933533402912356 0.6087614290087203 -4.0939474033052657e-16
  outer loop
    vertex 77.7071067811867 2.7928932188134525 -8.107403637325205e-15
    vertex 77.8660254037846 2.9999999999999996 3.699999999999971
    vertex 77.86602540378459 2.9999999999999996 -1.4099832412739487e-15
  endloop
endfacet
facet normal -0.6087614290087219 -0.7933533402912342 -1.6653345369377343e-16
  outer loop
    vertex 77.70710678118668 4.207106781186547 3.699999999999977
    vertex 77.5000000000002 4.366025403784438 1.1632361740510077e-14
    vertex 77.7071067811867 4.207106781186547 -8.107403637325205e-15
  endloop
endfacet
facet normal -0.6087614290087219 -0.7933533402912342 -1.6653345369377343e-16
  outer loop
    vertex 77.5000000000002 4.366025403784438 1.1632361740510077e-14
    vertex 77.70710678118668 4.207106781186547 3.699999999999977
    vertex 77.50000000000011 4.366025403784438 3.6999999999999806
  endloop
endfacet
facet normal 0.13052619222005177 0.9914448613738104 1.0408340855860843e-17
  outer loop
    vertex 76.7411809548976 2.534074173710932 3.6999999999999638
    vertex 77.00000000000018 2.5 -6.521172490892013e-14
    vertex 76.7411809548976 2.534074173710932 -7.96640531319781e-14
  endloop
endfacet
facet normal 0.13052619222005177 0.9914448613738104 1.0408340855860843e-17
  outer loop
    vertex 77.00000000000018 2.5 -6.521172490892013e-14
    vertex 76.7411809548976 2.534074173710932 3.6999999999999638
    vertex 77.00000000000009 2.5 3.7000000000000046
  endloop
endfacet
facet normal 0.38268343236509034 0.9238795325112865 -1.0408340855860843e-17
  outer loop
    vertex 76.50000000000017 2.6339745962155616 -5.5694338030320975e-14
    vertex 76.7411809548976 2.534074173710932 3.6999999999999638
    vertex 76.7411809548976 2.534074173710932 -7.96640531319781e-14
  endloop
endfacet
facet normal 0.38268343236509034 0.9238795325112865 -1.0408340855860843e-17
  outer loop
    vertex 76.7411809548976 2.534074173710932 3.6999999999999638
    vertex 76.50000000000017 2.6339745962155616 -5.5694338030320975e-14
    vertex 76.50000000000007 2.6339745962155616 3.699999999999953
  endloop
endfacet
facet normal 0.6087614290087218 0.7933533402912343 -8.326672684688674e-17
  outer loop
    vertex 76.29289321881359 2.7928932188134525 -6.3449245857327695e-15
    vertex 76.50000000000007 2.6339745962155616 3.699999999999953
    vertex 76.50000000000017 2.6339745962155616 -5.5694338030320975e-14
  endloop
endfacet
facet normal 0.6087614290087218 0.7933533402912343 -8.326672684688674e-17
  outer loop
    vertex 76.50000000000007 2.6339745962155616 3.699999999999953
    vertex 76.29289321881359 2.7928932188134525 -6.3449245857327695e-15
    vertex 76.2928932188136 2.7928932188134525 3.69999999999996
  endloop
endfacet
facet normal 0.7933533402912367 0.6087614290087189 6.106226635438361e-16
  outer loop
    vertex 76.13397459621567 3.0 2.2912227670701668e-14
    vertex 76.2928932188136 2.7928932188134525 3.69999999999996
    vertex 76.29289321881359 2.7928932188134525 -6.3449245857327695e-15
  endloop
endfacet
facet normal 0.7933533402912367 0.6087614290087189 6.106226635438361e-16
  outer loop
    vertex 76.2928932188136 2.7928932188134525 3.69999999999996
    vertex 76.13397459621567 3.0 2.2912227670701668e-14
    vertex 76.13397459621568 3.0 3.6999999999999784
  endloop
endfacet
facet normal 0.9238795325112863 0.38268343236509117 4.787836793695987e-16
  outer loop
    vertex 76.03407417371106 3.2411809548974793 -1.762479051592436e-14
    vertex 76.13397459621568 3.0 3.6999999999999784
    vertex 76.13397459621567 3.0 2.2912227670701668e-14
  endloop
endfacet
facet normal 0.9238795325112863 0.38268343236509117 4.787836793695987e-16
  outer loop
    vertex 76.13397459621568 3.0 3.6999999999999784
    vertex 76.03407417371106 3.2411809548974793 -1.762479051592436e-14
    vertex 76.03407417371106 3.2411809548974793 3.699999999999977
  endloop
endfacet
facet normal -0.9914448613738105 0.1305261922200517 -8.604228440844963e-16
  outer loop
    vertex 78.00000000000011 3.5 3.699999999999946
    vertex 77.96592582628922 3.2411809548974793 -2.996214387707141e-14
    vertex 77.96592582628915 3.2411809548974793 3.6999999999999496
  endloop
endfacet
facet normal -0.9914448613738105 0.1305261922200517 -8.604228440844963e-16
  outer loop
    vertex 77.96592582628922 3.2411809548974793 -2.996214387707141e-14
    vertex 78.00000000000011 3.5 3.699999999999946
    vertex 78.00000000000016 3.5 -2.5379698342931078e-14
  endloop
endfacet
facet normal -0.6087614290087212 0.7933533402912347 -1.457167719820518e-16
  outer loop
    vertex 77.5000000000002 2.633974596215561 1.1632361740510077e-14
    vertex 77.70710678118668 2.7928932188134525 3.699999999999977
    vertex 77.7071067811867 2.7928932188134525 -8.107403637325205e-15
  endloop
endfacet
facet normal -0.6087614290087212 0.7933533402912347 -1.457167719820518e-16
  outer loop
    vertex 77.70710678118668 2.7928932188134525 3.699999999999977
    vertex 77.5000000000002 2.633974596215561 1.1632361740510077e-14
    vertex 77.5000000000001 2.633974596215561 3.6999999999999833
  endloop
endfacet
facet normal 0.9914448613738105 0.1305261922200517 8.604228440844963e-16
  outer loop
    vertex 76.00000000000016 3.5 7.049916206369744e-15
    vertex 76.03407417371106 3.2411809548974793 3.699999999999977
    vertex 76.03407417371106 3.2411809548974793 -1.762479051592436e-14
  endloop
endfacet
facet normal 0.9914448613738105 0.1305261922200517 8.604228440844963e-16
  outer loop
    vertex 76.03407417371106 3.2411809548974793 3.699999999999977
    vertex 76.00000000000016 3.5 7.049916206369744e-15
    vertex 76.00000000000011 3.5 3.6999999999999296
  endloop
endfacet
facet normal 0.9914448613738105 -0.1305261922200513 6.522560269672795e-16
  outer loop
    vertex 76.03407417371106 3.758819045102521 -1.762479051592436e-14
    vertex 76.00000000000011 3.5 3.6999999999999296
    vertex 76.00000000000016 3.5 7.049916206369744e-15
  endloop
endfacet
facet normal 0.9914448613738105 -0.1305261922200513 6.522560269672795e-16
  outer loop
    vertex 76.00000000000011 3.5 3.6999999999999296
    vertex 76.03407417371106 3.758819045102521 -1.762479051592436e-14
    vertex 76.03407417371106 3.758819045102521 3.699999999999977
  endloop
endfacet
facet normal 0.0 -1.0 0.0
  outer loop
    vertex 78.50000000000014 5.5 19.99999999999998
    vertex 51.50000000000004 5.5 3.700000000000017
    vertex 78.5000000000001 5.5 3.6999999999999975
  endloop
endfacet
facet normal 0.0 -1.0 0.0
  outer loop
    vertex 51.50000000000004 5.5 3.700000000000017
    vertex 78.50000000000014 5.5 19.99999999999998
    vertex 51.500000000000064 5.5 20.000000000000046
  endloop
endfacet
facet normal 8.743006318923106e-16 0.0 -1.0
  outer loop
    vertex 50.000000000000036 7.0 3.877453913503359e-15
    vertex 52.1339745962156 3.9999999999999996 -3.489708522153023e-14
    vertex 50.000000000000036 0.0 3.877453913503359e-15
  endloop
endfacet
facet normal 8.743006318923106e-16 0.0 -1.0
  outer loop
    vertex 52.1339745962156 3.9999999999999996 -3.489708522153023e-14
    vertex 50.000000000000036 7.0 3.877453913503359e-15
    vertex 52.29289321881357 4.207106781186546 -3.3487101980256284e-14
  endloop
endfacet
facet normal 8.743006318923106e-16 0.0 -1.0
  outer loop
    vertex 52.29289321881357 4.207106781186546 -3.3487101980256284e-14
    vertex 50.000000000000036 7.0 3.877453913503359e-15
    vertex 52.50000000000003 4.366025403784437 3.8069547514396615e-14
  endloop
endfacet
facet normal 8.743006318923106e-16 0.0 -1.0
  outer loop
    vertex 52.50000000000003 4.366025403784437 3.8069547514396615e-14
    vertex 50.000000000000036 7.0 3.877453913503359e-15
    vertex 52.7411809548975 4.465925826289066 -3.1724622928663847e-15
  endloop
endfacet
facet normal 8.743006318923106e-16 0.0 -1.0
  outer loop
    vertex 52.7411809548975 4.465925826289066 -3.1724622928663847e-15
    vertex 50.000000000000036 7.0 3.877453913503359e-15
    vertex 53.00000000000003 4.499999999999998 -3.8422043324715104e-14
  endloop
endfacet
facet normal 8.743006318923106e-16 0.0 -1.0
  outer loop
    vertex 53.00000000000003 4.499999999999998 -3.8422043324715104e-14
    vertex 50.000000000000036 7.0 3.877453913503359e-15
    vertex 80.00000000000018 7.0 -6.697420396051256e-15
  endloop
endfacet
facet normal 8.743006318923106e-16 0.0 -1.0
  outer loop
    vertex 50.000000000000036 0.0 3.877453913503359e-15
    vertex 52.1339745962156 3.9999999999999996 -3.489708522153023e-14
    vertex 52.034074173710955 3.7588190451025207 -1.868227794687982e-14
  endloop
endfacet
facet normal 8.743006318923106e-16 0.0 -1.0
  outer loop
    vertex 50.000000000000036 0.0 3.877453913503359e-15
    vertex 52.034074173710955 3.7588190451025207 -1.868227794687982e-14
    vertex 52.00000000000003 3.5 -8.107403637325205e-15
  endloop
endfacet
facet normal 8.743006318923106e-16 0.0 -1.0
  outer loop
    vertex 53.00000000000003 4.499999999999998 -3.8422043324715104e-14
    vertex 80.00000000000018 7.0 -6.697420396051256e-15
    vertex 53.25881904510251 4.465925826289066 2.1149748619109232e-14
  endloop
endfacet
facet normal 8.743006318923106e-16 0.0 -1.0
  outer loop
    vertex 53.25881904510251 4.465925826289066 2.1149748619109232e-14
    vertex 80.00000000000018 7.0 -6.697420396051256e-15
    vertex 53.50000000000005 4.366025403784437 4.2299497238218464e-14
  endloop
endfacet
facet normal 8.743006318923106e-16 0.0 -1.0
  outer loop
    vertex 53.50000000000005 4.366025403784437 4.2299497238218464e-14
    vertex 80.00000000000018 7.0 -6.697420396051256e-15
    vertex 53.707106781186575 4.207106781186546 4.934941344458821e-14
  endloop
endfacet
facet normal 8.743006318923106e-16 0.0 -1.0
  outer loop
    vertex 53.707106781186575 4.207106781186546 4.934941344458821e-14
    vertex 80.00000000000018 7.0 -6.697420396051256e-15
    vertex 53.8660254037845 3.999999999999999 4.1242009807263e-14
  endloop
endfacet
facet normal 8.743006318923106e-16 0.0 -1.0
  outer loop
    vertex 53.8660254037845 3.999999999999999 4.1242009807263e-14
    vertex 80.00000000000018 7.0 -6.697420396051256e-15
    vertex 53.96592582628909 3.75881904510252 6.380174166764618e-14
  endloop
endfacet
facet normal 8.743006318923106e-16 0.0 -1.0
  outer loop
    vertex 53.96592582628909 3.75881904510252 6.380174166764618e-14
    vertex 80.00000000000018 7.0 -6.697420396051256e-15
    vertex 54.00000000000005 3.5 9.517386878599154e-15
  endloop
endfacet
facet normal 8.743006318923106e-16 0.0 -1.0
  outer loop
    vertex 54.00000000000005 3.5 9.517386878599154e-15
    vertex 80.00000000000018 7.0 -6.697420396051256e-15
    vertex 76.50000000000017 4.366025403784439 -5.5694338030320975e-14
  endloop
endfacet
facet normal 8.743006318923106e-16 0.0 -1.0
  outer loop
    vertex 54.00000000000005 3.5 9.517386878599154e-15
    vertex 76.50000000000017 4.366025403784439 -5.5694338030320975e-14
    vertex 76.29289321881359 4.207106781186548 -6.3449245857327695e-15
  endloop
endfacet
facet normal 8.743006318923106e-16 0.0 -1.0
  outer loop
    vertex 54.00000000000005 3.5 9.517386878599154e-15
    vertex 76.29289321881359 4.207106781186548 -6.3449245857327695e-15
    vertex 76.13397459621567 4.0 2.2912227670701668e-14
  endloop
endfacet
facet normal 8.743006318923106e-16 0.0 -1.0
  outer loop
    vertex 54.00000000000005 3.5 9.517386878599154e-15
    vertex 76.13397459621567 4.0 2.2912227670701668e-14
    vertex 76.03407417371106 3.758819045102521 -1.762479051592436e-14
  endloop
endfacet
facet normal 8.743006318923106e-16 0.0 -1.0
  outer loop
    vertex 54.00000000000005 3.5 9.517386878599154e-15
    vertex 76.03407417371106 3.758819045102521 -1.762479051592436e-14
    vertex 76.00000000000016 3.5 7.049916206369744e-15
  endloop
endfacet
facet normal 8.743006318923106e-16 0.0 -1.0
  outer loop
    vertex 76.50000000000017 4.366025403784439 -5.5694338030320975e-14
    vertex 80.00000000000018 7.0 -6.697420396051256e-15
    vertex 76.7411809548976 4.465925826289069 -7.96640531319781e-14
  endloop
endfacet
facet normal 8.743006318923106e-16 0.0 -1.0
  outer loop
    vertex 76.7411809548976 4.465925826289069 -7.96640531319781e-14
    vertex 80.00000000000018 7.0 -6.697420396051256e-15
    vertex 77.00000000000018 4.5 -6.521172490892013e-14
  endloop
endfacet
facet normal 8.743006318923106e-16 0.0 -1.0
  outer loop
    vertex 77.00000000000018 4.5 -6.521172490892013e-14
    vertex 80.00000000000018 7.0 -6.697420396051256e-15
    vertex 77.25881904510271 4.465925826289068 -1.868227794687982e-14
  endloop
endfacet
facet normal 8.743006318923106e-16 0.0 -1.0
  outer loop
    vertex 77.25881904510271 4.465925826289068 -1.868227794687982e-14
    vertex 80.00000000000018 7.0 -6.697420396051256e-15
    vertex 77.5000000000002 4.366025403784438 1.1632361740510077e-14
  endloop
endfacet
facet normal 8.743006318923106e-16 0.0 -1.0
  outer loop
    vertex 77.5000000000002 4.366025403784438 1.1632361740510077e-14
    vertex 80.00000000000018 7.0 -6.697420396051256e-15
    vertex 77.7071067811867 4.207106781186547 -8.107403637325205e-15
  endloop
endfacet
facet normal 8.743006318923106e-16 0.0 -1.0
  outer loop
    vertex 77.7071067811867 4.207106781186547 -8.107403637325205e-15
    vertex 80.00000000000018 7.0 -6.697420396051256e-15
    vertex 77.86602540378459 3.9999999999999996 -1.4099832412739487e-15
  endloop
endfacet
facet normal 8.743006318923106e-16 0.0 -1.0
  outer loop
    vertex 77.86602540378459 3.9999999999999996 -1.4099832412739487e-15
    vertex 80.00000000000018 7.0 -6.697420396051256e-15
    vertex 77.96592582628922 3.7588190451025207 -2.996214387707141e-14
  endloop
endfacet
facet normal 8.743006318923106e-16 0.0 -1.0
  outer loop
    vertex 77.96592582628922 3.7588190451025207 -2.996214387707141e-14
    vertex 80.00000000000018 7.0 -6.697420396051256e-15
    vertex 78.00000000000016 3.5 -2.5379698342931078e-14
  endloop
endfacet
facet normal 8.743006318923106e-16 0.0 -1.0
  outer loop
    vertex 50.000000000000036 0.0 3.877453913503359e-15
    vertex 53.00000000000003 2.5000000000000018 -3.8422043324715104e-14
    vertex 80.00000000000018 0.0 -6.697420396051256e-15
  endloop
endfacet
facet normal 8.743006318923106e-16 0.0 -1.0
  outer loop
    vertex 53.00000000000003 2.5000000000000018 -3.8422043324715104e-14
    vertex 50.000000000000036 0.0 3.877453913503359e-15
    vertex 52.7411809548975 2.5340741737109336 -3.1724622928663847e-15
  endloop
endfacet
facet normal 8.743006318923106e-16 0.0 -1.0
  outer loop
    vertex 52.7411809548975 2.5340741737109336 -3.1724622928663847e-15
    vertex 50.000000000000036 0.0 3.877453913503359e-15
    vertex 52.50000000000003 2.6339745962155634 3.8069547514396615e-14
  endloop
endfacet
facet normal 8.743006318923106e-16 0.0 -1.0
  outer loop
    vertex 52.50000000000003 2.6339745962155634 3.8069547514396615e-14
    vertex 50.000000000000036 0.0 3.877453913503359e-15
    vertex 52.292893218813546 2.7928932188134543 -2.8904656446115947e-14
  endloop
endfacet
facet normal 8.743006318923106e-16 0.0 -1.0
  outer loop
    vertex 52.292893218813546 2.7928932188134543 -2.8904656446115947e-14
    vertex 50.000000000000036 0.0 3.877453913503359e-15
    vertex 52.1339745962156 3.0000000000000013 -3.489708522153023e-14
  endloop
endfacet
facet normal 8.743006318923106e-16 0.0 -1.0
  outer loop
    vertex 52.1339745962156 3.0000000000000013 -3.489708522153023e-14
    vertex 50.000000000000036 0.0 3.877453913503359e-15
    vertex 52.034074173710955 3.24118095489748 -1.868227794687982e-14
  endloop
endfacet
facet normal 8.743006318923106e-16 0.0 -1.0
  outer loop
    vertex 52.034074173710955 3.24118095489748 -1.868227794687982e-14
    vertex 50.000000000000036 0.0 3.877453913503359e-15
    vertex 52.00000000000003 3.5 -8.107403637325205e-15
  endloop
endfacet
facet normal 8.743006318923106e-16 0.0 -1.0
  outer loop
    vertex 80.00000000000018 0.0 -6.697420396051256e-15
    vertex 53.00000000000003 2.5000000000000018 -3.8422043324715104e-14
    vertex 53.25881904510253 2.5340741737109336 2.9257152256434435e-14
  endloop
endfacet
facet normal 8.743006318923106e-16 0.0 -1.0
  outer loop
    vertex 80.00000000000018 0.0 -6.697420396051256e-15
    vertex 53.25881904510253 2.5340741737109336 2.9257152256434435e-14
    vertex 53.50000000000005 2.6339745962155625 4.2299497238218464e-14
  endloop
endfacet
facet normal 8.743006318923106e-16 0.0 -1.0
  outer loop
    vertex 80.00000000000018 0.0 -6.697420396051256e-15
    vertex 53.50000000000005 2.6339745962155625 4.2299497238218464e-14
    vertex 53.707106781186575 2.7928932188134534 4.934941344458821e-14
  endloop
endfacet
facet normal 8.743006318923106e-16 0.0 -1.0
  outer loop
    vertex 80.00000000000018 0.0 -6.697420396051256e-15
    vertex 53.707106781186575 2.7928932188134534 4.934941344458821e-14
    vertex 53.8660254037845 3.0000000000000004 4.1242009807263e-14
  endloop
endfacet
facet normal 8.743006318923106e-16 0.0 -1.0
  outer loop
    vertex 80.00000000000018 0.0 -6.697420396051256e-15
    vertex 53.8660254037845 3.0000000000000004 4.1242009807263e-14
    vertex 53.96592582628909 3.2411809548974784 6.380174166764618e-14
  endloop
endfacet
facet normal 8.743006318923106e-16 0.0 -1.0
  outer loop
    vertex 80.00000000000018 0.0 -6.697420396051256e-15
    vertex 53.96592582628909 3.2411809548974784 6.380174166764618e-14
    vertex 54.00000000000005 3.5 9.517386878599154e-15
  endloop
endfacet
facet normal 8.743006318923106e-16 0.0 -1.0
  outer loop
    vertex 80.00000000000018 0.0 -6.697420396051256e-15
    vertex 54.00000000000005 3.5 9.517386878599154e-15
    vertex 76.50000000000017 2.6339745962155616 -5.5694338030320975e-14
  endloop
endfacet
facet normal 8.743006318923106e-16 0.0 -1.0
  outer loop
    vertex 76.50000000000017 2.6339745962155616 -5.5694338030320975e-14
    vertex 54.00000000000005 3.5 9.517386878599154e-15
    vertex 76.29289321881359 2.7928932188134525 -6.3449245857327695e-15
  endloop
endfacet
facet normal 8.743006318923106e-16 0.0 -1.0
  outer loop
    vertex 76.29289321881359 2.7928932188134525 -6.3449245857327695e-15
    vertex 54.00000000000005 3.5 9.517386878599154e-15
    vertex 76.13397459621567 3.0 2.2912227670701668e-14
  endloop
endfacet
facet normal 8.743006318923106e-16 0.0 -1.0
  outer loop
    vertex 76.13397459621567 3.0 2.2912227670701668e-14
    vertex 54.00000000000005 3.5 9.517386878599154e-15
    vertex 76.03407417371106 3.2411809548974793 -1.762479051592436e-14
  endloop
endfacet
facet normal 8.743006318923106e-16 0.0 -1.0
  outer loop
    vertex 76.03407417371106 3.2411809548974793 -1.762479051592436e-14
    vertex 54.00000000000005 3.5 9.517386878599154e-15
    vertex 76.00000000000016 3.5 7.049916206369744e-15
  endloop
endfacet
facet normal 8.743006318923106e-16 0.0 -1.0
  outer loop
    vertex 80.00000000000018 0.0 -6.697420396051256e-15
    vertex 76.50000000000017 2.6339745962155616 -5.5694338030320975e-14
    vertex 76.7411809548976 2.534074173710932 -7.96640531319781e-14
  endloop
endfacet
facet normal 8.743006318923106e-16 0.0 -1.0
  outer loop
    vertex 80.00000000000018 0.0 -6.697420396051256e-15
    vertex 76.7411809548976 2.534074173710932 -7.96640531319781e-14
    vertex 77.00000000000018 2.5 -6.521172490892013e-14
  endloop
endfacet
facet normal 8.743006318923106e-16 0.0 -1.0
  outer loop
    vertex 80.00000000000018 0.0 -6.697420396051256e-15
    vertex 77.00000000000018 2.5 -6.521172490892013e-14
    vertex 77.25881904510271 2.534074173710932 -1.868227794687982e-14
  endloop
endfacet
facet normal 8.743006318923106e-16 0.0 -1.0
  outer loop
    vertex 80.00000000000018 0.0 -6.697420396051256e-15
    vertex 77.25881904510271 2.534074173710932 -1.868227794687982e-14
    vertex 77.5000000000002 2.633974596215561 1.1632361740510077e-14
  endloop
endfacet
facet normal 8.743006318923106e-16 0.0 -1.0
  outer loop
    vertex 80.00000000000018 0.0 -6.697420396051256e-15
    vertex 77.5000000000002 2.633974596215561 1.1632361740510077e-14
    vertex 77.7071067811867 2.7928932188134525 -8.107403637325205e-15
  endloop
endfacet
facet normal 8.743006318923106e-16 0.0 -1.0
  outer loop
    vertex 80.00000000000018 0.0 -6.697420396051256e-15
    vertex 77.7071067811867 2.7928932188134525 -8.107403637325205e-15
    vertex 77.86602540378459 2.9999999999999996 -1.4099832412739487e-15
  endloop
endfacet
facet normal 8.743006318923106e-16 0.0 -1.0
  outer loop
    vertex 80.00000000000018 0.0 -6.697420396051256e-15
    vertex 77.86602540378459 2.9999999999999996 -1.4099832412739487e-15
    vertex 77.96592582628922 3.2411809548974793 -2.996214387707141e-14
  endloop
endfacet
facet normal 8.743006318923106e-16 0.0 -1.0
  outer loop
    vertex 80.00000000000018 0.0 -6.697420396051256e-15
    vertex 77.96592582628922 3.2411809548974793 -2.996214387707141e-14
    vertex 78.00000000000016 3.5 -2.5379698342931078e-14
  endloop
endfacet
facet normal 8.743006318923106e-16 0.0 -1.0
  outer loop
    vertex 80.00000000000018 0.0 -6.697420396051256e-15
    vertex 78.00000000000016 3.5 -2.5379698342931078e-14
    vertex 80.00000000000018 7.0 -6.697420396051256e-15
  endloop
endfacet
facet normal 1.0 0.0 8.743006318923106e-16
  outer loop
    vertex 80.00000000000018 7.0 -6.697420396051256e-15
    vertex 80.00000000000014 0.0 19.999999999999986
    vertex 80.00000000000018 0.0 -6.697420396051256e-15
  endloop
endfacet
facet normal 1.0 0.0 8.743006318923106e-16
  outer loop
    vertex 80.00000000000014 0.0 19.999999999999986
    vertex 80.00000000000018 7.0 -6.697420396051256e-15
    vertex 80.00000000000014 7.0 19.999999999999986
  endloop
endfacet
facet normal 0.0 1.0 0.0
  outer loop
    vertex 50.000000000000036 7.0 3.877453913503359e-15
    vertex 80.00000000000014 7.0 19.999999999999986
    vertex 80.00000000000018 7.0 -6.697420396051256e-15
  endloop
endfacet
facet normal 0.0 1.0 0.0
  outer loop
    vertex 80.00000000000014 7.0 19.999999999999986
    vertex 50.000000000000036 7.0 3.877453913503359e-15
    vertex 50.00000000000004 7.0 20.000000000000036
  endloop
endfacet
facet normal -1.0 0.0 -8.743006318923106e-16
  outer loop
    vertex 78.50000000000014 5.5 19.99999999999998
    vertex 78.5000000000001 1.5 3.6999999999999975
    vertex 78.50000000000014 1.5 19.99999999999998
  endloop
endfacet
facet normal -1.0 0.0 -8.743006318923106e-16
  outer loop
    vertex 78.5000000000001 1.5 3.6999999999999975
    vertex 78.50000000000014 5.5 19.99999999999998
    vertex 78.5000000000001 5.5 3.6999999999999975
  endloop
endfacet
facet normal 0.0 1.0 0.0
  outer loop
    vertex 51.50000000000004 1.5 3.700000000000017
    vertex 78.50000000000014 1.5 19.99999999999998
    vertex 78.5000000000001 1.5 3.6999999999999975
  endloop
endfacet
facet normal 0.0 1.0 0.0
  outer loop
    vertex 78.50000000000014 1.5 19.99999999999998
    vertex 51.50000000000004 1.5 3.700000000000017
    vertex 51.500000000000064 1.5 20.000000000000046
  endloop
endfacet
facet normal 0.0 -1.0 0.0
  outer loop
    vertex 80.00000000000014 0.0 19.999999999999986
    vertex 50.000000000000036 0.0 3.877453913503359e-15
    vertex 80.00000000000018 0.0 -6.697420396051256e-15
  endloop
endfacet
facet normal 0.0 -1.0 0.0
  outer loop
    vertex 50.000000000000036 0.0 3.877453913503359e-15
    vertex 80.00000000000014 0.0 19.999999999999986
    vertex 78.50000000000014 0.0 19.99999999999998
  endloop
endfacet
facet normal 0.0 -1.0 0.0
  outer loop
    vertex 50.00000000000004 0.0 20.000000000000036
    vertex 50.000000000000036 0.0 3.877453913503359e-15
    vertex 78.50000000000014 0.0 19.99999999999998
  endloop
endfacet
facet normal -1.0 0.0 -8.743006318923106e-16
  outer loop
    vertex 50.00000000000004 7.0 20.000000000000036
    vertex 50.000000000000036 0.0 3.877453913503359e-15
    vertex 50.00000000000004 0.0 20.000000000000036
  endloop
endfacet
facet normal -1.0 0.0 -8.743006318923106e-16
  outer loop
    vertex 50.000000000000036 0.0 3.877453913503359e-15
    vertex 50.00000000000004 7.0 20.000000000000036
    vertex 50.000000000000036 7.0 3.877453913503359e-15
  endloop
endfacet
facet normal 0.9238795325112863 -0.38268343236509117 4.787836793695987e-16
  outer loop
    vertex 76.13397459621567 4.0 2.2912227670701668e-14
    vertex 76.03407417371106 3.758819045102521 3.699999999999977
    vertex 76.03407417371106 3.758819045102521 -1.762479051592436e-14
  endloop
endfacet
facet normal 0.9238795325112863 -0.38268343236509117 4.787836793695987e-16
  outer loop
    vertex 76.03407417371106 3.758819045102521 3.699999999999977
    vertex 76.13397459621567 4.0 2.2912227670701668e-14
    vertex 76.13397459621568 4.0 3.6999999999999784
  endloop
endfacet
facet normal -0.9914448613738105 -0.1305261922200517 -8.604228440844963e-16
  outer loop
    vertex 77.96592582628915 3.7588190451025207 3.6999999999999496
    vertex 78.00000000000016 3.5 -2.5379698342931078e-14
    vertex 78.00000000000011 3.5 3.699999999999946
  endloop
endfacet
facet normal -0.9914448613738105 -0.1305261922200517 -8.604228440844963e-16
  outer loop
    vertex 78.00000000000016 3.5 -2.5379698342931078e-14
    vertex 77.96592582628915 3.7588190451025207 3.6999999999999496
    vertex 77.96592582628922 3.7588190451025207 -2.996214387707141e-14
  endloop
endfacet
facet normal -0.7933533402912353 -0.6087614290087205 -3.2612801348363973e-16
  outer loop
    vertex 77.70710678118668 4.207106781186547 3.699999999999977
    vertex 77.86602540378459 3.9999999999999996 -1.4099832412739487e-15
    vertex 77.8660254037846 3.9999999999999996 3.699999999999971
  endloop
endfacet
facet normal -0.7933533402912353 -0.6087614290087205 -3.2612801348363973e-16
  outer loop
    vertex 77.86602540378459 3.9999999999999996 -1.4099832412739487e-15
    vertex 77.70710678118668 4.207106781186547 3.699999999999977
    vertex 77.7071067811867 4.207106781186547 -8.107403637325205e-15
  endloop
endfacet
facet normal -0.9238795325112872 -0.3826834323650887 -9.436895709313829e-16
  outer loop
    vertex 77.8660254037846 3.9999999999999996 3.699999999999971
    vertex 77.96592582628922 3.7588190451025207 -2.996214387707141e-14
    vertex 77.96592582628915 3.7588190451025207 3.6999999999999496
  endloop
endfacet
facet normal -0.9238795325112872 -0.3826834323650887 -9.436895709313829e-16
  outer loop
    vertex 77.96592582628922 3.7588190451025207 -2.996214387707141e-14
    vertex 77.8660254037846 3.9999999999999996 3.699999999999971
    vertex 77.86602540378459 3.9999999999999996 -1.4099832412739487e-15
  endloop
endfacet
facet normal -0.9238795325112866 0.38268343236509017 -4.3021142204224806e-16
  outer loop
    vertex 77.96592582628915 3.2411809548974793 3.6999999999999496
    vertex 77.86602540378459 2.9999999999999996 -1.4099832412739487e-15
    vertex 77.8660254037846 2.9999999999999996 3.699999999999971
  endloop
endfacet
facet normal -0.9238795325112866 0.38268343236509017 -4.3021142204224806e-16
  outer loop
    vertex 77.86602540378459 2.9999999999999996 -1.4099832412739487e-15
    vertex 77.96592582628915 3.2411809548974793 3.6999999999999496
    vertex 77.96592582628922 3.2411809548974793 -2.996214387707141e-14
  endloop
endfacet
facet normal 0.38268343236509306 -0.9238795325112855 5.204170427930421e-17
  outer loop
    vertex 52.74118095489755 4.465925826289066 3.699999999999945
    vertex 52.50000000000003 4.366025403784437 3.8069547514396615e-14
    vertex 52.7411809548975 4.465925826289066 -3.1724622928663847e-15
  endloop
endfacet
facet normal 0.38268343236509306 -0.9238795325112855 5.204170427930421e-17
  outer loop
    vertex 52.50000000000003 4.366025403784437 3.8069547514396615e-14
    vertex 52.74118095489755 4.465925826289066 3.699999999999945
    vertex 52.500000000000014 4.366025403784437 3.699999999999976
  endloop
endfacet
facet normal -0.9914448613738105 -0.13052619222005207 -8.604228440844963e-16
  outer loop
    vertex 53.96592582628907 3.75881904510252 3.7000000000000304
    vertex 54.00000000000005 3.5 9.517386878599154e-15
    vertex 54.0 3.5 3.7000000000000313
  endloop
endfacet
facet normal -0.9914448613738105 -0.13052619222005207 -8.604228440844963e-16
  outer loop
    vertex 54.00000000000005 3.5 9.517386878599154e-15
    vertex 53.96592582628907 3.75881904510252 3.7000000000000304
    vertex 53.96592582628909 3.75881904510252 6.380174166764618e-14
  endloop
endfacet
facet normal -0.9914448613738105 0.1305261922200513 -6.522560269672795e-16
  outer loop
    vertex 54.0 3.5 3.7000000000000313
    vertex 53.96592582628909 3.2411809548974784 6.380174166764618e-14
    vertex 53.96592582628907 3.2411809548974784 3.7000000000000304
  endloop
endfacet
facet normal -0.9914448613738105 0.1305261922200513 -6.522560269672795e-16
  outer loop
    vertex 53.96592582628909 3.2411809548974784 6.380174166764618e-14
    vertex 54.0 3.5 3.7000000000000313
    vertex 54.00000000000005 3.5 9.517386878599154e-15
  endloop
endfacet
facet normal -0.9238795325112895 0.3826834323650834 -5.204170427930421e-16
  outer loop
    vertex 53.96592582628907 3.2411809548974784 3.7000000000000304
    vertex 53.8660254037845 3.0000000000000004 4.1242009807263e-14
    vertex 53.86602540378446 3.0000000000000004 3.7000000000000215
  endloop
endfacet
facet normal -0.9238795325112895 0.3826834323650834 -5.204170427930421e-16
  outer loop
    vertex 53.8660254037845 3.0000000000000004 4.1242009807263e-14
    vertex 53.96592582628907 3.2411809548974784 3.7000000000000304
    vertex 53.96592582628909 3.2411809548974784 6.380174166764618e-14
  endloop
endfacet
facet normal -0.7933533402912265 0.6087614290087321 -5.134781488891349e-16
  outer loop
    vertex 53.86602540378446 3.0000000000000004 3.7000000000000215
    vertex 53.707106781186575 2.7928932188134534 4.934941344458821e-14
    vertex 53.70710678118653 2.7928932188134534 3.700000000000023
  endloop
endfacet
facet normal -0.7933533402912265 0.6087614290087321 -5.134781488891349e-16
  outer loop
    vertex 53.707106781186575 2.7928932188134534 4.934941344458821e-14
    vertex 53.86602540378446 3.0000000000000004 3.7000000000000215
    vertex 53.8660254037845 3.0000000000000004 4.1242009807263e-14
  endloop
endfacet
facet normal 0.9914448613738105 0.13052619222005207 8.604228440844963e-16
  outer loop
    vertex 52.00000000000003 3.5 -8.107403637325205e-15
    vertex 52.034074173710934 3.24118095489748 3.6999999999999775
    vertex 52.034074173710955 3.24118095489748 -1.868227794687982e-14
  endloop
endfacet
facet normal 0.9914448613738105 0.13052619222005207 8.604228440844963e-16
  outer loop
    vertex 52.034074173710934 3.24118095489748 3.6999999999999775
    vertex 52.00000000000003 3.5 -8.107403637325205e-15
    vertex 52.00000000000003 3.5 3.69999999999997
  endloop
endfacet
facet normal 0.6087614290087162 0.7933533402912387 7.632783294297951e-17
  outer loop
    vertex 52.29289321881349 2.7928932188134543 3.699999999999971
    vertex 52.50000000000003 2.6339745962155634 3.8069547514396615e-14
    vertex 52.292893218813546 2.7928932188134543 -2.8904656446115947e-14
  endloop
endfacet
facet normal 0.6087614290087162 0.7933533402912387 7.632783294297951e-17
  outer loop
    vertex 52.50000000000003 2.6339745962155634 3.8069547514396615e-14
    vertex 52.29289321881349 2.7928932188134543 3.699999999999971
    vertex 52.500000000000014 2.6339745962155634 3.699999999999976
  endloop
endfacet
facet normal -0.38268343236508373 0.9238795325112894 6.938893903907228e-18
  outer loop
    vertex 53.25881904510254 2.5340741737109336 3.6999999999999567
    vertex 53.50000000000005 2.6339745962155625 4.2299497238218464e-14
    vertex 53.25881904510253 2.5340741737109336 2.9257152256434435e-14
  endloop
endfacet
facet normal -0.38268343236508373 0.9238795325112894 6.938893903907228e-18
  outer loop
    vertex 53.50000000000005 2.6339745962155625 4.2299497238218464e-14
    vertex 53.25881904510254 2.5340741737109336 3.6999999999999567
    vertex 53.5 2.6339745962155625 3.7
  endloop
endfacet
facet normal -0.13052619222005382 0.9914448613738103 -2.6020852139652106e-18
  outer loop
    vertex 53.000000000000014 2.5000000000000018 3.6999999999999917
    vertex 53.25881904510253 2.5340741737109336 2.9257152256434435e-14
    vertex 53.00000000000003 2.5000000000000018 -3.8422043324715104e-14
  endloop
endfacet
facet normal -0.13052619222005382 0.9914448613738103 -2.6020852139652106e-18
  outer loop
    vertex 53.25881904510253 2.5340741737109336 2.9257152256434435e-14
    vertex 53.000000000000014 2.5000000000000018 3.6999999999999917
    vertex 53.25881904510254 2.5340741737109336 3.6999999999999567
  endloop
endfacet
facet normal -0.6087614290087267 0.7933533402912307 -1.5959455978986625e-16
  outer loop
    vertex 53.5 2.6339745962155625 3.7
    vertex 53.707106781186575 2.7928932188134534 4.934941344458821e-14
    vertex 53.50000000000005 2.6339745962155625 4.2299497238218464e-14
  endloop
endfacet
facet normal -0.6087614290087267 0.7933533402912307 -1.5959455978986625e-16
  outer loop
    vertex 53.707106781186575 2.7928932188134534 4.934941344458821e-14
    vertex 53.5 2.6339745962155625 3.7
    vertex 53.70710678118653 2.7928932188134534 3.700000000000023
  endloop
endfacet
facet normal 0.6087614290087257 -0.7933533402912314 8.326672684688674e-17
  outer loop
    vertex 52.50000000000003 4.366025403784437 3.8069547514396615e-14
    vertex 52.29289321881351 4.207106781186546 3.6999999999999664
    vertex 52.29289321881357 4.207106781186546 -3.3487101980256284e-14
  endloop
endfacet
facet normal 0.6087614290087257 -0.7933533402912314 8.326672684688674e-17
  outer loop
    vertex 52.29289321881351 4.207106781186546 3.6999999999999664
    vertex 52.50000000000003 4.366025403784437 3.8069547514396615e-14
    vertex 52.500000000000014 4.366025403784437 3.699999999999976
  endloop
endfacet
facet normal 0.7933533402912369 0.6087614290087185 6.800116025829084e-16
  outer loop
    vertex 52.1339745962156 3.0000000000000013 -3.489708522153023e-14
    vertex 52.29289321881349 2.7928932188134543 3.699999999999971
    vertex 52.292893218813546 2.7928932188134543 -2.8904656446115947e-14
  endloop
endfacet
facet normal 0.7933533402912369 0.6087614290087185 6.800116025829084e-16
  outer loop
    vertex 52.29289321881349 2.7928932188134543 3.699999999999971
    vertex 52.1339745962156 3.0000000000000013 -3.489708522153023e-14
    vertex 52.13397459621558 3.0000000000000013 3.699999999999996
  endloop
endfacet
facet normal -0.1305261922200509 -0.9914448613738106 -3.0357660829594124e-17
  outer loop
    vertex 53.25881904510251 4.465925826289066 2.1149748619109232e-14
    vertex 53.000000000000014 4.499999999999998 3.6999999999999917
    vertex 53.00000000000003 4.499999999999998 -3.8422043324715104e-14
  endloop
endfacet
facet normal -0.1305261922200509 -0.9914448613738106 -3.0357660829594124e-17
  outer loop
    vertex 53.000000000000014 4.499999999999998 3.6999999999999917
    vertex 53.25881904510251 4.465925826289066 2.1149748619109232e-14
    vertex 53.25881904510254 4.465925826289066 3.6999999999999535
  endloop
endfacet
facet normal 0.9238795325112898 0.3826834323650826 3.8163916471489756e-16
  outer loop
    vertex 52.034074173710955 3.24118095489748 -1.868227794687982e-14
    vertex 52.13397459621558 3.0000000000000013 3.699999999999996
    vertex 52.1339745962156 3.0000000000000013 -3.489708522153023e-14
  endloop
endfacet
facet normal 0.9238795325112898 0.3826834323650826 3.8163916471489756e-16
  outer loop
    vertex 52.13397459621558 3.0000000000000013 3.699999999999996
    vertex 52.034074173710955 3.24118095489748 -1.868227794687982e-14
    vertex 52.034074173710934 3.24118095489748 3.6999999999999775
  endloop
endfacet
facet normal 0.3826834323650941 0.923879532511285 1.3877787807814454e-16
  outer loop
    vertex 52.50000000000003 2.6339745962155634 3.8069547514396615e-14
    vertex 52.74118095489755 2.5340741737109336 3.699999999999945
    vertex 52.7411809548975 2.5340741737109336 -3.1724622928663847e-15
  endloop
endfacet
facet normal 0.3826834323650941 0.923879532511285 1.3877787807814454e-16
  outer loop
    vertex 52.74118095489755 2.5340741737109336 3.699999999999945
    vertex 52.50000000000003 2.6339745962155634 3.8069547514396615e-14
    vertex 52.500000000000014 2.6339745962155634 3.699999999999976
  endloop
endfacet
facet normal -0.9238795325112901 -0.38268343236508207 -5.204170427930421e-16
  outer loop
    vertex 53.86602540378446 3.999999999999999 3.7000000000000215
    vertex 53.96592582628909 3.75881904510252 6.380174166764618e-14
    vertex 53.96592582628907 3.75881904510252 3.7000000000000304
  endloop
endfacet
facet normal -0.9238795325112901 -0.38268343236508207 -5.204170427930421e-16
  outer loop
    vertex 53.96592582628909 3.75881904510252 6.380174166764618e-14
    vertex 53.86602540378446 3.999999999999999 3.7000000000000215
    vertex 53.8660254037845 3.999999999999999 4.1242009807263e-14
  endloop
endfacet
facet normal 0.1305261922200509 0.9914448613738106 3.0357660829594124e-17
  outer loop
    vertex 52.7411809548975 2.5340741737109336 -3.1724622928663847e-15
    vertex 53.000000000000014 2.5000000000000018 3.6999999999999917
    vertex 53.00000000000003 2.5000000000000018 -3.8422043324715104e-14
  endloop
endfacet
facet normal 0.1305261922200509 0.9914448613738106 3.0357660829594124e-17
  outer loop
    vertex 53.000000000000014 2.5000000000000018 3.6999999999999917
    vertex 52.7411809548975 2.5340741737109336 -3.1724622928663847e-15
    vertex 52.74118095489755 2.5340741737109336 3.699999999999945
  endloop
endfacet
facet normal -0.13052619222005446 -0.9914448613738102 -2.42861286636753e-17
  outer loop
    vertex 77.25881904510271 4.465925826289068 -1.868227794687982e-14
    vertex 77.00000000000009 4.5 3.7000000000000046
    vertex 77.00000000000018 4.5 -6.521172490892013e-14
  endloop
endfacet
facet normal -0.13052619222005446 -0.9914448613738102 -2.42861286636753e-17
  outer loop
    vertex 77.00000000000009 4.5 3.7000000000000046
    vertex 77.25881904510271 4.465925826289068 -1.868227794687982e-14
    vertex 77.2588190451026 4.465925826289068 3.699999999999971
  endloop
endfacet
facet normal -0.3826834323650897 -0.9238795325112867 -1.3530843112619095e-16
  outer loop
    vertex 77.5000000000002 4.366025403784438 1.1632361740510077e-14
    vertex 77.2588190451026 4.465925826289068 3.699999999999971
    vertex 77.25881904510271 4.465925826289068 -1.868227794687982e-14
  endloop
endfacet
facet normal -0.3826834323650897 -0.9238795325112867 -1.3530843112619095e-16
  outer loop
    vertex 77.2588190451026 4.465925826289068 3.699999999999971
    vertex 77.5000000000002 4.366025403784438 1.1632361740510077e-14
    vertex 77.50000000000011 4.366025403784438 3.6999999999999806
  endloop
endfacet
facet normal -0.3826834323650897 0.9238795325112867 -1.3530843112619095e-16
  outer loop
    vertex 77.2588190451026 2.534074173710932 3.699999999999971
    vertex 77.5000000000002 2.633974596215561 1.1632361740510077e-14
    vertex 77.25881904510271 2.534074173710932 -1.868227794687982e-14
  endloop
endfacet
facet normal -0.3826834323650897 0.9238795325112867 -1.3530843112619095e-16
  outer loop
    vertex 77.5000000000002 2.633974596215561 1.1632361740510077e-14
    vertex 77.2588190451026 2.534074173710932 3.699999999999971
    vertex 77.5000000000001 2.633974596215561 3.6999999999999833
  endloop
endfacet
facet normal -0.13052619222005196 0.9914448613738104 -3.9898639947466563e-17
  outer loop
    vertex 77.00000000000009 2.5 3.7000000000000046
    vertex 77.25881904510271 2.534074173710932 -1.868227794687982e-14
    vertex 77.00000000000018 2.5 -6.521172490892013e-14
  endloop
endfacet
facet normal -0.13052619222005196 0.9914448613738104 -3.9898639947466563e-17
  outer loop
    vertex 77.25881904510271 2.534074173710932 -1.868227794687982e-14
    vertex 77.00000000000009 2.5 3.7000000000000046
    vertex 77.2588190451026 2.534074173710932 3.699999999999971
  endloop
endfacet
facet normal 0.3826834323650891 -0.9238795325112871 2.0122792321330962e-16
  outer loop
    vertex 76.7411809548976 4.465925826289069 3.6999999999999638
    vertex 76.50000000000017 4.366025403784439 -5.5694338030320975e-14
    vertex 76.7411809548976 4.465925826289069 -7.96640531319781e-14
  endloop
endfacet
facet normal 0.3826834323650891 -0.9238795325112871 2.0122792321330962e-16
  outer loop
    vertex 76.50000000000017 4.366025403784439 -5.5694338030320975e-14
    vertex 76.7411809548976 4.465925826289069 3.6999999999999638
    vertex 76.50000000000009 4.366025403784439 3.6999999999999607
  endloop
endfacet
facet normal 0.13052619222005196 -0.9914448613738104 3.9898639947466563e-17
  outer loop
    vertex 77.00000000000018 4.5 -6.521172490892013e-14
    vertex 76.7411809548976 4.465925826289069 3.6999999999999638
    vertex 76.7411809548976 4.465925826289069 -7.96640531319781e-14
  endloop
endfacet
facet normal 0.13052619222005196 -0.9914448613738104 3.9898639947466563e-17
  outer loop
    vertex 76.7411809548976 4.465925826289069 3.6999999999999638
    vertex 77.00000000000018 4.5 -6.521172490892013e-14
    vertex 77.00000000000009 4.5 3.7000000000000046
  endloop
endfacet
facet normal 0.7933533402912359 -0.6087614290087195 4.440892098500626e-16
  outer loop
    vertex 76.29289321881359 4.207106781186548 -6.3449245857327695e-15
    vertex 76.13397459621568 4.0 3.6999999999999784
    vertex 76.13397459621567 4.0 2.2912227670701668e-14
  endloop
endfacet
facet normal 0.7933533402912359 -0.6087614290087195 4.440892098500626e-16
  outer loop
    vertex 76.13397459621568 4.0 3.6999999999999784
    vertex 76.29289321881359 4.207106781186548 -6.3449245857327695e-15
    vertex 76.2928932188136 4.207106781186548 3.69999999999996
  endloop
endfacet
facet normal 0.6087614290087212 -0.7933533402912347 1.457167719820518e-16
  outer loop
    vertex 76.50000000000009 4.366025403784439 3.6999999999999607
    vertex 76.29289321881359 4.207106781186548 -6.3449245857327695e-15
    vertex 76.50000000000017 4.366025403784439 -5.5694338030320975e-14
  endloop
endfacet
facet normal 0.6087614290087212 -0.7933533402912347 1.457167719820518e-16
  outer loop
    vertex 76.29289321881359 4.207106781186548 -6.3449245857327695e-15
    vertex 76.50000000000009 4.366025403784439 3.6999999999999607
    vertex 76.2928932188136 4.207106781186548 3.69999999999996
  endloop
endfacet
facet normal -8.743006318923106e-16 0.0 1.0
  outer loop
    vertex 50.00000000000004 0.0 20.000000000000036
    vertex 51.500000000000064 1.5 20.000000000000046
    vertex 50.00000000000004 7.0 20.000000000000036
  endloop
endfacet
facet normal -8.743006318923106e-16 0.0 1.0
  outer loop
    vertex 51.500000000000064 1.5 20.000000000000046
    vertex 50.00000000000004 0.0 20.000000000000036
    vertex 78.50000000000014 0.0 19.99999999999998
  endloop
endfacet
facet normal -8.743006318923106e-16 0.0 1.0
  outer loop
    vertex 51.500000000000064 1.5 20.000000000000046
    vertex 78.50000000000014 0.0 19.99999999999998
    vertex 78.50000000000014 1.5 19.99999999999998
  endloop
endfacet
facet normal -8.743006318923106e-16 0.0 1.0
  outer loop
    vertex 78.50000000000014 1.5 19.99999999999998
    vertex 78.50000000000014 0.0 19.99999999999998
    vertex 80.00000000000014 0.0 19.999999999999986
  endloop
endfacet
facet normal -8.743006318923106e-16 0.0 1.0
  outer loop
    vertex 78.50000000000014 1.5 19.99999999999998
    vertex 80.00000000000014 0.0 19.999999999999986
    vertex 78.50000000000014 5.5 19.99999999999998
  endloop
endfacet
facet normal -8.743006318923106e-16 0.0 1.0
  outer loop
    vertex 50.00000000000004 7.0 20.000000000000036
    vertex 51.500000000000064 5.5 20.000000000000046
    vertex 80.00000000000014 7.0 19.999999999999986
  endloop
endfacet
facet normal -8.743006318923106e-16 0.0 1.0
  outer loop
    vertex 51.500000000000064 5.5 20.000000000000046
    vertex 50.00000000000004 7.0 20.000000000000036
    vertex 51.500000000000064 1.5 20.000000000000046
  endloop
endfacet
facet normal -8.743006318923106e-16 0.0 1.0
  outer loop
    vertex 80.00000000000014 7.0 19.999999999999986
    vertex 51.500000000000064 5.5 20.000000000000046
    vertex 78.50000000000014 5.5 19.99999999999998
  endloop
endfacet
facet normal -8.743006318923106e-16 0.0 1.0
  outer loop
    vertex 80.00000000000014 7.0 19.999999999999986
    vertex 78.50000000000014 5.5 19.99999999999998
    vertex 80.00000000000014 0.0 19.999999999999986
  endloop
endfacet
facet normal 1.0 0.0 8.743006318923106e-16
  outer loop
    vertex 51.50000000000004 5.5 3.700000000000017
    vertex 51.500000000000064 1.5 20.000000000000046
    vertex 51.50000000000004 1.5 3.700000000000017
  endloop
endfacet
facet normal 1.0 0.0 8.743006318923106e-16
  outer loop
    vertex 51.500000000000064 1.5 20.000000000000046
    vertex 51.50000000000004 5.5 3.700000000000017
    vertex 51.500000000000064 5.5 20.000000000000046
  endloop
endfacet
facet normal -8.743006318923106e-16 0.0 1.0
  outer loop
    vertex 51.50000000000004 1.5 3.700000000000017
    vertex 52.034074173710934 3.24118095489748 3.6999999999999775
    vertex 51.50000000000004 5.5 3.700000000000017
  endloop
endfacet
facet normal -8.743006318923106e-16 0.0 1.0
  outer loop
    vertex 52.034074173710934 3.24118095489748 3.6999999999999775
    vertex 51.50000000000004 1.5 3.700000000000017
    vertex 52.13397459621558 3.0000000000000013 3.699999999999996
  endloop
endfacet
facet normal -8.743006318923106e-16 0.0 1.0
  outer loop
    vertex 52.13397459621558 3.0000000000000013 3.699999999999996
    vertex 51.50000000000004 1.5 3.700000000000017
    vertex 52.29289321881349 2.7928932188134543 3.699999999999971
  endloop
endfacet
facet normal -8.743006318923106e-16 0.0 1.0
  outer loop
    vertex 52.29289321881349 2.7928932188134543 3.699999999999971
    vertex 51.50000000000004 1.5 3.700000000000017
    vertex 52.500000000000014 2.6339745962155634 3.699999999999976
  endloop
endfacet
facet normal -8.743006318923106e-16 0.0 1.0
  outer loop
    vertex 52.500000000000014 2.6339745962155634 3.699999999999976
    vertex 51.50000000000004 1.5 3.700000000000017
    vertex 52.74118095489755 2.5340741737109336 3.699999999999945
  endloop
endfacet
facet normal -8.743006318923106e-16 0.0 1.0
  outer loop
    vertex 52.74118095489755 2.5340741737109336 3.699999999999945
    vertex 51.50000000000004 1.5 3.700000000000017
    vertex 53.000000000000014 2.5000000000000018 3.6999999999999917
  endloop
endfacet
facet normal -8.743006318923106e-16 0.0 1.0
  outer loop
    vertex 53.000000000000014 2.5000000000000018 3.6999999999999917
    vertex 51.50000000000004 1.5 3.700000000000017
    vertex 78.5000000000001 1.5 3.6999999999999975
  endloop
endfacet
facet normal -8.743006318923106e-16 0.0 1.0
  outer loop
    vertex 51.50000000000004 5.5 3.700000000000017
    vertex 52.034074173710934 3.24118095489748 3.6999999999999775
    vertex 52.00000000000003 3.5 3.69999999999997
  endloop
endfacet
facet normal -8.743006318923106e-16 0.0 1.0
  outer loop
    vertex 53.000000000000014 2.5000000000000018 3.6999999999999917
    vertex 78.5000000000001 1.5 3.6999999999999975
    vertex 53.25881904510254 2.5340741737109336 3.6999999999999567
  endloop
endfacet
facet normal -8.743006318923106e-16 0.0 1.0
  outer loop
    vertex 53.25881904510254 2.5340741737109336 3.6999999999999567
    vertex 78.5000000000001 1.5 3.6999999999999975
    vertex 53.5 2.6339745962155625 3.7
  endloop
endfacet
facet normal -8.743006318923106e-16 0.0 1.0
  outer loop
    vertex 53.5 2.6339745962155625 3.7
    vertex 78.5000000000001 1.5 3.6999999999999975
    vertex 53.70710678118653 2.7928932188134534 3.700000000000023
  endloop
endfacet
facet normal -8.743006318923106e-16 0.0 1.0
  outer loop
    vertex 53.70710678118653 2.7928932188134534 3.700000000000023
    vertex 78.5000000000001 1.5 3.6999999999999975
    vertex 53.86602540378446 3.0000000000000004 3.7000000000000215
  endloop
endfacet
facet normal -8.743006318923106e-16 0.0 1.0
  outer loop
    vertex 53.86602540378446 3.0000000000000004 3.7000000000000215
    vertex 78.5000000000001 1.5 3.6999999999999975
    vertex 53.96592582628907 3.2411809548974784 3.7000000000000304
  endloop
endfacet
facet normal -8.743006318923106e-16 0.0 1.0
  outer loop
    vertex 53.96592582628907 3.2411809548974784 3.7000000000000304
    vertex 78.5000000000001 1.5 3.6999999999999975
    vertex 54.0 3.5 3.7000000000000313
  endloop
endfacet
facet normal -8.743006318923106e-16 0.0 1.0
  outer loop
    vertex 54.0 3.5 3.7000000000000313
    vertex 78.5000000000001 1.5 3.6999999999999975
    vertex 76.50000000000007 2.6339745962155616 3.699999999999953
  endloop
endfacet
facet normal -8.743006318923106e-16 0.0 1.0
  outer loop
    vertex 54.0 3.5 3.7000000000000313
    vertex 76.50000000000007 2.6339745962155616 3.699999999999953
    vertex 76.2928932188136 2.7928932188134525 3.69999999999996
  endloop
endfacet
facet normal -8.743006318923106e-16 0.0 1.0
  outer loop
    vertex 54.0 3.5 3.7000000000000313
    vertex 76.2928932188136 2.7928932188134525 3.69999999999996
    vertex 76.13397459621568 3.0 3.6999999999999784
  endloop
endfacet
facet normal -8.743006318923106e-16 0.0 1.0
  outer loop
    vertex 54.0 3.5 3.7000000000000313
    vertex 76.13397459621568 3.0 3.6999999999999784
    vertex 76.03407417371106 3.2411809548974793 3.699999999999977
  endloop
endfacet
facet normal -8.743006318923106e-16 0.0 1.0
  outer loop
    vertex 54.0 3.5 3.7000000000000313
    vertex 76.03407417371106 3.2411809548974793 3.699999999999977
    vertex 76.00000000000011 3.5 3.6999999999999296
  endloop
endfacet
facet normal -8.743006318923106e-16 0.0 1.0
  outer loop
    vertex 76.50000000000007 2.6339745962155616 3.699999999999953
    vertex 78.5000000000001 1.5 3.6999999999999975
    vertex 76.7411809548976 2.534074173710932 3.6999999999999638
  endloop
endfacet
facet normal -8.743006318923106e-16 0.0 1.0
  outer loop
    vertex 76.7411809548976 2.534074173710932 3.6999999999999638
    vertex 78.5000000000001 1.5 3.6999999999999975
    vertex 77.00000000000009 2.5 3.7000000000000046
  endloop
endfacet
facet normal -8.743006318923106e-16 0.0 1.0
  outer loop
    vertex 77.00000000000009 2.5 3.7000000000000046
    vertex 78.5000000000001 1.5 3.6999999999999975
    vertex 77.2588190451026 2.534074173710932 3.699999999999971
  endloop
endfacet
facet normal -8.743006318923106e-16 0.0 1.0
  outer loop
    vertex 77.2588190451026 2.534074173710932 3.699999999999971
    vertex 78.5000000000001 1.5 3.6999999999999975
    vertex 77.5000000000001 2.633974596215561 3.6999999999999833
  endloop
endfacet
facet normal -8.743006318923106e-16 0.0 1.0
  outer loop
    vertex 77.5000000000001 2.633974596215561 3.6999999999999833
    vertex 78.5000000000001 1.5 3.6999999999999975
    vertex 77.70710678118668 2.7928932188134525 3.699999999999977
  endloop
endfacet
facet normal -8.743006318923106e-16 0.0 1.0
  outer loop
    vertex 77.70710678118668 2.7928932188134525 3.699999999999977
    vertex 78.5000000000001 1.5 3.6999999999999975
    vertex 77.8660254037846 2.9999999999999996 3.699999999999971
  endloop
endfacet
facet normal -8.743006318923106e-16 0.0 1.0
  outer loop
    vertex 77.8660254037846 2.9999999999999996 3.699999999999971
    vertex 78.5000000000001 1.5 3.6999999999999975
    vertex 77.96592582628915 3.2411809548974793 3.6999999999999496
  endloop
endfacet
facet normal -8.743006318923106e-16 0.0 1.0
  outer loop
    vertex 77.96592582628915 3.2411809548974793 3.6999999999999496
    vertex 78.5000000000001 1.5 3.6999999999999975
    vertex 78.00000000000011 3.5 3.699999999999946
  endloop
endfacet
facet normal -8.743006318923106e-16 0.0 1.0
  outer loop
    vertex 51.50000000000004 5.5 3.700000000000017
    vertex 53.000000000000014 4.499999999999998 3.6999999999999917
    vertex 78.5000000000001 5.5 3.6999999999999975
  endloop
endfacet
facet normal -8.743006318923106e-16 0.0 1.0
  outer loop
    vertex 53.000000000000014 4.499999999999998 3.6999999999999917
    vertex 51.50000000000004 5.5 3.700000000000017
    vertex 52.74118095489755 4.465925826289066 3.699999999999945
  endloop
endfacet
facet normal -8.743006318923106e-16 0.0 1.0
  outer loop
    vertex 52.74118095489755 4.465925826289066 3.699999999999945
    vertex 51.50000000000004 5.5 3.700000000000017
    vertex 52.500000000000014 4.366025403784437 3.699999999999976
  endloop
endfacet
facet normal -8.743006318923106e-16 0.0 1.0
  outer loop
    vertex 52.500000000000014 4.366025403784437 3.699999999999976
    vertex 51.50000000000004 5.5 3.700000000000017
    vertex 52.29289321881351 4.207106781186546 3.6999999999999664
  endloop
endfacet
facet normal -8.743006318923106e-16 0.0 1.0
  outer loop
    vertex 52.29289321881351 4.207106781186546 3.6999999999999664
    vertex 51.50000000000004 5.5 3.700000000000017
    vertex 52.13397459621558 3.9999999999999996 3.699999999999996
  endloop
endfacet
facet normal -8.743006318923106e-16 0.0 1.0
  outer loop
    vertex 52.13397459621558 3.9999999999999996 3.699999999999996
    vertex 51.50000000000004 5.5 3.700000000000017
    vertex 52.034074173710934 3.7588190451025207 3.6999999999999775
  endloop
endfacet
facet normal -8.743006318923106e-16 0.0 1.0
  outer loop
    vertex 52.034074173710934 3.7588190451025207 3.6999999999999775
    vertex 51.50000000000004 5.5 3.700000000000017
    vertex 52.00000000000003 3.5 3.69999999999997
  endloop
endfacet
facet normal -8.743006318923106e-16 0.0 1.0
  outer loop
    vertex 78.5000000000001 5.5 3.6999999999999975
    vertex 53.000000000000014 4.499999999999998 3.6999999999999917
    vertex 53.25881904510254 4.465925826289066 3.6999999999999535
  endloop
endfacet
facet normal -8.743006318923106e-16 0.0 1.0
  outer loop
    vertex 78.5000000000001 5.5 3.6999999999999975
    vertex 53.25881904510254 4.465925826289066 3.6999999999999535
    vertex 53.5 4.366025403784437 3.7
  endloop
endfacet
facet normal -8.743006318923106e-16 0.0 1.0
  outer loop
    vertex 78.5000000000001 5.5 3.6999999999999975
    vertex 53.5 4.366025403784437 3.7
    vertex 53.70710678118653 4.207106781186546 3.700000000000023
  endloop
endfacet
facet normal -8.743006318923106e-16 0.0 1.0
  outer loop
    vertex 78.5000000000001 5.5 3.6999999999999975
    vertex 53.70710678118653 4.207106781186546 3.700000000000023
    vertex 53.86602540378446 3.999999999999999 3.7000000000000215
  endloop
endfacet
facet normal -8.743006318923106e-16 0.0 1.0
  outer loop
    vertex 78.5000000000001 5.5 3.6999999999999975
    vertex 53.86602540378446 3.999999999999999 3.7000000000000215
    vertex 53.96592582628907 3.75881904510252 3.7000000000000304
  endloop
endfacet
facet normal -8.743006318923106e-16 0.0 1.0
  outer loop
    vertex 78.5000000000001 5.5 3.6999999999999975
    vertex 53.96592582628907 3.75881904510252 3.7000000000000304
    vertex 54.0 3.5 3.7000000000000313
  endloop
endfacet
facet normal -8.743006318923106e-16 0.0 1.0
  outer loop
    vertex 78.5000000000001 5.5 3.6999999999999975
    vertex 54.0 3.5 3.7000000000000313
    vertex 76.50000000000009 4.366025403784439 3.6999999999999607
  endloop
endfacet
facet normal -8.743006318923106e-16 0.0 1.0
  outer loop
    vertex 76.50000000000009 4.366025403784439 3.6999999999999607
    vertex 54.0 3.5 3.7000000000000313
    vertex 76.2928932188136 4.207106781186548 3.69999999999996
  endloop
endfacet
facet normal -8.743006318923106e-16 0.0 1.0
  outer loop
    vertex 76.2928932188136 4.207106781186548 3.69999999999996
    vertex 54.0 3.5 3.7000000000000313
    vertex 76.13397459621568 4.0 3.6999999999999784
  endloop
endfacet
facet normal -8.743006318923106e-16 0.0 1.0
  outer loop
    vertex 76.13397459621568 4.0 3.6999999999999784
    vertex 54.0 3.5 3.7000000000000313
    vertex 76.03407417371106 3.758819045102521 3.699999999999977
  endloop
endfacet
facet normal -8.743006318923106e-16 0.0 1.0
  outer loop
    vertex 76.03407417371106 3.758819045102521 3.699999999999977
    vertex 54.0 3.5 3.7000000000000313
    vertex 76.00000000000011 3.5 3.6999999999999296
  endloop
endfacet
facet normal -8.743006318923106e-16 0.0 1.0
  outer loop
    vertex 78.5000000000001 5.5 3.6999999999999975
    vertex 76.50000000000009 4.366025403784439 3.6999999999999607
    vertex 76.7411809548976 4.465925826289069 3.6999999999999638
  endloop
endfacet
facet normal -8.743006318923106e-16 0.0 1.0
  outer loop
    vertex 78.5000000000001 5.5 3.6999999999999975
    vertex 76.7411809548976 4.465925826289069 3.6999999999999638
    vertex 77.00000000000009 4.5 3.7000000000000046
  endloop
endfacet
facet normal -8.743006318923106e-16 0.0 1.0
  outer loop
    vertex 78.5000000000001 5.5 3.6999999999999975
    vertex 77.00000000000009 4.5 3.7000000000000046
    vertex 77.2588190451026 4.465925826289068 3.699999999999971
  endloop
endfacet
facet normal -8.743006318923106e-16 0.0 1.0
  outer loop
    vertex 78.5000000000001 5.5 3.6999999999999975
    vertex 77.2588190451026 4.465925826289068 3.699999999999971
    vertex 77.50000000000011 4.366025403784438 3.6999999999999806
  endloop
endfacet
facet normal -8.743006318923106e-16 0.0 1.0
  outer loop
    vertex 78.5000000000001 5.5 3.6999999999999975
    vertex 77.50000000000011 4.366025403784438 3.6999999999999806
    vertex 77.70710678118668 4.207106781186547 3.699999999999977
  endloop
endfacet
facet normal -8.743006318923106e-16 0.0 1.0
  outer loop
    vertex 78.5000000000001 5.5 3.6999999999999975
    vertex 77.70710678118668 4.207106781186547 3.699999999999977
    vertex 77.8660254037846 3.9999999999999996 3.699999999999971
  endloop
endfacet
facet normal -8.743006318923106e-16 0.0 1.0
  outer loop
    vertex 78.5000000000001 5.5 3.6999999999999975
    vertex 77.8660254037846 3.9999999999999996 3.699999999999971
    vertex 77.96592582628915 3.7588190451025207 3.6999999999999496
  endloop
endfacet
facet normal -8.743006318923106e-16 0.0 1.0
  outer loop
    vertex 78.5000000000001 5.5 3.6999999999999975
    vertex 77.96592582628915 3.7588190451025207 3.6999999999999496
    vertex 78.00000000000011 3.5 3.699999999999946
  endloop
endfacet
facet normal -8.743006318923106e-16 0.0 1.0
  outer loop
    vertex 78.5000000000001 5.5 3.6999999999999975
    vertex 78.00000000000011 3.5 3.699999999999946
    vertex 78.5000000000001 1.5 3.6999999999999975
  endloop
endfacet
facet normal 0.9238795325112901 -0.38268343236508207 5.204170427930421e-16
  outer loop
    vertex 52.1339745962156 3.9999999999999996 -3.489708522153023e-14
    vertex 52.034074173710934 3.7588190451025207 3.6999999999999775
    vertex 52.034074173710955 3.7588190451025207 -1.868227794687982e-14
  endloop
endfacet
facet normal 0.9238795325112901 -0.38268343236508207 5.204170427930421e-16
  outer loop
    vertex 52.034074173710934 3.7588190451025207 3.6999999999999775
    vertex 52.1339745962156 3.9999999999999996 -3.489708522153023e-14
    vertex 52.13397459621558 3.9999999999999996 3.699999999999996
  endloop
endfacet
facet normal -0.38268343236509306 -0.9238795325112855 -5.204170427930421e-17
  outer loop
    vertex 53.50000000000005 4.366025403784437 4.2299497238218464e-14
    vertex 53.25881904510254 4.465925826289066 3.6999999999999535
    vertex 53.25881904510251 4.465925826289066 2.1149748619109232e-14
  endloop
endfacet
facet normal -0.38268343236509306 -0.9238795325112855 -5.204170427930421e-17
  outer loop
    vertex 53.25881904510254 4.465925826289066 3.6999999999999535
    vertex 53.50000000000005 4.366025403784437 4.2299497238218464e-14
    vertex 53.5 4.366025403784437 3.7
  endloop
endfacet
facet normal 0.1305261922200509 -0.9914448613738106 3.0357660829594124e-17
  outer loop
    vertex 53.000000000000014 4.499999999999998 3.6999999999999917
    vertex 52.7411809548975 4.465925826289066 -3.1724622928663847e-15
    vertex 53.00000000000003 4.499999999999998 -3.8422043324715104e-14
  endloop
endfacet
facet normal 0.1305261922200509 -0.9914448613738106 3.0357660829594124e-17
  outer loop
    vertex 52.7411809548975 4.465925826289066 -3.1724622928663847e-15
    vertex 53.000000000000014 4.499999999999998 3.6999999999999917
    vertex 52.74118095489755 4.465925826289066 3.699999999999945
  endloop
endfacet
endsolid support-reed
