<?xml version="1.0" encoding="UTF-8" standalone="no"?>
<!-- Created with Fritzing (http://www.fritzing.org/) -->

<svg
   xmlns:dc="http://purl.org/dc/elements/1.1/"
   xmlns:cc="http://creativecommons.org/ns#"
   xmlns:rdf="http://www.w3.org/1999/02/22-rdf-syntax-ns#"
   xmlns:svg="http://www.w3.org/2000/svg"
   xmlns="http://www.w3.org/2000/svg"
   xmlns:sodipodi="http://sodipodi.sourceforge.net/DTD/sodipodi-0.dtd"
   xmlns:inkscape="http://www.inkscape.org/namespaces/inkscape"
   viewBox="0 0 123.2 112"
   x="0in"
   width="43.462193mm"
   y="0in"
   height="39.511223mm"
   version="1.2"
   id="svg2"
   inkscape:version="0.91 r13725"
   sodipodi:docname="ESP8266GAZ_etch_copper_bottom.svg">
  <metadata
     id="metadata522">
    <rdf:RDF>
      <cc:Work
         rdf:about="">
        <dc:format>image/svg+xml</dc:format>
        <dc:type
           rdf:resource="http://purl.org/dc/dcmitype/StillImage" />
        <dc:title></dc:title>
      </cc:Work>
    </rdf:RDF>
  </metadata>
  <defs
     id="defs520" />
  <sodipodi:namedview
     pagecolor="#ffffff"
     bordercolor="#666666"
     borderopacity="1"
     objecttolerance="10"
     gridtolerance="10"
     guidetolerance="10"
     inkscape:pageopacity="0"
     inkscape:pageshadow="2"
     inkscape:window-width="1732"
     inkscape:window-height="1197"
     id="namedview518"
     showgrid="false"
     inkscape:document-units="mm"
     units="mm"
     inkscape:zoom="4.7679064"
     inkscape:cx="68.625655"
     inkscape:cy="59.996383"
     inkscape:window-x="161"
     inkscape:window-y="19"
     inkscape:window-maximized="0"
     inkscape:current-layer="svg2" />
  <path
     style="color:#000000;font-style:normal;font-variant:normal;font-weight:normal;font-stretch:normal;font-size:medium;line-height:normal;font-family:sans-serif;text-indent:0;text-align:start;text-decoration:none;text-decoration-line:none;text-decoration-style:solid;text-decoration-color:#000000;letter-spacing:normal;word-spacing:normal;text-transform:none;direction:ltr;block-progression:tb;writing-mode:lr-tb;baseline-shift:baseline;text-anchor:start;white-space:normal;clip-rule:nonzero;display:inline;overflow:visible;visibility:visible;opacity:1;isolation:auto;mix-blend-mode:normal;color-interpolation:sRGB;color-interpolation-filters:linearRGB;solid-color:#000000;solid-opacity:1;fill:#000000;fill-opacity:1;fill-rule:nonzero;stroke:none;stroke-width:0.5;stroke-linecap:butt;stroke-linejoin:miter;stroke-miterlimit:4;stroke-dasharray:none;stroke-dashoffset:0;stroke-opacity:1;color-rendering:auto;image-rendering:auto;shape-rendering:auto;text-rendering:auto;enable-background:accumulate"
     d="m 0.046875,0.046875 0,0.3125 0,139.593745 153.906245,0 0,-139.906245 -153.906245,0 z m 0.625,0.625 152.656245,0 0,138.656245 -152.656245,0 0,-138.656245 z M 147.06836,4.2109375 a 1.0801073,1.0801073 0 0 0 -0.20508,0.017578 L 119.64062,4.6269531 65.429688,4.8261719 A 1.0801073,1.0801073 0 0 0 65.214844,4.8125 a 1.0801073,1.0801073 0 0 0 -1.021485,0.9023438 1.0803279,1.0803279 0 0 0 -0.002,0.017578 1.0801073,1.0801073 0 0 0 -0.01172,0.09375 1.0803279,1.0803279 0 0 0 0,0.00781 l -4.523438,59.5898432 -12.480469,-0.06836 0,-1.175781 -17.738281,0 0,1.535156 -8.044922,0.36914 c -0.494058,-1.253822 -1.715227,-2.152343 -3.136719,-2.152343 -1.8533,0 -3.373047,1.5217 -3.373047,3.375 0,1.8533 1.519747,3.375 3.373047,3.375 1.527938,0 2.816542,-1.039932 3.226563,-2.441407 l 7.955078,-0.363281 0,0.724609 6.316406,0 -8.023437,13.628907 c -0.249335,-0.05942 -0.506796,-0.09961 -0.773438,-0.09961 -1.853299,0 -3.375,1.5217 -3.375,3.375 0,1.68724 1.265968,3.086391 2.890625,3.326172 l 1.986328,12.964853 c -1.230643,0.60067 -2.091796,1.85708 -2.091796,3.31054 0,2.02727 1.662183,3.68945 3.689453,3.68946 2.027268,0 3.691406,-1.66219 3.691406,-3.68946 0,-1.84408 -1.381532,-3.3728 -3.15625,-3.63672 L 28.597656,88.435547 c 0.790035,-0.446821 1.381947,-1.195127 1.615235,-2.091797 a 1.0803212,1.0803212 0 0 0 0.002,-1.671875 c -0.123866,-0.478474 -0.351408,-0.912321 -0.65625,-1.285156 l 8.671875,-14.738281 a 1.0801073,1.0801073 0 0 0 0.02539,-0.04688 l 8.919922,0 0,-1.08789 10.265625,0.05469 -16.517578,12.386719 a 1.0801073,1.0801073 0 0 0 -0.519531,0.705078 1.080322,1.080322 0 0 0 0,0.002 1.080322,1.080322 0 0 0 0,0.002 1.0801073,1.0801073 0 0 0 -0.01563,0.08398 1.080322,1.080322 0 0 0 -0.0059,0.04102 1.0801073,1.0801073 0 0 0 -0.002,0.04297 1.080322,1.080322 0 0 0 -0.0039,0.09375 L 40.040977,95.53525 a 1.0801073,1.0801073 0 0 0 1.339843,1.111328 l 25.962891,0.517578 -0.193359,6.361324 c -1.181844,0.41762 -2.042969,1.53951 -2.042969,2.85742 0,1.66837 1.370696,3.04102 3.039062,3.04102 1.668368,0 3.039063,-1.37265 3.039063,-3.04102 0,-1.25624 -0.776712,-2.34394 -1.873047,-2.80469 l 0.191406,-6.414054 8.511719,-0.169921 a 1.0801073,1.0801073 0 0 0 1.320313,-1.033203 1.0805453,1.0805453 0 0 0 0,-0.07422 1.0801073,1.0801073 0 0 0 0,-0.0098 l 0,-0.02344 a 1.0805453,1.0805453 0 0 0 0,-0.0098 L 79.16793,89.712913 c 1.355736,-0.487366 2.339843,-1.774964 2.339843,-3.291016 0,-1.927859 -1.581908,-3.511719 -3.509765,-3.511719 -1.927859,0 -3.507813,1.58386 -3.507813,3.511719 0,1.582944 1.071066,2.917089 2.519532,3.349609 l 0.138672,5.076172 -8.53711,0.177735 a 1.0801073,1.0801073 0 0 0 -0.136719,-0.01367 1.0801073,1.0801073 0 0 0 -0.169921,0.01367 l -26.08004,-0.52346 0.300782,-13.048828 18.59375,-13.941406 a 1.0801073,1.0801073 0 0 0 0.125,-0.07227 1.0801073,1.0801073 0 0 0 0.511718,-1.166015 l 4.5,-59.289063 53.371091,-0.1972656 a 1.0804381,1.0804381 0 0 0 0.0332,0 1.0803278,1.0803278 0 0 0 0.0117,0 l 26.38476,-0.3847656 0.0879,1.1972656 c -1.20811,0.5155357 -2.0625,1.7170447 -2.0625,3.1054686 0,1.8533 1.52366,3.376953 3.37695,3.376953 1.8533,0 3.37305,-1.523653 3.37305,-3.376953 0,-1.5622657 -1.08564,-2.8759928 -2.53515,-3.2539061 L 148.1367,5.2597616 a 1.0804382,1.0804382 0 0 0 -0.002,-0.033203 1.0801073,1.0801073 0 0 0 -0.008,-0.074219 1.0804382,1.0804382 0 0 0 0,-0.00391 1.0801073,1.0801073 0 0 0 -1.05859,-0.9375 z m 0.64258,4.9453125 c 0.75642,0.1186935 1.32226,0.7549213 1.32226,1.548828 0,0.880508 -0.69372,1.576172 -1.57422,1.576172 -0.88051,0 -1.57812,-0.695664 -1.57812,-1.576172 0,-0.7108371 0.45744,-1.2933801 1.0957,-1.4941405 a 1.0801073,1.0801073 0 0 0 0.73438,-0.054687 z m -18.65625,3.375 0,1.736328 -6.60742,-0.03906 -0.008,0 a 1.0801073,1.0801073 0 0 0 -0.20898,-0.01758 1.0801073,1.0801073 0 0 0 -1.01367,0.800781 1.0801073,1.0801073 0 0 0 -0.0234,0.105469 1.0801073,1.0801073 0 0 0 -0.0117,0.08984 l 0,0.0078 a 1.0803391,1.0803391 0 0 0 -0.002,0.01367 l -1.3125,14.408203 -7.26953,0.07617 0,-1.035157 -17.736332,0 0,4.421875 17.736332,0 0,-1.224609 8.27148,-0.08789 a 1.0810791,1.0810791 0 0 0 0.0723,-0.0039 1.0803907,1.0803907 0 0 0 0.0644,-0.0059 1.0810791,1.0810791 0 0 0 0.0254,-0.0039 1.0803907,1.0803907 0 0 0 0.18555,-0.04883 1.0810791,1.0810791 0 0 0 0.0723,-0.02734 1.0803907,1.0803907 0 0 0 0.008,-0.0039 1.0810791,1.0810791 0 0 0 0.17968,-0.101562 1.0803907,1.0803907 0 0 0 0.004,-0.0039 1.0810791,1.0810791 0 0 0 0.082,-0.0625 1.0803907,1.0803907 0 0 0 0.0215,-0.01953 1.0810791,1.0810791 0 0 0 0.0117,-0.01172 1.0803907,1.0803907 0 0 0 0.19336,-0.240235 1.0810791,1.0810791 0 0 0 0.008,-0.01367 1.0803907,1.0803907 0 0 0 0.082,-0.18164 1.0810791,1.0810791 0 0 0 0.0215,-0.07422 1.0803907,1.0803907 0 0 0 0.002,-0.0078 1.0810791,1.0810791 0 0 0 0.0117,-0.05469 1.0803907,1.0803907 0 0 0 0.0137,-0.07422 1.0810791,1.0810791 0 0 0 0.006,-0.04492 l 1.3086,-14.410156 5.8125,0.03711 0,1.771484 5.66992,0 0,-0.708984 0,-4.960938 -5.66992,0 z m 2.83398,1.416016 c 0.79118,0 1.41992,0.628747 1.41992,1.419922 0,0.791173 -0.62874,1.416015 -1.41992,1.416015 -0.68791,0 -1.24779,-0.473817 -1.38281,-1.117187 a 1.0803459,1.0803459 0 0 0 0.004,-0.611328 c 0.13954,-0.637619 0.69535,-1.107422 1.3789,-1.107422 z m -37.367186,0.533203 0,1.136719 -12.667968,0.0098 a 1.0801073,1.0801073 0 0 0 -0.002,0 1.0801073,1.0801073 0 0 0 -0.216796,-0.01563 1.0801073,1.0801073 0 0 0 -0.333985,0.06055 1.0801073,1.0801073 0 0 0 -0.765625,1.146484 L 70.439453,68.494141 60.914062,83.048828 c -0.294446,-0.08104 -0.597081,-0.138672 -0.916015,-0.138672 -1.927859,0 -3.509766,1.58386 -3.509766,3.511719 0,1.927857 1.581907,3.509766 3.509766,3.509766 1.927857,0 3.509765,-1.581909 3.509765,-3.509766 0,-0.828602 -0.302533,-1.584642 -0.789062,-2.1875 l 9.550781,-14.595703 a 1.0801073,1.0801073 0 0 0 0.22461,-0.423828 1.0801073,1.0801073 0 0 0 0.04102,-0.195313 l 10.011719,-51.234375 11.974609,-0.0098 0,1.126953 17.738291,0 0,-4.421875 -17.738291,0 z m -65.238281,0.105469 0,4.419921 17.736328,0 0,-4.419921 -17.736328,0 z m 102.605467,6.802734 c -1.55713,0 -2.83398,1.278798 -2.83398,2.835937 0,1.081735 0.62303,2.016905 1.52148,2.494141 l -0.66797,7.283203 c -1.47906,0.357311 -2.59375,1.688492 -2.59375,3.271485 0,1.8533 1.52366,3.373046 3.37696,3.373046 1.85331,0 3.37304,-1.519746 3.37304,-3.373046 0,-1.366382 -0.82878,-2.547502 -2.00586,-3.076172 l 0.66797,-7.28125 c 1.15038,-0.361336 1.99805,-1.426985 1.99805,-2.691407 0,-1.557139 -1.2788,-2.835937 -2.83594,-2.835937 z m -36.937498,0.197266 0,1.191406 -7.302734,0.04883 a 1.0801073,1.0801073 0 0 0 -0.207032,-0.01563 1.0801073,1.0801073 0 0 0 -0.363281,0.07031 1.0801073,1.0801073 0 0 0 -0.728516,1.234375 L 82.208984,65.71875 70.023438,83.082031 c -0.32647,-0.101369 -0.667156,-0.171875 -1.025391,-0.171875 -1.927859,-10e-7 -3.509766,1.58386 -3.509766,3.511719 0,1.927859 1.581907,3.509767 3.509766,3.509766 1.927857,0 3.511719,-1.581909 3.511719,-3.509766 0,-0.787393 -0.274997,-1.509698 -0.71875,-2.097656 L 84.015625,66.90625 a 1.0801073,1.0801073 0 0 0 0.300781,-0.570312 1.0801073,1.0801073 0 0 0 0.002,-0.0098 1.0801073,1.0801073 0 0 0 0,-0.002 1.0801073,1.0801073 0 0 0 0.02539,-0.242188 l 4.09375,-41.101562 6.513672,-0.04297 0,1.070312 17.738282,0 0,-4.421874 -17.738282,0 z m -65.863281,0.07617 0,4.421875 17.738281,0 0,-4.421875 -17.738281,0 z m 102.800779,1.146485 c 0.79118,0 1.41992,0.624842 1.41992,1.416015 0,0.7237 -0.52761,1.303651 -1.22265,1.398438 a 1.0801073,1.0801073 0 0 0 -0.44141,-0.08594 1.0801073,1.0801073 0 0 0 -0.20703,0.02539 c -0.56313,-0.18696 -0.96484,-0.706301 -0.96484,-1.337891 0,-0.791173 0.62484,-1.416015 1.41601,-1.416015 z M 18.255859,27.931641 c -1.8533,0 -3.373047,1.5217 -3.373047,3.375 0,1.8533 1.519747,3.373046 3.373047,3.373047 1.495413,0 2.761061,-0.995543 3.199219,-2.351563 l 7.855469,-0.144531 0,0.964844 17.738281,0 0,-4.421876 -17.738281,0 0,1.294922 -7.892578,0.144532 c -0.472564,-1.295066 -1.710432,-2.234375 -3.16211,-2.234375 z m 0,1.800781 c 0.761697,0 1.383045,0.520267 1.53711,1.230469 a 1.0805211,1.0805211 0 0 0 0.01172,0.628906 c -0.131702,0.740107 -0.766288,1.289062 -1.548829,1.289062 -0.880508,0 -1.574218,-0.69371 -1.574218,-1.574218 0,-0.880509 0.69371,-1.574219 1.574218,-1.574219 z m 112.246091,5.984375 a 1.0801073,1.0801073 0 0 0 0.66602,0.06055 c 0.64009,0.199358 1.09766,0.783535 1.09765,1.496094 0,0.880508 -0.6937,1.574218 -1.57421,1.574218 -0.8805,0 -1.57618,-0.69371 -1.57618,-1.574218 0,-0.81544 0.59936,-1.464191 1.38672,-1.556641 z m -101.357419,0.002 0,4.419922 17.736328,0 0,-4.419922 -17.736328,0 z m 65.716797,0.05078 0,4.419922 17.736332,0 0,-4.419922 -17.736332,0 z m 0.08984,7.089844 0,4.421875 17.738282,0 0,-0.798828 31.54883,1.18164 c 0.41847,1.389126 1.7016,2.416016 3.2207,2.416016 1.8533,0 3.37305,-1.519747 3.37305,-3.373047 0,-1.853299 -1.51975,-3.375 -3.37305,-3.375 -1.42934,0 -2.65327,0.909786 -3.14257,2.173828 l -31.62696,-1.183593 0,-1.462891 -17.738282,0 z m -65.806641,0.08008 0,4.421875 17.736328,0 0,-4.421875 -17.736328,0 z M 147.45898,45.13286 c 0.8805,0 1.57422,0.693711 1.57422,1.574219 0,0.880508 -0.69372,1.574219 -1.57422,1.574219 -0.77716,0 -1.41072,-0.541059 -1.54882,-1.273438 a 1.0801073,1.0801073 0 0 0 0.0293,-0.71289 c 0.17911,-0.674191 0.78301,-1.16211 1.51953,-1.16211 z m -52.507812,4.81836 0,4.419922 17.738282,0 0,-4.419922 -17.738282,0 z m -65.613281,0.04492 0,4.421875 17.738281,0 0,-4.421875 -17.738281,0 z m 91.119143,5.933594 c -1.45752,0 -2.69782,0.948118 -3.16601,2.251953 l -4.60157,-0.06641 0,-1.255859 -17.738282,0 0,4.421875 17.738282,0 0,-1.003906 4.57422,0.06445 c 0.44228,1.349065 1.70293,2.339844 3.19336,2.339844 1.8533,0 3.375,-1.5217 3.375,-3.375 0,-1.853299 -1.5217,-3.376953 -3.375,-3.376953 z m -91.119143,0.982421 0,4.421875 17.738281,0 0,-4.421875 -17.738281,0 z m 91.119143,0.820313 c 0.88051,0 1.57422,0.693712 1.57422,1.574219 0,0.880508 -0.69371,1.574218 -1.57422,1.574218 -0.75378,0 -1.36724,-0.510118 -1.5293,-1.208984 a 1.0801073,1.0801073 0 0 0 0.0117,-0.769531 c 0.17598,-0.678173 0.77827,-1.169922 1.51758,-1.169922 z m -25.505862,6.40039 0,4.419922 6.849612,0 -5.601565,14.378907 c -0.06785,-0.004 -0.132385,-0.02148 -0.201172,-0.02148 -1.927858,0 -3.509766,1.58386 -3.509766,3.511719 0,1.927857 1.581908,3.509766 3.509766,3.509766 0.741237,0 1.429167,-0.237131 1.998047,-0.634766 l 21.00977,15.978514 c -0.11406,0.33726 -0.18945,0.69051 -0.18945,1.06445 0,1.49934 1.00178,2.7663 2.36328,3.20118 l 0.375,17.19921 -64.726569,7.08399 -43.371094,-2.0293 0,-8.28906 -0.02539,0 7.052734,-14.70898 0.490234,0 2.759766,9.78515 -1.302734,0 0,0.90039 0,5.84961 6.75,0 0,-6.75 -3.205079,0 -2.757812,-9.78515 1.527344,0 0,-7.38086 -3.179688,0 -1.982422,-12.533207 1.748047,0 0,-6.751953 -6.75,0 0,0.902344 0,5.849609 2.816407,0 1.982421,12.533207 -2.015625,0 0,0.90039 0,6.48047 0.722657,0 -7.050782,14.70898 -5.7792965,0 0,12 8.1992185,0 0,-1.55078 43.201172,2.02148 a 1.0801073,1.0801073 0 0 0 0.232422,0.0117 1.0801073,1.0801073 0 0 0 0.259766,-0.0293 l 65.562503,-7.17382 a 1.0805701,1.0805701 0 0 0 0.0605,-0.006 1.0801073,1.0801073 0 0 0 0.0469,-0.006 1.0805701,1.0805701 0 0 0 0.0156,-0.004 1.0801073,1.0801073 0 0 0 0.0898,-0.0176 1.0805701,1.0805701 0 0 0 0.004,-0.002 1.0801073,1.0801073 0 0 0 0.38281,-0.18555 1.0805701,1.0805701 0 0 0 0.002,0 1.0801073,1.0801073 0 0 0 0.0801,-0.0684 1.0805701,1.0805701 0 0 0 0.004,-0.004 1.0801073,1.0801073 0 0 0 0.33789,-0.85742 l -0.39844,-18.13672 c 1.29108,-0.47469 2.22656,-1.7094 2.22656,-3.15821 0,-1.65838 -1.22066,-3.04347 -2.80468,-3.31836 l -0.74219,-4.744135 c 1.07142,-0.568463 1.81445,-1.684263 1.81445,-2.972656 0,-0.955386 -0.40858,-1.815785 -1.05469,-2.431641 l 7.55274,-16.261719 c 0.12024,0.01316 0.23779,0.03711 0.36133,0.03711 1.85331,0 3.37304,-1.521702 3.37304,-3.375 0,-1.853301 -1.51973,-3.375001 -3.37304,-3.375 -1.8533,0 -3.37696,1.521699 -3.37696,3.375 0,0.955374 0.40859,1.817739 1.05469,2.433593 l -7.55273,16.261719 c -0.11996,-0.0131 -0.23616,-0.03711 -0.35938,-0.03711 -1.8533,0 -3.375,1.519746 -3.375,3.373047 0,1.657657 1.21972,3.042616 2.80274,3.318359 l 0.74414,4.744143 c -0.11032,0.0586 -0.22343,0.11158 -0.32618,0.18164 L 99.296875,87.574219 c 0.128551,-0.363471 0.212891,-0.746825 0.212891,-1.152344 0,-1.087907 -0.515115,-2.053476 -1.300782,-2.699219 l 5.910156,-15.169922 8.57031,0 0,-4.419922 -17.738278,0 z m -76.695313,1.59961 c 0.719685,0 1.308532,0.466979 1.501953,1.117187 a 1.0801073,1.0801073 0 0 0 0.03906,0.789063 c -0.149503,0.71651 -0.774919,1.24414 -1.541016,1.24414 -0.880508,0 -1.574218,-0.695663 -1.574218,-1.576171 0,-0.880509 0.69371,-1.57422 1.574218,-1.574219 z m 112.435555,5.966797 c 0.88051,0 1.57422,0.69371 1.57421,1.574219 0,0.880508 -0.6937,1.576171 -1.57421,1.576171 -0.1173,0 -0.23036,-0.01562 -0.33985,-0.03906 a 1.0801073,1.0801073 0 0 0 -0.62109,-0.289063 c -0.37332,-0.285907 -0.61524,-0.733065 -0.61524,-1.248046 0,-0.880509 0.69568,-1.574219 1.57618,-1.574219 z M 50.998047,82.910156 c -1.927858,0 -3.509766,1.58386 -3.509766,3.511719 0,1.927857 1.581908,3.509766 3.509766,3.509766 1.927859,0 3.511719,-1.581909 3.511719,-3.509766 0,-1.927859 -1.58386,-3.511719 -3.511719,-3.511719 z m 36.001953,0 c -1.927857,0 -3.511719,1.58386 -3.511719,3.511719 0,1.927857 1.583862,3.509766 3.511719,3.509766 1.927859,0 3.507813,-1.581909 3.507812,-3.509766 0,-1.927859 -1.579953,-3.511719 -3.507812,-3.511719 z m -69.042969,1.021485 c 0.880508,0 1.574219,0.69371 1.574219,1.574218 0,0.67419 -0.408156,1.238382 -0.994141,1.466797 a 1.0801073,1.0801073 0 0 0 -0.15039,-0.01758 1.0801073,1.0801073 0 0 0 -0.519531,0.119141 c -0.836474,-0.04648 -1.486329,-0.718691 -1.486329,-1.56836 0,-0.880508 0.695664,-1.574218 1.576172,-1.574218 z m 8.759766,0.02344 -0.517578,0.878906 a 1.0801073,1.0801073 0 0 0 -0.210938,0.835938 l 0.183594,1.201172 c -0.473228,-0.27012 -0.791016,-0.773792 -0.791016,-1.365235 -1e-6,-0.79796 0.573305,-1.436867 1.335938,-1.550781 z m 24.28125,0.757813 c 0.955067,0 1.710937,0.753917 1.710937,1.708984 0,0.955066 -0.75587,1.708984 -1.710937,1.708984 -0.955067,0 -1.708985,-0.753918 -1.708985,-1.708984 0,-0.955067 0.753918,-1.708984 1.708985,-1.708984 z m 9,0 c 0.209035,0 0.405693,0.04099 0.589844,0.107421 a 1.0801073,1.0801073 0 0 0 0.65039,0.421876 c 0.290681,0.305263 0.470703,0.71784 0.470703,1.179687 -10e-7,0.955066 -0.75587,1.708984 -1.710937,1.708984 -0.955067,0 -1.708984,-0.753918 -1.708985,-1.708984 0,-0.955067 0.753918,-1.708984 1.708985,-1.708984 z m 9,0 c 0.2533,0 0.490387,0.05659 0.705078,0.152343 a 1.080344,1.080344 0 0 0 0.527344,0.367188 c 0.295219,0.306086 0.476562,0.723046 0.476562,1.189453 0,0.955066 -0.753919,1.708984 -1.708984,1.708984 -0.955067,2e-6 -1.710938,-0.753917 -1.710938,-1.708984 0,-0.955067 0.755871,-1.708984 1.710938,-1.708984 z m 9,0 c 0.955065,0 1.710937,0.753917 1.710937,1.708984 0,0.819698 -0.558574,1.486263 -1.320312,1.660156 a 1.0801073,1.0801073 0 0 0 -0.361328,-0.04687 1.0801073,1.0801073 0 0 0 -0.328125,0.06641 c -0.808221,-0.138869 -1.410157,-0.827206 -1.410157,-1.679687 0,-0.955067 0.753918,-1.708984 1.708985,-1.708984 z m 9.001953,0 c 0.955067,0 1.708984,0.753917 1.708984,1.708984 0,0.955066 -0.753917,1.708984 -1.708984,1.708984 -0.955066,0 -1.712891,-0.753918 -1.712891,-1.708984 0,-0.955067 0.757825,-1.708984 1.712891,-1.708984 z m 8.998047,0 c 0.08789,0 0.171768,0.01305 0.255859,0.02539 a 1.0801073,1.0801073 0 0 0 0.712891,0.271485 c 0.449579,0.30561 0.742187,0.819198 0.742187,1.412109 0,0.266065 -0.06263,0.513436 -0.167968,0.736328 a 1.0801073,1.0801073 0 0 0 -0.421875,0.550781 c -0.299525,0.259151 -0.687412,0.421875 -1.121094,0.421875 -0.955067,0 -1.708985,-0.753918 -1.708985,-1.708984 0,-0.955067 0.753918,-1.708984 1.708985,-1.708984 z m 24.458983,9.017578 c 0.12604,0 0.24637,0.01797 0.36328,0.04492 a 1.0802991,1.0802991 0 0 0 0.57422,0.263671 c 0.3865,0.284818 0.63672,0.740174 0.63672,1.265626 0,0.674164 -0.40819,1.238365 -0.99414,1.466796 a 1.0801073,1.0801073 0 0 0 -0.15039,-0.01563 1.0801073,1.0801073 0 0 0 -0.52149,0.117188 c 0,0 -0.002,0 -0.002,0 -0.83448,-0.04848 -1.48242,-0.720086 -1.48242,-1.568359 0,-0.880509 0.69566,-1.574219 1.57617,-1.574219 z m -81.400389,7.685548 c -2.02727,0 -3.691407,1.66413 -3.691407,3.6914 0,2.02727 1.664137,3.68945 3.691407,3.68946 0.346628,0 0.67732,-0.0636 0.996093,-0.1543 l 6.548828,10.14844 a 1.0801073,1.0801073 0 0 0 0.355469,0.36718 l 0,3.02149 -8.863281,-0.95508 c -0.338066,-1.50454 -1.685547,-2.64258 -3.287109,-2.64258 -1.8533,0 -3.373047,1.51975 -3.373047,3.37305 0,1.8533 1.519747,3.37695 3.373047,3.37695 1.347109,0 2.509437,-0.8096 3.048828,-1.96094 l 9.101562,0.98047 0,5.35547 8.199219,0 0,-12 -6.6875,0 a 1.0801073,1.0801073 0 0 0 -0.05273,-0.084 L 41.865234,107.4668 c 0.541143,-0.64237 0.88086,-1.4598 0.88086,-2.35938 0,-2.02727 -1.662185,-3.6914 -3.689453,-3.6914 z m 47.132812,1.54882 c -1.478706,0 -2.731832,0.97526 -3.183594,2.3086 l -4.945312,0.0176 c -0.44271,-1.13407 -1.542662,-1.94922 -2.826172,-1.94922 -1.668368,0 -3.042969,1.37264 -3.042969,3.04101 0,1.66837 1.374601,3.04102 3.042969,3.04102 1.291508,0 2.396873,-0.82684 2.833984,-1.97266 l 4.945313,-0.0195 c 0.458567,1.32067 1.705708,2.2832 3.175781,2.2832 1.8533,0 3.375,-1.5217 3.375,-3.375 0,-1.8533 -1.5217,-3.375 -3.375,-3.375 z m -47.132812,0.25 c 1.054476,0 1.890625,0.8381 1.890625,1.89258 0,0.5429 -0.223324,1.0246 -0.582032,1.36719 a 1.0801073,1.0801073 0 0 0 -0.599609,0.38477 c -0.218555,0.087 -0.456968,0.13867 -0.708984,0.13867 -1.054478,0 -1.888672,-0.83615 -1.888672,-1.89063 0,-1.05448 0.834194,-1.89258 1.888672,-1.89258 z m -17.970703,0.004 c 1.040206,0.0158 1.861328,0.84426 1.861328,1.88867 0,0.75081 -0.428234,1.38332 -1.052735,1.68946 a 1.0801073,1.0801073 0 0 0 -0.04687,-0.002 1.0801073,1.0801073 0 0 0 -0.617187,0.18555 c -0.05804,0.005 -0.114282,0.0176 -0.173828,0.0176 -0.171459,0 -0.33302,-0.0308 -0.490235,-0.0723 a 1.0801073,1.0801073 0 0 0 -0.63477,-0.30082 c -0.463286,-0.34225 -0.763672,-0.88884 -0.763672,-1.51758 0,-0.84271 0.536597,-1.53825 1.289062,-1.78711 a 1.0801116,1.0801116 0 0 0 0.628907,-0.10156 z m 9.083984,0.008 c 0.999029,0.0589 1.775391,0.86539 1.77539,1.88086 0,1.05448 -0.834193,1.89063 -1.888671,1.89063 -1.054478,0 -1.890625,-0.83615 -1.890625,-1.89063 0,-0.81406 0.500741,-1.49372 1.21289,-1.76367 a 1.0801073,1.0801073 0 0 0 0.791016,-0.11719 z m 56.019531,1.53906 c 0.880508,0 1.576172,0.69372 1.576172,1.57422 0,0.88051 -0.695664,1.57618 -1.576172,1.57618 -0.742335,0 -1.346392,-0.4972 -1.519531,-1.17969 a 1.0801073,1.0801073 0 0 0 -0.0039,-0.78125 c 0.169127,-0.68852 0.77689,-1.18946 1.523437,-1.18946 z m 36.095707,0.01 c 0.83352,0.0493 1.47851,0.71684 1.47851,1.56445 0,0.75226 -0.5084,1.36378 -1.20508,1.52735 a 1.0801073,1.0801073 0 0 0 -0.35156,-0.0469 1.0801073,1.0801073 0 0 0 -0.32812,0.0625 c -0.72751,-0.14135 -1.26368,-0.7692 -1.26368,-1.54297 0,-0.22012 0.0442,-0.42828 0.12305,-0.61718 a 1.0801073,1.0801073 0 0 0 0.46875,-0.61133 c 0.12134,-0.0967 0.25458,-0.17694 0.40235,-0.23438 a 1.0801073,1.0801073 0 0 0 0.67578,-0.10156 z m -47.050785,0.36914 c 0.590415,0 1.067067,0.39204 1.199219,0.93555 a 1.0803281,1.0803281 0 0 0 0.0039,0.5918 c -0.127887,0.55034 -0.608323,0.95117 -1.203125,0.95117 -0.695576,0 -1.240233,-0.54466 -1.240234,-1.24024 10e-7,-0.69557 0.544658,-1.23828 1.240234,-1.23828 z m -7.351563,0.0273 a 1.0808244,1.0808244 0 0 0 0.59375,0.0195 c 0.529655,0.14095 0.910157,0.61103 0.910157,1.1914 0,0.69558 -0.544659,1.24024 -1.240235,1.24024 -0.695575,0 -1.240234,-0.54466 -1.240234,-1.24024 0,-0.60425 0.412634,-1.09307 0.976562,-1.21093 z m -61.4277339,13.74023 0,0.75781 2.40625,0 0,-0.75781 -0.019531,0 -2.3867188,0 z m 0.039063,0.0391 2.328125,0 0,0.67969 -2.328125,0 0,-0.67969 z m 19.3144539,1.42969 c 0.880507,0 1.574218,0.69371 1.574217,1.57422 0,0.88051 -0.69371,1.57617 -1.574217,1.57617 -0.880508,0 -1.578125,-0.69566 -1.578125,-1.57617 0,-0.59282 0.319855,-1.09437 0.794922,-1.36328 a 1.0801073,1.0801073 0 0 0 0.73242,-0.20508 c 0.01733,-5.4e-4 0.0333,-0.006 0.05078,-0.006 z m 8.998046,0 c 0.820093,0 1.470141,0.60438 1.55664,1.39844 a 1.0801073,1.0801073 0 0 0 -0.07227,0.6875 c -0.209757,0.62147 -0.784961,1.06445 -1.484375,1.06445 -0.880509,0 -1.57422,-0.69566 -1.574219,-1.57617 -10e-7,-0.88051 0.69371,-1.57422 1.574219,-1.57422 z m 24.960937,1.71484 0,0.0195 0,2.42579 -2.449219,0 0,0.78906 2.449219,0 0,2.44531 0.779297,0 0,-2.44531 2.445313,0 0,-0.78906 -2.445313,0 0,-2.44532 -0.779297,0 z m 0.03906,0.0391 0.699218,0 0,2.44726 2.447266,0 0,0.70703 -2.447266,0 0,2.44727 -0.699218,0 0,-2.44727 -2.445313,0 0,-0.70703 2.445313,0 0,-2.44726 z"
     transform="matrix(0.80000053,0,0,0.80000053,0,-1.9531263e-4)"
     id="boardoutline"
     inkscape:connector-curvature="0" />
</svg>
