  0
SECTION
  2
HEADER
  9
$ACADVER
  1
AC1014
  9
$HANDSEED
  5
FFFF
  9
$MEASUREMENT
 70
     1
  0
ENDSEC
  0
SECTION
  2
TABLES
  0
TABLE
  2
VPORT
  5
8
330
0
100
AcDbSymbolTable
 70
     4
  0
VPORT
  5
2E
330
8
100
AcDbSymbolTableRecord
100
AcDbViewportTableRecord
  2
*ACTIVE
 70
     0
 10
0.0
 20
0.0
 11
1.0
 21
1.0
 12
210.0
 22
148.5
 13
0.0
 23
0.0
 14
10.0
 24
10.0
 15
10.0
 25
10.0
 16
0.0
 26
0.0
 36
1.0
 17
0.0
 27
0.0
 37
0.0
 40
341.0
 41
1.24
 42
50.0
 43
0.0
 44
0.0
 50
0.0
 51
0.0
 71
     0
 72
   100
 73
     1
 74
     3
 75
     0
 76
     0
 77
     0
 78
     0
  0
ENDTAB
  0
TABLE
  2
LTYPE
  5
5
330
0
100
AcDbSymbolTable
 70
     1
  0
LTYPE
  5
14
330
5
100
AcDbSymbolTableRecord
100
AcDbLinetypeTableRecord
  2
BYBLOCK
 70
     0
  3

 72
    65
 73
     0
 40
0.0
  0
LTYPE
  5
15
330
5
100
AcDbSymbolTableRecord
100
AcDbLinetypeTableRecord
  2
BYLAYER
 70
     0
  3

 72
    65
 73
     0
 40
0.0
  0
LTYPE
  5
16
330
5
100
AcDbSymbolTableRecord
100
AcDbLinetypeTableRecord
  2
CONTINUOUS
 70
     0
  3
Solid line
 72
    65
 73
     0
 40
0.0
  0
ENDTAB
  0
TABLE
  2
LAYER
  5
2
100
AcDbSymbolTable
 70
1
  0
LAYER
  5
50
100
AcDbSymbolTableRecord
100
AcDbLayerTableRecord
  2
0
 70
0
  6
CONTINUOUS
  0
ENDTAB
  0
TABLE
  2
STYLE
  5
3
330
0
100
AcDbSymbolTable
 70
     1
  0
STYLE
  5
11
330
3
100
AcDbSymbolTableRecord
100
AcDbTextStyleTableRecord
  2
STANDARD
 70
     0
 40
0.0
 41
1.0
 50
0.0
 71
     0
 42
2.5
  3
txt
  4

  0
ENDTAB
  0
TABLE
  2
VIEW
  5
6
330
0
100
AcDbSymbolTable
 70
     0
  0
ENDTAB
  0
TABLE
  2
UCS
  5
7
330
0
100
AcDbSymbolTable
 70
     0
  0
ENDTAB
  0
TABLE
  2
APPID
  5
9
330
0
100
AcDbSymbolTable
 70
     2
  0
APPID
  5
12
330
9
100
AcDbSymbolTableRecord
100
AcDbRegAppTableRecord
  2
ACAD
 70
     0
  0
ENDTAB
  0
TABLE
  2
DIMSTYLE
  5
A
330
0
100
AcDbSymbolTable
 70
     1
  0
DIMSTYLE
105
27
330
A
100
AcDbSymbolTableRecord
100
AcDbDimStyleTableRecord
  2
ISO-25
 70
     0
  3

  4

  5

  6

  7

 40
1.0
 41
2.5
 42
0.625
 43
3.75
 44
1.25
 45
0.0
 46
0.0
 47
0.0
 48
0.0
140
2.5
141
2.5
142
0.0
143
0.03937007874016
144
1.0
145
0.0
146
1.0
147
0.625
 71
     0
 72
     0
 73
     0
 74
     0
 75
     0
 76
     0
 77
     1
 78
     8
170
     0
171
     3
172
     1
173
     0
174
     0
175
     0
176
     0
177
     0
178
     0
270
     2
271
     2
272
     2
273
     2
274
     3
340
11
275
     0
280
     0
281
     0
282
     0
283
     0
284
     8
285
     0
286
     0
287
     3
288
     0
  0
ENDTAB
  0
TABLE
  2
BLOCK_RECORD
  5
1
330
0
100
AcDbSymbolTable
 70
     1
  0
BLOCK_RECORD
  5
1F
330
1
100
AcDbSymbolTableRecord
100
AcDbBlockTableRecord
  2
*MODEL_SPACE
  0
BLOCK_RECORD
  5
1B
330
1
100
AcDbSymbolTableRecord
100
AcDbBlockTableRecord
  2
*PAPER_SPACE
  0
ENDTAB
  0
ENDSEC
  0
SECTION
  2
BLOCKS
  0
BLOCK
  5
20
330
1F
100
AcDbEntity
  8
0
100
AcDbBlockBegin
  2
*MODEL_SPACE
 70
     0
 10
0.0
 20
0.0
 30
0.0
  3
*MODEL_SPACE
  1

  0
ENDBLK
  5
21
330
1F
100
AcDbEntity
  8
0
100
AcDbBlockEnd
  0
BLOCK
  5
1C
330
1B
100
AcDbEntity
 67
     1
  8
0
100
AcDbBlockBegin
  2
*PAPER_SPACE
  1

  0
ENDBLK
  5
1D
330
1B
100
AcDbEntity
 67
     1
  8
0
100
AcDbBlockEnd
  0
ENDSEC
  0
SECTION
  2
ENTITIES
  0
LINE
  5
100
100
AcDbEntity
  8
0
 62
7
100
AcDbLine
 10
0.010583
 20
31.598450
 30
0.0
 11
0.010583
 21
31.527895
 31
0.0
  0
LINE
  5
101
100
AcDbEntity
  8
0
 62
7
100
AcDbLine
 10
0.010583
 20
31.527895
 30
0.0
 11
0.010583
 21
0.010708
 31
0.0
  0
LINE
  5
102
100
AcDbEntity
  8
0
 62
7
100
AcDbLine
 10
0.010583
 20
0.010708
 30
0.0
 11
34.759216
 21
0.010708
 31
0.0
  0
LINE
  5
103
100
AcDbEntity
  8
0
 62
7
100
AcDbLine
 10
34.759216
 20
0.010708
 30
0.0
 11
34.759216
 21
31.598450
 31
0.0
  0
LINE
  5
104
100
AcDbEntity
  8
0
 62
7
100
AcDbLine
 10
34.759216
 20
31.598450
 30
0.0
 11
0.010583
 21
31.598450
 31
0.0
  0
LINE
  5
105
100
AcDbEntity
  8
0
 62
7
100
AcDbLine
 10
0.010583
 20
31.598450
 30
0.0
 11
0.010583
 21
31.598450
 31
0.0
  0
LINE
  5
106
100
AcDbEntity
  8
0
 62
7
100
AcDbLine
 10
0.151695
 20
31.457339
 30
0.0
 11
34.618105
 21
31.457339
 31
0.0
  0
LINE
  5
107
100
AcDbEntity
  8
0
 62
7
100
AcDbLine
 10
34.618105
 20
31.457339
 30
0.0
 11
34.618105
 21
0.151819
 31
0.0
  0
LINE
  5
108
100
AcDbEntity
  8
0
 62
7
100
AcDbLine
 10
34.618105
 20
0.151819
 30
0.0
 11
0.151695
 21
0.151819
 31
0.0
  0
LINE
  5
109
100
AcDbEntity
  8
0
 62
7
100
AcDbLine
 10
0.151695
 20
0.151819
 30
0.0
 11
0.151695
 21
31.457339
 31
0.0
  0
LINE
  5
10a
100
AcDbEntity
  8
0
 62
7
100
AcDbLine
 10
0.151695
 20
31.457339
 30
0.0
 11
0.151695
 21
31.457339
 31
0.0
  0
SPLINE
  5
10b
100
AcDbEntity
  8
0
 62
7
100
AcDbSpline
 70
8
 71
3
 72
8
 73
4
 74
0
 40
0
 40
0
 40
0
 40
0
 40
1
 40
1
 40
1
 40
1
 10
33.204790
 20
30.658297
 30
0.0
 10
33.189264
 20
30.658451
 30
0.0
 10
33.173760
 20
30.657122
 30
0.0
 10
33.158487
 20
30.654328
 30
0.0
  0
LINE
  5
10c
100
AcDbEntity
  8
0
 62
7
100
AcDbLine
 10
33.158487
 20
30.654328
 30
0.0
 11
27.012211
 21
30.564370
 31
0.0
  0
LINE
  5
10d
100
AcDbEntity
  8
0
 62
7
100
AcDbLine
 10
27.012211
 20
30.564370
 30
0.0
 11
14.772579
 21
30.519390
 31
0.0
  0
SPLINE
  5
10e
100
AcDbEntity
  8
0
 62
7
100
AcDbSpline
 70
8
 71
3
 72
8
 73
4
 74
0
 40
0
 40
0
 40
0
 40
0
 40
1
 40
1
 40
1
 40
1
 10
14.772579
 20
30.519390
 30
0.0
 10
14.756553
 20
30.522032
 30
0.0
 10
14.740304
 20
30.523066
 30
0.0
 10
14.724072
 20
30.522477
 30
0.0
  0
SPLINE
  5
10f
100
AcDbEntity
  8
0
 62
7
100
AcDbSpline
 70
8
 71
3
 72
8
 73
4
 74
0
 40
0
 40
0
 40
0
 40
0
 40
1
 40
1
 40
1
 40
1
 10
14.724072
 20
30.522477
 30
0.0
 10
14.608645
 20
30.517767
 30
0.0
 10
14.512360
 20
30.432712
 30
0.0
 10
14.493444
 20
30.318748
 30
0.0
  0
SPLINE
  5
110
100
AcDbEntity
  8
0
 62
7
100
AcDbSpline
 70
8
 71
3
 72
8
 73
4
 74
0
 40
0
 40
0
 40
0
 40
0
 40
1
 40
1
 40
1
 40
1
 10
14.493444
 20
30.318748
 30
0.0
 10
14.493282
 20
30.317426
 30
0.0
 10
14.493132
 20
30.316103
 30
0.0
 10
14.492992
 20
30.314779
 30
0.0
  0
SPLINE
  5
111
100
AcDbEntity
  8
0
 62
7
100
AcDbSpline
 70
8
 71
3
 72
8
 73
4
 74
0
 40
0
 40
0
 40
0
 40
0
 40
1
 40
1
 40
1
 40
1
 10
14.492992
 20
30.314779
 30
0.0
 10
14.491802
 20
30.307766
 30
0.0
 10
14.490919
 20
30.300703
 30
0.0
 10
14.490346
 20
30.293613
 30
0.0
  0
SPLINE
  5
112
100
AcDbEntity
  8
0
 62
7
100
AcDbSpline
 70
8
 71
3
 72
8
 73
4
 74
0
 40
0
 40
0
 40
0
 40
0
 40
1
 40
1
 40
1
 40
1
 10
14.490346
 20
30.293613
 30
0.0
 10
14.490344
 20
30.293025
 30
0.0
 10
14.490344
 20
30.292437
 30
0.0
 10
14.490346
 20
30.291849
 30
0.0
  0
LINE
  5
113
100
AcDbEntity
  8
0
 62
7
100
AcDbLine
 10
14.490346
 20
30.291849
 30
0.0
 11
13.469053
 21
16.837778
 31
0.0
  0
LINE
  5
114
100
AcDbEntity
  8
0
 62
7
100
AcDbLine
 10
13.469053
 20
16.837778
 30
0.0
 11
10.651239
 21
16.853212
 31
0.0
  0
LINE
  5
115
100
AcDbEntity
  8
0
 62
7
100
AcDbLine
 10
10.651239
 20
16.853212
 30
0.0
 11
10.651239
 21
17.118677
 31
0.0
  0
LINE
  5
116
100
AcDbEntity
  8
0
 62
7
100
AcDbLine
 10
10.651239
 20
17.118677
 30
0.0
 11
6.646327
 21
17.118677
 31
0.0
  0
LINE
  5
117
100
AcDbEntity
  8
0
 62
7
100
AcDbLine
 10
6.646327
 20
17.118677
 30
0.0
 11
6.646327
 21
16.772073
 31
0.0
  0
LINE
  5
118
100
AcDbEntity
  8
0
 62
7
100
AcDbLine
 10
6.646327
 20
16.772073
 30
0.0
 11
4.829961
 21
16.688729
 31
0.0
  0
SPLINE
  5
119
100
AcDbEntity
  8
0
 62
7
100
AcDbSpline
 70
8
 71
3
 72
8
 73
4
 74
0
 40
0
 40
0
 40
0
 40
0
 40
1
 40
1
 40
1
 40
1
 10
4.829961
 20
16.688729
 30
0.0
 10
4.718413
 20
16.971815
 30
0.0
 10
4.442700
 20
17.174681
 30
0.0
 10
4.121759
 20
17.174681
 30
0.0
  0
SPLINE
  5
11a
100
AcDbEntity
  8
0
 62
7
100
AcDbSpline
 70
8
 71
3
 72
8
 73
4
 74
0
 40
0
 40
0
 40
0
 40
0
 40
1
 40
1
 40
1
 40
1
 10
4.121759
 20
17.174681
 30
0.0
 10
3.703325
 20
17.174681
 30
0.0
 10
3.360199
 20
16.831115
 30
0.0
 10
3.360199
 20
16.412681
 30
0.0
  0
SPLINE
  5
11b
100
AcDbEntity
  8
0
 62
7
100
AcDbSpline
 70
8
 71
3
 72
8
 73
4
 74
0
 40
0
 40
0
 40
0
 40
0
 40
1
 40
1
 40
1
 40
1
 10
3.360199
 20
16.412681
 30
0.0
 10
3.360199
 20
15.994246
 30
0.0
 10
3.703325
 20
15.650680
 30
0.0
 10
4.121759
 20
15.650680
 30
0.0
  0
SPLINE
  5
11c
100
AcDbEntity
  8
0
 62
7
100
AcDbSpline
 70
8
 71
3
 72
8
 73
4
 74
0
 40
0
 40
0
 40
0
 40
0
 40
1
 40
1
 40
1
 40
1
 10
4.121759
 20
15.650680
 30
0.0
 10
4.466734
 20
15.650680
 30
0.0
 10
4.757672
 20
15.885474
 30
0.0
 10
4.850246
 20
16.201896
 30
0.0
  0
LINE
  5
11d
100
AcDbEntity
  8
0
 62
7
100
AcDbLine
 10
4.850246
 20
16.201896
 30
0.0
 11
6.646327
 21
16.283917
 31
0.0
  0
LINE
  5
11e
100
AcDbEntity
  8
0
 62
7
100
AcDbLine
 10
6.646327
 20
16.283917
 30
0.0
 11
6.646327
 21
16.120316
 31
0.0
  0
LINE
  5
11f
100
AcDbEntity
  8
0
 62
7
100
AcDbLine
 10
6.646327
 20
16.120316
 30
0.0
 11
8.072432
 21
16.120316
 31
0.0
  0
LINE
  5
120
100
AcDbEntity
  8
0
 62
7
100
AcDbLine
 10
8.072432
 20
16.120316
 30
0.0
 11
6.260917
 21
13.043210
 31
0.0
  0
SPLINE
  5
121
100
AcDbEntity
  8
0
 62
7
100
AcDbSpline
 70
8
 71
3
 72
8
 73
4
 74
0
 40
0
 40
0
 40
0
 40
0
 40
1
 40
1
 40
1
 40
1
 10
6.260917
 20
13.043210
 30
0.0
 10
6.204622
 20
13.056625
 30
0.0
 10
6.146493
 20
13.065699
 30
0.0
 10
6.086292
 20
13.065699
 30
0.0
  0
SPLINE
  5
122
100
AcDbEntity
  8
0
 62
7
100
AcDbSpline
 70
8
 71
3
 72
8
 73
4
 74
0
 40
0
 40
0
 40
0
 40
0
 40
1
 40
1
 40
1
 40
1
 10
6.086292
 20
13.065699
 30
0.0
 10
5.667858
 20
13.065699
 30
0.0
 10
5.324291
 20
12.722133
 30
0.0
 10
5.324291
 20
12.303699
 30
0.0
  0
SPLINE
  5
123
100
AcDbEntity
  8
0
 62
7
100
AcDbSpline
 70
8
 71
3
 72
8
 73
4
 74
0
 40
0
 40
0
 40
0
 40
0
 40
1
 40
1
 40
1
 40
1
 10
5.324291
 20
12.303699
 30
0.0
 10
5.324291
 20
11.922757
 30
0.0
 10
5.610119
 20
11.606860
 30
0.0
 10
5.976930
 20
11.552723
 30
0.0
  0
LINE
  5
124
100
AcDbEntity
  8
0
 62
7
100
AcDbLine
 10
5.976930
 20
11.552723
 30
0.0
 11
6.425399
 21
8.625545
 31
0.0
  0
SPLINE
  5
125
100
AcDbEntity
  8
0
 62
7
100
AcDbSpline
 70
8
 71
3
 72
8
 73
4
 74
0
 40
0
 40
0
 40
0
 40
0
 40
1
 40
1
 40
1
 40
1
 10
6.425399
 20
8.625545
 30
0.0
 10
6.147547
 20
8.489927
 30
0.0
 10
5.953118
 20
8.206257
 30
0.0
 10
5.953118
 20
7.878098
 30
0.0
  0
SPLINE
  5
126
100
AcDbEntity
  8
0
 62
7
100
AcDbSpline
 70
8
 71
3
 72
8
 73
4
 74
0
 40
0
 40
0
 40
0
 40
0
 40
1
 40
1
 40
1
 40
1
 10
5.953118
 20
7.878098
 30
0.0
 10
5.953118
 20
7.420385
 30
0.0
 10
6.328402
 20
7.045102
 30
0.0
 10
6.786115
 20
7.045099
 30
0.0
  0
SPLINE
  5
127
100
AcDbEntity
  8
0
 62
7
100
AcDbSpline
 70
8
 71
3
 72
8
 73
4
 74
0
 40
0
 40
0
 40
0
 40
0
 40
1
 40
1
 40
1
 40
1
 10
6.786115
 20
7.045099
 30
0.0
 10
7.243827
 20
7.045099
 30
0.0
 10
7.619553
 20
7.420385
 30
0.0
 10
7.619553
 20
7.878098
 30
0.0
  0
SPLINE
  5
128
100
AcDbEntity
  8
0
 62
7
100
AcDbSpline
 70
8
 71
3
 72
8
 73
4
 74
0
 40
0
 40
0
 40
0
 40
0
 40
1
 40
1
 40
1
 40
1
 10
7.619553
 20
7.878098
 30
0.0
 10
7.619553
 20
8.294451
 30
0.0
 10
7.307634
 20
8.639602
 30
0.0
 10
6.906941
 20
8.699189
 30
0.0
  0
LINE
  5
129
100
AcDbEntity
  8
0
 62
7
100
AcDbLine
 10
6.906941
 20
8.699189
 30
0.0
 11
6.456719
 21
11.642239
 31
0.0
  0
SPLINE
  5
12a
100
AcDbEntity
  8
0
 62
7
100
AcDbSpline
 70
8
 71
3
 72
8
 73
4
 74
0
 40
0
 40
0
 40
0
 40
0
 40
1
 40
1
 40
1
 40
1
 10
6.456719
 20
11.642239
 30
0.0
 10
6.635092
 20
11.743121
 30
0.0
 10
6.768733
 20
11.912072
 30
0.0
 10
6.821404
 20
12.114521
 30
0.0
  0
SPLINE
  5
12b
100
AcDbEntity
  8
0
 62
7
100
AcDbSpline
 70
8
 71
3
 72
8
 73
4
 74
0
 40
0
 40
0
 40
0
 40
0
 40
1
 40
1
 40
1
 40
1
 10
6.821404
 20
12.114521
 30
0.0
 10
6.878050
 20
12.160780
 30
0.0
 10
6.910949
 20
12.230015
 30
0.0
 10
6.911037
 20
12.303150
 30
0.0
  0
SPLINE
  5
12c
100
AcDbEntity
  8
0
 62
7
100
AcDbSpline
 70
8
 71
3
 72
8
 73
4
 74
0
 40
0
 40
0
 40
0
 40
0
 40
1
 40
1
 40
1
 40
1
 10
6.911037
 20
12.303150
 30
0.0
 10
6.911124
 20
12.376284
 30
0.0
 10
6.878390
 20
12.445599
 30
0.0
 10
6.821855
 20
12.491993
 30
0.0
  0
SPLINE
  5
12d
100
AcDbEntity
  8
0
 62
7
100
AcDbSpline
 70
8
 71
3
 72
8
 73
4
 74
0
 40
0
 40
0
 40
0
 40
0
 40
1
 40
1
 40
1
 40
1
 10
6.821855
 20
12.491993
 30
0.0
 10
6.793889
 20
12.600022
 30
0.0
 10
6.742515
 20
12.697975
 30
0.0
 10
6.673689
 20
12.782153
 30
0.0
  0
LINE
  5
12e
100
AcDbEntity
  8
0
 62
7
100
AcDbLine
 10
6.673689
 20
12.782153
 30
0.0
 11
8.631607
 21
16.109731
 31
0.0
  0
SPLINE
  5
12f
100
AcDbEntity
  8
0
 62
7
100
AcDbSpline
 70
8
 71
3
 72
8
 73
4
 74
0
 40
0
 40
0
 40
0
 40
0
 40
1
 40
1
 40
1
 40
1
 10
8.631607
 20
16.109731
 30
0.0
 10
8.633604
 20
16.113212
 30
0.0
 10
8.635516
 20
16.116741
 30
0.0
 10
8.637339
 20
16.120316
 30
0.0
  0
LINE
  5
130
100
AcDbEntity
  8
0
 62
7
100
AcDbLine
 10
8.637339
 20
16.120316
 30
0.0
 11
10.651261
 21
16.120316
 31
0.0
  0
LINE
  5
131
100
AcDbEntity
  8
0
 62
7
100
AcDbLine
 10
10.651261
 20
16.120316
 30
0.0
 11
10.651261
 21
16.365937
 31
0.0
  0
LINE
  5
132
100
AcDbEntity
  8
0
 62
7
100
AcDbLine
 10
10.651261
 20
16.365937
 30
0.0
 11
12.969012
 21
16.353590
 31
0.0
  0
LINE
  5
133
100
AcDbEntity
  8
0
 62
7
100
AcDbLine
 10
12.969012
 20
16.353590
 30
0.0
 11
9.239708
 21
13.556942
 31
0.0
  0
SPLINE
  5
134
100
AcDbEntity
  8
0
 62
7
100
AcDbSpline
 70
8
 71
3
 72
8
 73
4
 74
0
 40
0
 40
0
 40
0
 40
0
 40
1
 40
1
 40
1
 40
1
 10
9.239708
 20
13.556942
 30
0.0
 10
9.179884
 20
13.522822
 30
0.0
 10
9.137276
 20
13.464997
 30
0.0
 10
9.122409
 20
13.397751
 30
0.0
  0
SPLINE
  5
135
100
AcDbEntity
  8
0
 62
7
100
AcDbSpline
 70
8
 71
3
 72
8
 73
4
 74
0
 40
0
 40
0
 40
0
 40
0
 40
1
 40
1
 40
1
 40
1
 10
9.122409
 20
13.397751
 30
0.0
 10
9.122409
 20
13.397600
 30
0.0
 10
9.122409
 20
13.397450
 30
0.0
 10
9.122409
 20
13.397299
 30
0.0
  0
SPLINE
  5
136
100
AcDbEntity
  8
0
 62
7
100
AcDbSpline
 70
8
 71
3
 72
8
 73
4
 74
0
 40
0
 40
0
 40
0
 40
0
 40
1
 40
1
 40
1
 40
1
 10
9.122409
 20
13.397299
 30
0.0
 10
9.122409
 20
13.397149
 30
0.0
 10
9.122409
 20
13.396998
 30
0.0
 10
9.122409
 20
13.396848
 30
0.0
  0
SPLINE
  5
137
100
AcDbEntity
  8
0
 62
7
100
AcDbSpline
 70
8
 71
3
 72
8
 73
4
 74
0
 40
0
 40
0
 40
0
 40
0
 40
1
 40
1
 40
1
 40
1
 10
9.122409
 20
13.396848
 30
0.0
 10
9.120983
 20
13.390577
 30
0.0
 10
9.119806
 20
13.384251
 30
0.0
 10
9.118880
 20
13.377887
 30
0.0
  0
SPLINE
  5
138
100
AcDbEntity
  8
0
 62
7
100
AcDbSpline
 70
8
 71
3
 72
8
 73
4
 74
0
 40
0
 40
0
 40
0
 40
0
 40
1
 40
1
 40
1
 40
1
 10
9.118880
 20
13.377887
 30
0.0
 10
9.118377
 20
13.374809
 30
0.0
 10
9.117933
 20
13.371721
 30
0.0
 10
9.117548
 20
13.368626
 30
0.0
  0
SPLINE
  5
139
100
AcDbEntity
  8
0
 62
7
100
AcDbSpline
 70
8
 71
3
 72
8
 73
4
 74
0
 40
0
 40
0
 40
0
 40
0
 40
1
 40
1
 40
1
 40
1
 10
9.117548
 20
13.368626
 30
0.0
 10
9.117333
 20
13.365395
 30
0.0
 10
9.117183
 20
13.362160
 30
0.0
 10
9.117096
 20
13.358924
 30
0.0
  0
SPLINE
  5
13a
100
AcDbEntity
  8
0
 62
7
100
AcDbSpline
 70
8
 71
3
 72
8
 73
4
 74
0
 40
0
 40
0
 40
0
 40
0
 40
1
 40
1
 40
1
 40
1
 10
9.117096
 20
13.358924
 30
0.0
 10
9.116497
 20
13.351884
 30
0.0
 10
9.116203
 20
13.344822
 30
0.0
 10
9.116216
 20
13.337757
 30
0.0
  0
LINE
  5
13b
100
AcDbEntity
  8
0
 62
7
100
AcDbLine
 10
9.116216
 20
13.337757
 30
0.0
 11
9.040369
 21
10.039283
 31
0.0
  0
SPLINE
  5
13c
100
AcDbEntity
  8
0
 62
7
100
AcDbSpline
 70
8
 71
3
 72
8
 73
4
 74
0
 40
0
 40
0
 40
0
 40
0
 40
1
 40
1
 40
1
 40
1
 10
9.040369
 20
10.039283
 30
0.0
 10
9.035816
 20
9.961819
 30
0.0
 10
9.068400
 20
9.886813
 30
0.0
 10
9.128126
 20
9.837273
 30
0.0
  0
SPLINE
  5
13d
100
AcDbEntity
  8
0
 62
7
100
AcDbSpline
 70
8
 71
3
 72
8
 73
4
 74
0
 40
0
 40
0
 40
0
 40
0
 40
1
 40
1
 40
1
 40
1
 10
9.128126
 20
9.837273
 30
0.0
 10
9.187852
 20
9.787734
 30
0.0
 10
9.267589
 20
9.769576
 30
0.0
 10
9.342876
 20
9.788369
 30
0.0
  0
LINE
  5
13e
100
AcDbEntity
  8
0
 62
7
100
AcDbLine
 10
9.342876
 20
9.788369
 30
0.0
 11
15.204723
 21
9.671512
 31
0.0
  0
LINE
  5
13f
100
AcDbEntity
  8
0
 62
7
100
AcDbLine
 10
15.204723
 20
9.671512
 30
0.0
 11
15.161067
 21
8.235265
 31
0.0
  0
SPLINE
  5
140
100
AcDbEntity
  8
0
 62
7
100
AcDbSpline
 70
8
 71
3
 72
8
 73
4
 74
0
 40
0
 40
0
 40
0
 40
0
 40
1
 40
1
 40
1
 40
1
 10
15.161067
 20
8.235265
 30
0.0
 10
14.894233
 20
8.140976
 30
0.0
 10
14.699810
 20
7.887678
 30
0.0
 10
14.699810
 20
7.590123
 30
0.0
  0
SPLINE
  5
141
100
AcDbEntity
  8
0
 62
7
100
AcDbSpline
 70
8
 71
3
 72
8
 73
4
 74
0
 40
0
 40
0
 40
0
 40
0
 40
1
 40
1
 40
1
 40
1
 10
14.699810
 20
7.590123
 30
0.0
 10
14.699810
 20
7.213442
 30
0.0
 10
15.009283
 20
6.903528
 30
0.0
 10
15.385963
 20
6.903528
 30
0.0
  0
SPLINE
  5
142
100
AcDbEntity
  8
0
 62
7
100
AcDbSpline
 70
8
 71
3
 72
8
 73
4
 74
0
 40
0
 40
0
 40
0
 40
0
 40
1
 40
1
 40
1
 40
1
 10
15.385963
 20
6.903528
 30
0.0
 10
15.762644
 20
6.903528
 30
0.0
 10
16.072116
 20
7.213442
 30
0.0
 10
16.072116
 20
7.590123
 30
0.0
  0
SPLINE
  5
143
100
AcDbEntity
  8
0
 62
7
100
AcDbSpline
 70
8
 71
3
 72
8
 73
4
 74
0
 40
0
 40
0
 40
0
 40
0
 40
1
 40
1
 40
1
 40
1
 10
16.072116
 20
7.590123
 30
0.0
 10
16.072116
 20
7.873754
 30
0.0
 10
15.896752
 20
8.119333
 30
0.0
 10
15.649224
 20
8.223360
 30
0.0
  0
LINE
  5
144
100
AcDbEntity
  8
0
 62
7
100
AcDbLine
 10
15.649224
 20
8.223360
 30
0.0
 11
15.692439
 21
9.671512
 31
0.0
  0
LINE
  5
145
100
AcDbEntity
  8
0
 62
7
100
AcDbLine
 10
15.692439
 20
9.671512
 30
0.0
 11
17.614197
 21
9.709876
 31
0.0
  0
SPLINE
  5
146
100
AcDbEntity
  8
0
 62
7
100
AcDbSpline
 70
8
 71
3
 72
8
 73
4
 74
0
 40
0
 40
0
 40
0
 40
0
 40
1
 40
1
 40
1
 40
1
 10
17.614197
 20
9.709876
 30
0.0
 10
17.685787
 20
9.693533
 30
0.0
 10
17.760930
 20
9.710320
 30
0.0
 10
17.818759
 20
9.755574
 30
0.0
  0
SPLINE
  5
147
100
AcDbEntity
  8
0
 62
7
100
AcDbSpline
 70
8
 71
3
 72
8
 73
4
 74
0
 40
0
 40
0
 40
0
 40
0
 40
1
 40
1
 40
1
 40
1
 10
17.818759
 20
9.755574
 30
0.0
 10
17.876589
 20
9.800828
 30
0.0
 10
17.910948
 20
9.869731
 30
0.0
 10
17.912295
 20
9.943151
 30
0.0
  0
SPLINE
  5
148
100
AcDbEntity
  8
0
 62
7
100
AcDbSpline
 70
8
 71
3
 72
8
 73
4
 74
0
 40
0
 40
0
 40
0
 40
0
 40
1
 40
1
 40
1
 40
1
 10
17.912295
 20
9.943151
 30
0.0
 10
17.912487
 20
9.948735
 30
0.0
 10
17.912487
 20
9.954324
 30
0.0
 10
17.912295
 20
9.959908
 30
0.0
  0
SPLINE
  5
149
100
AcDbEntity
  8
0
 62
7
100
AcDbSpline
 70
8
 71
3
 72
8
 73
4
 74
0
 40
0
 40
0
 40
0
 40
0
 40
1
 40
1
 40
1
 40
1
 10
17.912295
 20
9.959908
 30
0.0
 10
17.912298
 20
9.960645
 30
0.0
 10
17.912298
 20
9.961383
 30
0.0
 10
17.912295
 20
9.962120
 30
0.0
  0
SPLINE
  5
14a
100
AcDbEntity
  8
0
 62
7
100
AcDbSpline
 70
8
 71
3
 72
8
 73
4
 74
0
 40
0
 40
0
 40
0
 40
0
 40
1
 40
1
 40
1
 40
1
 10
17.912295
 20
9.962120
 30
0.0
 10
17.912295
 20
9.962120
 30
0.0
 10
17.912295
 20
9.967413
 30
0.0
 10
17.912295
 20
9.967413
 30
0.0
  0
SPLINE
  5
14b
100
AcDbEntity
  8
0
 62
7
100
AcDbSpline
 70
8
 71
3
 72
8
 73
4
 74
0
 40
0
 40
0
 40
0
 40
0
 40
1
 40
1
 40
1
 40
1
 10
17.912295
 20
9.967413
 30
0.0
 10
17.912298
 20
9.968150
 30
0.0
 10
17.912298
 20
9.968888
 30
0.0
 10
17.912295
 20
9.969625
 30
0.0
  0
LINE
  5
14c
100
AcDbEntity
  8
0
 62
7
100
AcDbLine
 10
17.912295
 20
9.969625
 30
0.0
 11
17.874371
 21
11.353838
 31
0.0
  0
SPLINE
  5
14d
100
AcDbEntity
  8
0
 62
7
100
AcDbSpline
 70
8
 71
3
 72
8
 73
4
 74
0
 40
0
 40
0
 40
0
 40
0
 40
1
 40
1
 40
1
 40
1
 10
17.874371
 20
11.353838
 30
0.0
 10
18.180466
 20
11.463874
 30
0.0
 10
18.402656
 20
11.754586
 30
0.0
 10
18.402656
 20
12.096877
 30
0.0
  0
SPLINE
  5
14e
100
AcDbEntity
  8
0
 62
7
100
AcDbSpline
 70
8
 71
3
 72
8
 73
4
 74
0
 40
0
 40
0
 40
0
 40
0
 40
1
 40
1
 40
1
 40
1
 10
18.402656
 20
12.096877
 30
0.0
 10
18.402656
 20
12.532145
 30
0.0
 10
18.045496
 20
12.889745
 30
0.0
 10
17.610229
 20
12.889745
 30
0.0
  0
SPLINE
  5
14f
100
AcDbEntity
  8
0
 62
7
100
AcDbSpline
 70
8
 71
3
 72
8
 73
4
 74
0
 40
0
 40
0
 40
0
 40
0
 40
1
 40
1
 40
1
 40
1
 10
17.610229
 20
12.889745
 30
0.0
 10
17.174961
 20
12.889745
 30
0.0
 10
16.818242
 20
12.532145
 30
0.0
 10
16.818242
 20
12.096877
 30
0.0
  0
SPLINE
  5
150
100
AcDbEntity
  8
0
 62
7
100
AcDbSpline
 70
8
 71
3
 72
8
 73
4
 74
0
 40
0
 40
0
 40
0
 40
0
 40
1
 40
1
 40
1
 40
1
 10
16.818242
 20
12.096877
 30
0.0
 10
16.818242
 20
11.739483
 30
0.0
 10
17.060065
 20
11.438262
 30
0.0
 10
17.387097
 20
11.340609
 30
0.0
  0
LINE
  5
151
100
AcDbEntity
  8
0
 62
7
100
AcDbLine
 10
17.387097
 20
11.340609
 30
0.0
 11
17.418406
 21
10.194521
 31
0.0
  0
LINE
  5
152
100
AcDbEntity
  8
0
 62
7
100
AcDbLine
 10
17.418406
 20
10.194521
 30
0.0
 11
15.490915
 21
10.154393
 31
0.0
  0
SPLINE
  5
153
100
AcDbEntity
  8
0
 62
7
100
AcDbSpline
 70
8
 71
3
 72
8
 73
4
 74
0
 40
0
 40
0
 40
0
 40
0
 40
1
 40
1
 40
1
 40
1
 10
15.490915
 20
10.154393
 30
0.0
 10
15.480701
 20
10.156076
 30
0.0
 10
15.470391
 20
10.157106
 30
0.0
 10
15.460046
 20
10.157479
 30
0.0
  0
SPLINE
  5
154
100
AcDbEntity
  8
0
 62
7
100
AcDbSpline
 70
8
 71
3
 72
8
 73
4
 74
0
 40
0
 40
0
 40
0
 40
0
 40
1
 40
1
 40
1
 40
1
 10
15.460046
 20
10.157479
 30
0.0
 10
15.447197
 20
10.157463
 30
0.0
 10
15.434369
 20
10.156431
 30
0.0
 10
15.421682
 20
10.154393
 30
0.0
  0
LINE
  5
155
100
AcDbEntity
  8
0
 62
7
100
AcDbLine
 10
15.421682
 20
10.154393
 30
0.0
 11
9.533385
 21
10.272578
 31
0.0
  0
LINE
  5
156
100
AcDbEntity
  8
0
 62
7
100
AcDbLine
 10
9.533385
 20
10.272578
 30
0.0
 11
9.601295
 21
13.218716
 31
0.0
  0
LINE
  5
157
100
AcDbEntity
  8
0
 62
7
100
AcDbLine
 10
9.601295
 20
13.218716
 30
0.0
 11
13.799353
 21
16.366378
 31
0.0
  0
SPLINE
  5
158
100
AcDbEntity
  8
0
 62
7
100
AcDbSpline
 70
8
 71
3
 72
8
 73
4
 74
0
 40
0
 40
0
 40
0
 40
0
 40
1
 40
1
 40
1
 40
1
 10
13.799353
 20
16.366378
 30
0.0
 10
13.809114
 20
16.371181
 30
0.0
 10
13.818542
 20
16.376632
 30
0.0
 10
13.827575
 20
16.382695
 30
0.0
  0
SPLINE
  5
159
100
AcDbEntity
  8
0
 62
7
100
AcDbSpline
 70
8
 71
3
 72
8
 73
4
 74
0
 40
0
 40
0
 40
0
 40
0
 40
1
 40
1
 40
1
 40
1
 10
13.827575
 20
16.382695
 30
0.0
 10
13.919219
 20
16.436004
 30
0.0
 10
13.965920
 20
16.542417
 30
0.0
 10
13.943110
 20
16.645955
 30
0.0
  0
LINE
  5
15a
100
AcDbEntity
  8
0
 62
7
100
AcDbLine
 10
13.943110
 20
16.645955
 30
0.0
 11
14.959111
 21
30.032117
 31
0.0
  0
LINE
  5
15b
100
AcDbEntity
  8
0
 62
7
100
AcDbLine
 10
14.959111
 20
30.032117
 30
0.0
 11
27.009125
 21
30.076655
 31
0.0
  0
SPLINE
  5
15c
100
AcDbEntity
  8
0
 62
7
100
AcDbSpline
 70
8
 71
3
 72
8
 73
4
 74
0
 40
0
 40
0
 40
0
 40
0
 40
1
 40
1
 40
1
 40
1
 10
27.009125
 20
30.076655
 30
0.0
 10
27.011623
 20
30.076617
 30
0.0
 10
27.014122
 20
30.076617
 30
0.0
 10
27.016621
 20
30.076655
 30
0.0
  0
SPLINE
  5
15d
100
AcDbEntity
  8
0
 62
7
100
AcDbSpline
 70
8
 71
3
 72
8
 73
4
 74
0
 40
0
 40
0
 40
0
 40
0
 40
1
 40
1
 40
1
 40
1
 10
27.016621
 20
30.076655
 30
0.0
 10
27.017501
 20
30.076650
 30
0.0
 10
27.018382
 20
30.076650
 30
0.0
 10
27.019262
 20
30.076655
 30
0.0
  0
LINE
  5
15e
100
AcDbEntity
  8
0
 62
7
100
AcDbLine
 10
27.019262
 20
30.076655
 30
0.0
 11
32.976359
 21
30.163527
 31
0.0
  0
LINE
  5
15f
100
AcDbEntity
  8
0
 62
7
100
AcDbLine
 10
32.976359
 20
30.163527
 30
0.0
 11
32.996205
 21
29.893210
 31
0.0
  0
SPLINE
  5
160
100
AcDbEntity
  8
0
 62
7
100
AcDbSpline
 70
8
 71
3
 72
8
 73
4
 74
0
 40
0
 40
0
 40
0
 40
0
 40
1
 40
1
 40
1
 40
1
 10
32.996205
 20
29.893210
 30
0.0
 10
32.723440
 20
29.776814
 30
0.0
 10
32.530538
 20
29.505540
 30
0.0
 10
32.530538
 20
29.192064
 30
0.0
  0
SPLINE
  5
161
100
AcDbEntity
  8
0
 62
7
100
AcDbSpline
 70
8
 71
3
 72
8
 73
4
 74
0
 40
0
 40
0
 40
0
 40
0
 40
1
 40
1
 40
1
 40
1
 10
32.530538
 20
29.192064
 30
0.0
 10
32.530538
 20
28.773630
 30
0.0
 10
32.874546
 20
28.429623
 30
0.0
 10
33.292978
 20
28.429623
 30
0.0
  0
SPLINE
  5
162
100
AcDbEntity
  8
0
 62
7
100
AcDbSpline
 70
8
 71
3
 72
8
 73
4
 74
0
 40
0
 40
0
 40
0
 40
0
 40
1
 40
1
 40
1
 40
1
 10
33.292978
 20
28.429623
 30
0.0
 10
33.711413
 20
28.429623
 30
0.0
 10
34.054539
 20
28.773630
 30
0.0
 10
34.054539
 20
29.192064
 30
0.0
  0
SPLINE
  5
163
100
AcDbEntity
  8
0
 62
7
100
AcDbSpline
 70
8
 71
3
 72
8
 73
4
 74
0
 40
0
 40
0
 40
0
 40
0
 40
1
 40
1
 40
1
 40
1
 10
34.054539
 20
29.192064
 30
0.0
 10
34.054539
 20
29.544789
 30
0.0
 10
33.809425
 20
29.841400
 30
0.0
 10
33.482158
 20
29.926724
 30
0.0
  0
LINE
  5
164
100
AcDbEntity
  8
0
 62
7
100
AcDbLine
 10
33.482158
 20
29.926724
 30
0.0
 11
33.445997
 21
30.421495
 31
0.0
  0
SPLINE
  5
165
100
AcDbEntity
  8
0
 62
7
100
AcDbSpline
 70
8
 71
3
 72
8
 73
4
 74
0
 40
0
 40
0
 40
0
 40
0
 40
1
 40
1
 40
1
 40
1
 10
33.445997
 20
30.421495
 30
0.0
 10
33.445885
 20
30.423996
 30
0.0
 10
33.445735
 20
30.426496
 30
0.0
 10
33.445546
 20
30.428992
 30
0.0
  0
SPLINE
  5
166
100
AcDbEntity
  8
0
 62
7
100
AcDbSpline
 70
8
 71
3
 72
8
 73
4
 74
0
 40
0
 40
0
 40
0
 40
0
 40
1
 40
1
 40
1
 40
1
 10
33.445546
 20
30.428992
 30
0.0
 10
33.445137
 20
30.434597
 30
0.0
 10
33.444534
 20
30.440186
 30
0.0
 10
33.443739
 20
30.445749
 30
0.0
  0
SPLINE
  5
167
100
AcDbEntity
  8
0
 62
7
100
AcDbSpline
 70
8
 71
3
 72
8
 73
4
 74
0
 40
0
 40
0
 40
0
 40
0
 40
1
 40
1
 40
1
 40
1
 10
33.443739
 20
30.445749
 30
0.0
 10
33.443740
 20
30.446043
 30
0.0
 10
33.443740
 20
30.446337
 30
0.0
 10
33.443739
 20
30.446632
 30
0.0
  0
SPLINE
  5
168
100
AcDbEntity
  8
0
 62
7
100
AcDbSpline
 70
8
 71
3
 72
8
 73
4
 74
0
 40
0
 40
0
 40
0
 40
0
 40
1
 40
1
 40
1
 40
1
 10
33.443739
 20
30.446632
 30
0.0
 10
33.427744
 20
30.566780
 30
0.0
 10
33.325933
 20
30.656944
 30
0.0
 10
33.204733
 20
30.658299
 30
0.0
  0
LINE
  5
169
100
AcDbEntity
  8
0
 62
7
100
AcDbLine
 10
33.204733
 20
30.658299
 30
0.0
 11
33.204790
 21
30.658297
 31
0.0
  0
SPLINE
  5
16a
100
AcDbEntity
  8
0
 62
7
100
AcDbSpline
 70
8
 71
3
 72
8
 73
4
 74
0
 40
0
 40
0
 40
0
 40
0
 40
1
 40
1
 40
1
 40
1
 10
33.349870
 20
29.541754
 30
0.0
 10
33.520653
 20
29.514956
 30
0.0
 10
33.648407
 20
29.371310
 30
0.0
 10
33.648407
 20
29.192063
 30
0.0
  0
SPLINE
  5
16b
100
AcDbEntity
  8
0
 62
7
100
AcDbSpline
 70
8
 71
3
 72
8
 73
4
 74
0
 40
0
 40
0
 40
0
 40
0
 40
1
 40
1
 40
1
 40
1
 10
33.648407
 20
29.192063
 30
0.0
 10
33.648407
 20
28.993264
 30
0.0
 10
33.491780
 20
28.836198
 30
0.0
 10
33.292983
 20
28.836198
 30
0.0
  0
SPLINE
  5
16c
100
AcDbEntity
  8
0
 62
7
100
AcDbSpline
 70
8
 71
3
 72
8
 73
4
 74
0
 40
0
 40
0
 40
0
 40
0
 40
1
 40
1
 40
1
 40
1
 10
33.292983
 20
28.836198
 30
0.0
 10
33.094183
 20
28.836198
 30
0.0
 10
32.936678
 20
28.993264
 30
0.0
 10
32.936678
 20
29.192063
 30
0.0
  0
SPLINE
  5
16d
100
AcDbEntity
  8
0
 62
7
100
AcDbSpline
 70
8
 71
3
 72
8
 73
4
 74
0
 40
0
 40
0
 40
0
 40
0
 40
1
 40
1
 40
1
 40
1
 10
32.936678
 20
29.192063
 30
0.0
 10
32.936678
 20
29.352555
 30
0.0
 10
33.039958
 20
29.484080
 30
0.0
 10
33.184063
 20
29.529407
 30
0.0
  0
SPLINE
  5
16e
100
AcDbEntity
  8
0
 62
7
100
AcDbSpline
 70
8
 71
3
 72
8
 73
4
 74
0
 40
0
 40
0
 40
0
 40
0
 40
1
 40
1
 40
1
 40
1
 10
33.184063
 20
29.529407
 30
0.0
 10
33.239072
 20
29.513973
 30
0.0
 10
33.297754
 20
29.518343
 30
0.0
 10
33.349870
 20
29.541754
 30
0.0
  0
LINE
  5
16f
100
AcDbEntity
  8
0
 62
7
100
AcDbLine
 10
33.349870
 20
29.541754
 30
0.0
 11
33.349870
 21
29.541754
 31
0.0
  0
LINE
  5
170
100
AcDbEntity
  8
0
 62
7
100
AcDbLine
 10
29.137700
 20
28.779754
 30
0.0
 11
29.137700
 21
28.387729
 31
0.0
  0
LINE
  5
171
100
AcDbEntity
  8
0
 62
7
100
AcDbLine
 10
29.137700
 20
28.387729
 30
0.0
 11
27.645891
 21
28.396548
 31
0.0
  0
LINE
  5
172
100
AcDbEntity
  8
0
 62
7
100
AcDbLine
 10
27.645891
 20
28.396548
 30
0.0
 11
27.644085
 21
28.396548
 31
0.0
  0
SPLINE
  5
173
100
AcDbEntity
  8
0
 62
7
100
AcDbSpline
 70
8
 71
3
 72
8
 73
4
 74
0
 40
0
 40
0
 40
0
 40
0
 40
1
 40
1
 40
1
 40
1
 10
27.644085
 20
28.396548
 30
0.0
 10
27.628523
 20
28.399399
 30
0.0
 10
27.612721
 20
28.400728
 30
0.0
 10
27.596902
 20
28.400517
 30
0.0
  0
SPLINE
  5
174
100
AcDbEntity
  8
0
 62
7
100
AcDbSpline
 70
8
 71
3
 72
8
 73
4
 74
0
 40
0
 40
0
 40
0
 40
0
 40
1
 40
1
 40
1
 40
1
 10
27.596902
 20
28.400517
 30
0.0
 10
27.489009
 20
28.397539
 30
0.0
 10
27.395909
 20
28.323992
 30
0.0
 10
27.368037
 20
28.219719
 30
0.0
  0
SPLINE
  5
175
100
AcDbEntity
  8
0
 62
7
100
AcDbSpline
 70
8
 71
3
 72
8
 73
4
 74
0
 40
0
 40
0
 40
0
 40
0
 40
1
 40
1
 40
1
 40
1
 10
27.368037
 20
28.219719
 30
0.0
 10
27.365880
 20
28.211874
 30
0.0
 10
27.364117
 20
28.203927
 30
0.0
 10
27.362754
 20
28.195906
 30
0.0
  0
SPLINE
  5
176
100
AcDbEntity
  8
0
 62
7
100
AcDbSpline
 70
8
 71
3
 72
8
 73
4
 74
0
 40
0
 40
0
 40
0
 40
0
 40
1
 40
1
 40
1
 40
1
 10
27.362754
 20
28.195906
 30
0.0
 10
27.361590
 20
28.189185
 30
0.0
 10
27.360709
 20
28.182418
 30
0.0
 10
27.360112
 20
28.175622
 30
0.0
  0
LINE
  5
177
100
AcDbEntity
  8
0
 62
7
100
AcDbLine
 10
27.360112
 20
28.175622
 30
0.0
 11
27.360112
 21
28.173861
 31
0.0
  0
SPLINE
  5
178
100
AcDbEntity
  8
0
 62
7
100
AcDbSpline
 70
8
 71
3
 72
8
 73
4
 74
0
 40
0
 40
0
 40
0
 40
0
 40
1
 40
1
 40
1
 40
1
 10
27.360112
 20
28.173861
 30
0.0
 10
27.359955
 20
28.172833
 30
0.0
 10
27.359805
 20
28.171805
 30
0.0
 10
27.359661
 20
28.170775
 30
0.0
  0
LINE
  5
179
100
AcDbEntity
  8
0
 62
7
100
AcDbLine
 10
27.359661
 20
28.170775
 30
0.0
 11
27.063327
 21
24.917721
 31
0.0
  0
LINE
  5
17a
100
AcDbEntity
  8
0
 62
7
100
AcDbLine
 10
27.063327
 20
24.917721
 30
0.0
 11
25.422028
 21
24.900523
 31
0.0
  0
LINE
  5
17b
100
AcDbEntity
  8
0
 62
7
100
AcDbLine
 10
25.422028
 20
24.900523
 30
0.0
 11
25.422028
 21
25.134239
 31
0.0
  0
LINE
  5
17c
100
AcDbEntity
  8
0
 62
7
100
AcDbLine
 10
25.422028
 20
25.134239
 30
0.0
 11
21.417556
 21
25.134239
 31
0.0
  0
LINE
  5
17d
100
AcDbEntity
  8
0
 62
7
100
AcDbLine
 10
21.417556
 20
25.134239
 30
0.0
 11
21.417556
 21
24.135877
 31
0.0
  0
LINE
  5
17e
100
AcDbEntity
  8
0
 62
7
100
AcDbLine
 10
21.417556
 20
24.135877
 30
0.0
 11
25.422028
 21
24.135877
 31
0.0
  0
LINE
  5
17f
100
AcDbEntity
  8
0
 62
7
100
AcDbLine
 10
25.422028
 20
24.135877
 30
0.0
 11
25.422028
 21
24.412367
 31
0.0
  0
LINE
  5
180
100
AcDbEntity
  8
0
 62
7
100
AcDbLine
 10
25.422028
 20
24.412367
 30
0.0
 11
27.289546
 21
24.432210
 31
0.0
  0
SPLINE
  5
181
100
AcDbEntity
  8
0
 62
7
100
AcDbSpline
 70
8
 71
3
 72
8
 73
4
 74
0
 40
0
 40
0
 40
0
 40
0
 40
1
 40
1
 40
1
 40
1
 10
27.289546
 20
24.432210
 30
0.0
 10
27.294995
 20
24.432321
 30
0.0
 10
27.300439
 20
24.432615
 30
0.0
 10
27.305869
 20
24.433091
 30
0.0
  0
SPLINE
  5
182
100
AcDbEntity
  8
0
 62
7
100
AcDbSpline
 70
8
 71
3
 72
8
 73
4
 74
0
 40
0
 40
0
 40
0
 40
0
 40
1
 40
1
 40
1
 40
1
 10
27.305869
 20
24.433091
 30
0.0
 10
27.310728
 20
24.433390
 30
0.0
 10
27.315577
 20
24.433834
 30
0.0
 10
27.320409
 20
24.434423
 30
0.0
  0
SPLINE
  5
183
100
AcDbEntity
  8
0
 62
7
100
AcDbSpline
 70
8
 71
3
 72
8
 73
4
 74
0
 40
0
 40
0
 40
0
 40
0
 40
1
 40
1
 40
1
 40
1
 10
27.320409
 20
24.434423
 30
0.0
 10
27.322324
 20
24.434694
 30
0.0
 10
27.324236
 20
24.434987
 30
0.0
 10
27.326144
 20
24.435303
 30
0.0
  0
SPLINE
  5
184
100
AcDbEntity
  8
0
 62
7
100
AcDbSpline
 70
8
 71
3
 72
8
 73
4
 74
0
 40
0
 40
0
 40
0
 40
0
 40
1
 40
1
 40
1
 40
1
 10
27.326144
 20
24.435303
 30
0.0
 10
27.340408
 20
24.437729
 30
0.0
 10
27.354427
 20
24.441418
 30
0.0
 10
27.368037
 20
24.446328
 30
0.0
  0
SPLINE
  5
185
100
AcDbEntity
  8
0
 62
7
100
AcDbSpline
 70
8
 71
3
 72
8
 73
4
 74
0
 40
0
 40
0
 40
0
 40
0
 40
1
 40
1
 40
1
 40
1
 10
27.368037
 20
24.446328
 30
0.0
 10
27.373550
 20
24.448190
 30
0.0
 10
27.378995
 20
24.450249
 30
0.0
 10
27.384361
 20
24.452501
 30
0.0
  0
SPLINE
  5
186
100
AcDbEntity
  8
0
 62
7
100
AcDbSpline
 70
8
 71
3
 72
8
 73
4
 74
0
 40
0
 40
0
 40
0
 40
0
 40
1
 40
1
 40
1
 40
1
 10
27.384361
 20
24.452501
 30
0.0
 10
27.384964
 20
24.452792
 30
0.0
 10
27.385566
 20
24.453085
 30
0.0
 10
27.386167
 20
24.453381
 30
0.0
  0
SPLINE
  5
187
100
AcDbEntity
  8
0
 62
7
100
AcDbSpline
 70
8
 71
3
 72
8
 73
4
 74
0
 40
0
 40
0
 40
0
 40
0
 40
1
 40
1
 40
1
 40
1
 10
27.386167
 20
24.453381
 30
0.0
 10
27.400390
 20
24.459714
 30
0.0
 10
27.413975
 20
24.467392
 30
0.0
 10
27.426735
 20
24.476312
 30
0.0
  0
SPLINE
  5
188
100
AcDbEntity
  8
0
 62
7
100
AcDbSpline
 70
8
 71
3
 72
8
 73
4
 74
0
 40
0
 40
0
 40
0
 40
0
 40
1
 40
1
 40
1
 40
1
 10
27.426735
 20
24.476312
 30
0.0
 10
27.427037
 20
24.476605
 30
0.0
 10
27.427338
 20
24.476898
 30
0.0
 10
27.427638
 20
24.477192
 30
0.0
  0
SPLINE
  5
189
100
AcDbEntity
  8
0
 62
7
100
AcDbSpline
 70
8
 71
3
 72
8
 73
4
 74
0
 40
0
 40
0
 40
0
 40
0
 40
1
 40
1
 40
1
 40
1
 10
27.427638
 20
24.477192
 30
0.0
 10
27.434030
 20
24.481599
 30
0.0
 10
27.440209
 20
24.486308
 30
0.0
 10
27.446152
 20
24.491304
 30
0.0
  0
SPLINE
  5
18a
100
AcDbEntity
  8
0
 62
7
100
AcDbSpline
 70
8
 71
3
 72
8
 73
4
 74
0
 40
0
 40
0
 40
0
 40
0
 40
1
 40
1
 40
1
 40
1
 10
27.446152
 20
24.491304
 30
0.0
 10
27.447790
 20
24.492752
 30
0.0
 10
27.449408
 20
24.494221
 30
0.0
 10
27.451006
 20
24.495713
 30
0.0
  0
SPLINE
  5
18b
100
AcDbEntity
  8
0
 62
7
100
AcDbSpline
 70
8
 71
3
 72
8
 73
4
 74
0
 40
0
 40
0
 40
0
 40
0
 40
1
 40
1
 40
1
 40
1
 10
27.451006
 20
24.495713
 30
0.0
 10
27.451893
 20
24.496588
 30
0.0
 10
27.452774
 20
24.497470
 30
0.0
 10
27.453648
 20
24.498359
 30
0.0
  0
SPLINE
  5
18c
100
AcDbEntity
  8
0
 62
7
100
AcDbSpline
 70
8
 71
3
 72
8
 73
4
 74
0
 40
0
 40
0
 40
0
 40
0
 40
1
 40
1
 40
1
 40
1
 10
27.453648
 20
24.498359
 30
0.0
 10
27.470719
 20
24.514258
 30
0.0
 10
27.485420
 20
24.532524
 30
0.0
 10
27.497304
 20
24.552599
 30
0.0
  0
SPLINE
  5
18d
100
AcDbEntity
  8
0
 62
7
100
AcDbSpline
 70
8
 71
3
 72
8
 73
4
 74
0
 40
0
 40
0
 40
0
 40
0
 40
1
 40
1
 40
1
 40
1
 10
27.497304
 20
24.552599
 30
0.0
 10
27.497914
 20
24.553623
 30
0.0
 10
27.498516
 20
24.554652
 30
0.0
 10
27.499110
 20
24.555685
 30
0.0
  0
SPLINE
  5
18e
100
AcDbEntity
  8
0
 62
7
100
AcDbSpline
 70
8
 71
3
 72
8
 73
4
 74
0
 40
0
 40
0
 40
0
 40
0
 40
1
 40
1
 40
1
 40
1
 10
27.499110
 20
24.555685
 30
0.0
 10
27.506532
 20
24.568756
 30
0.0
 10
27.512730
 20
24.582484
 30
0.0
 10
27.517624
 20
24.596696
 30
0.0
  0
SPLINE
  5
18f
100
AcDbEntity
  8
0
 62
7
100
AcDbSpline
 70
8
 71
3
 72
8
 73
4
 74
0
 40
0
 40
0
 40
0
 40
0
 40
1
 40
1
 40
1
 40
1
 10
27.517624
 20
24.596696
 30
0.0
 10
27.519441
 20
24.602222
 30
0.0
 10
27.521060
 20
24.607811
 30
0.0
 10
27.522478
 20
24.613453
 30
0.0
  0
SPLINE
  5
190
100
AcDbEntity
  8
0
 62
7
100
AcDbSpline
 70
8
 71
3
 72
8
 73
4
 74
0
 40
0
 40
0
 40
0
 40
0
 40
1
 40
1
 40
1
 40
1
 10
27.522478
 20
24.613453
 30
0.0
 10
27.522631
 20
24.614039
 30
0.0
 10
27.522782
 20
24.614626
 30
0.0
 10
27.522930
 20
24.615214
 30
0.0
  0
SPLINE
  5
191
100
AcDbEntity
  8
0
 62
7
100
AcDbSpline
 70
8
 71
3
 72
8
 73
4
 74
0
 40
0
 40
0
 40
0
 40
0
 40
1
 40
1
 40
1
 40
1
 10
27.522930
 20
24.615214
 30
0.0
 10
27.523917
 20
24.619306
 30
0.0
 10
27.524798
 20
24.623424
 30
0.0
 10
27.525572
 20
24.627562
 30
0.0
  0
SPLINE
  5
192
100
AcDbEntity
  8
0
 62
7
100
AcDbSpline
 70
8
 71
3
 72
8
 73
4
 74
0
 40
0
 40
0
 40
0
 40
0
 40
1
 40
1
 40
1
 40
1
 10
27.525572
 20
24.627562
 30
0.0
 10
27.526797
 20
24.633110
 30
0.0
 10
27.527829
 20
24.638699
 30
0.0
 10
27.528665
 20
24.644319
 30
0.0
  0
SPLINE
  5
193
100
AcDbEntity
  8
0
 62
7
100
AcDbSpline
 70
8
 71
3
 72
8
 73
4
 74
0
 40
0
 40
0
 40
0
 40
0
 40
1
 40
1
 40
1
 40
1
 10
27.528665
 20
24.644319
 30
0.0
 10
27.529187
 20
24.647690
 30
0.0
 10
27.529639
 20
24.651071
 30
0.0
 10
27.530019
 20
24.654461
 30
0.0
  0
LINE
  5
194
100
AcDbEntity
  8
0
 62
7
100
AcDbLine
 10
27.530019
 20
24.654461
 30
0.0
 11
27.825472
 21
27.907956
 31
0.0
  0
LINE
  5
195
100
AcDbEntity
  8
0
 62
7
100
AcDbLine
 10
27.825472
 20
27.907956
 30
0.0
 11
29.137807
 21
27.899577
 31
0.0
  0
LINE
  5
196
100
AcDbEntity
  8
0
 62
7
100
AcDbLine
 10
29.137807
 20
27.899577
 30
0.0
 11
29.137807
 21
27.499615
 31
0.0
  0
LINE
  5
197
100
AcDbEntity
  8
0
 62
7
100
AcDbLine
 10
29.137807
 20
27.499615
 30
0.0
 11
30.417949
 21
27.499615
 31
0.0
  0
LINE
  5
198
100
AcDbEntity
  8
0
 62
7
100
AcDbLine
 10
30.417949
 20
27.499615
 30
0.0
 11
30.417949
 21
27.659688
 31
0.0
  0
LINE
  5
199
100
AcDbEntity
  8
0
 62
7
100
AcDbLine
 10
30.417949
 20
27.659688
 30
0.0
 11
30.417949
 21
28.779759
 31
0.0
  0
LINE
  5
19a
100
AcDbEntity
  8
0
 62
7
100
AcDbLine
 10
30.417949
 20
28.779759
 30
0.0
 11
29.137807
 21
28.779759
 31
0.0
  0
LINE
  5
19b
100
AcDbEntity
  8
0
 62
7
100
AcDbLine
 10
29.137807
 20
28.779759
 30
0.0
 11
29.137700
 21
28.779754
 31
0.0
  0
SPLINE
  5
19c
100
AcDbEntity
  8
0
 62
7
100
AcDbSpline
 70
8
 71
3
 72
8
 73
4
 74
0
 40
0
 40
0
 40
0
 40
0
 40
1
 40
1
 40
1
 40
1
 10
29.777551
 20
28.460049
 30
0.0
 10
29.956182
 20
28.460049
 30
0.0
 10
30.098137
 20
28.318092
 30
0.0
 10
30.098137
 20
28.139462
 30
0.0
  0
SPLINE
  5
19d
100
AcDbEntity
  8
0
 62
7
100
AcDbSpline
 70
8
 71
3
 72
8
 73
4
 74
0
 40
0
 40
0
 40
0
 40
0
 40
1
 40
1
 40
1
 40
1
 10
30.098137
 20
28.139462
 30
0.0
 10
30.098137
 20
27.960832
 30
0.0
 10
29.956182
 20
27.819757
 30
0.0
 10
29.777551
 20
27.819757
 30
0.0
  0
SPLINE
  5
19e
100
AcDbEntity
  8
0
 62
7
100
AcDbSpline
 70
8
 71
3
 72
8
 73
4
 74
0
 40
0
 40
0
 40
0
 40
0
 40
1
 40
1
 40
1
 40
1
 10
29.777551
 20
27.819757
 30
0.0
 10
29.622236
 20
27.819757
 30
0.0
 10
29.495827
 20
27.926734
 30
0.0
 10
29.465343
 20
28.071993
 30
0.0
  0
SPLINE
  5
19f
100
AcDbEntity
  8
0
 62
7
100
AcDbSpline
 70
8
 71
3
 72
8
 73
4
 74
0
 40
0
 40
0
 40
0
 40
0
 40
1
 40
1
 40
1
 40
1
 10
29.465343
 20
28.071993
 30
0.0
 10
29.478926
 20
28.116954
 30
0.0
 10
29.479240
 20
28.164882
 30
0.0
 10
29.466246
 20
28.210017
 30
0.0
  0
SPLINE
  5
1a0
100
AcDbEntity
  8
0
 62
7
100
AcDbSpline
 70
8
 71
3
 72
8
 73
4
 74
0
 40
0
 40
0
 40
0
 40
0
 40
1
 40
1
 40
1
 40
1
 10
29.466246
 20
28.210017
 30
0.0
 10
29.497751
 20
28.353978
 30
0.0
 10
29.623240
 20
28.460049
 30
0.0
 10
29.777571
 20
28.460049
 30
0.0
  0
LINE
  5
1a1
100
AcDbEntity
  8
0
 62
7
100
AcDbLine
 10
29.777571
 20
28.460049
 30
0.0
 11
29.777551
 21
28.460049
 31
0.0
  0
LINE
  5
1a2
100
AcDbEntity
  8
0
 62
7
100
AcDbLine
 10
21.340865
 20
28.339663
 30
0.0
 11
21.340865
 21
28.083017
 31
0.0
  0
LINE
  5
1a3
100
AcDbEntity
  8
0
 62
7
100
AcDbLine
 10
21.340865
 20
28.083017
 30
0.0
 11
18.480717
 21
28.080805
 31
0.0
  0
SPLINE
  5
1a4
100
AcDbEntity
  8
0
 62
7
100
AcDbSpline
 70
8
 71
3
 72
8
 73
4
 74
0
 40
0
 40
0
 40
0
 40
0
 40
1
 40
1
 40
1
 40
1
 10
18.480717
 20
28.080805
 30
0.0
 10
18.480567
 20
28.080805
 30
0.0
 10
18.480416
 20
28.080805
 30
0.0
 10
18.480266
 20
28.080805
 30
0.0
  0
SPLINE
  5
1a5
100
AcDbEntity
  8
0
 62
7
100
AcDbSpline
 70
8
 71
3
 72
8
 73
4
 74
0
 40
0
 40
0
 40
0
 40
0
 40
1
 40
1
 40
1
 40
1
 10
18.480266
 20
28.080805
 30
0.0
 10
18.464110
 20
28.083624
 30
0.0
 10
18.447711
 20
28.084806
 30
0.0
 10
18.431318
 20
28.084333
 30
0.0
  0
SPLINE
  5
1a6
100
AcDbEntity
  8
0
 62
7
100
AcDbSpline
 70
8
 71
3
 72
8
 73
4
 74
0
 40
0
 40
0
 40
0
 40
0
 40
1
 40
1
 40
1
 40
1
 10
18.431318
 20
28.084333
 30
0.0
 10
18.405619
 20
28.083779
 30
0.0
 10
18.380169
 20
28.079165
 30
0.0
 10
18.355911
 20
28.070663
 30
0.0
  0
SPLINE
  5
1a7
100
AcDbEntity
  8
0
 62
7
100
AcDbSpline
 70
8
 71
3
 72
8
 73
4
 74
0
 40
0
 40
0
 40
0
 40
0
 40
1
 40
1
 40
1
 40
1
 10
18.355911
 20
28.070663
 30
0.0
 10
18.243558
 20
28.037152
 30
0.0
 10
18.170954
 20
27.928431
 30
0.0
 10
18.183050
 20
27.811812
 30
0.0
  0
LINE
  5
1a8
100
AcDbEntity
  8
0
 62
7
100
AcDbLine
 10
18.183050
 20
27.811812
 30
0.0
 11
15.903674
 21
16.144568
 31
0.0
  0
LINE
  5
1a9
100
AcDbEntity
  8
0
 62
7
100
AcDbLine
 10
15.903674
 20
16.144568
 30
0.0
 11
13.753051
 21
12.858441
 31
0.0
  0
SPLINE
  5
1aa
100
AcDbEntity
  8
0
 62
7
100
AcDbSpline
 70
8
 71
3
 72
8
 73
4
 74
0
 40
0
 40
0
 40
0
 40
0
 40
1
 40
1
 40
1
 40
1
 10
13.753051
 20
12.858441
 30
0.0
 10
13.686571
 20
12.876738
 30
0.0
 10
13.618243
 20
12.889750
 30
0.0
 10
13.546235
 20
12.889750
 30
0.0
  0
SPLINE
  5
1ab
100
AcDbEntity
  8
0
 62
7
100
AcDbSpline
 70
8
 71
3
 72
8
 73
4
 74
0
 40
0
 40
0
 40
0
 40
0
 40
1
 40
1
 40
1
 40
1
 10
13.546235
 20
12.889750
 30
0.0
 10
13.110967
 20
12.889750
 30
0.0
 10
12.753807
 20
12.532150
 30
0.0
 10
12.753807
 20
12.096882
 30
0.0
  0
SPLINE
  5
1ac
100
AcDbEntity
  8
0
 62
7
100
AcDbSpline
 70
8
 71
3
 72
8
 73
4
 74
0
 40
0
 40
0
 40
0
 40
0
 40
1
 40
1
 40
1
 40
1
 10
12.753807
 20
12.096882
 30
0.0
 10
12.753807
 20
11.661614
 30
0.0
 10
13.110967
 20
11.304454
 30
0.0
 10
13.546235
 20
11.304454
 30
0.0
  0
SPLINE
  5
1ad
100
AcDbEntity
  8
0
 62
7
100
AcDbSpline
 70
8
 71
3
 72
8
 73
4
 74
0
 40
0
 40
0
 40
0
 40
0
 40
1
 40
1
 40
1
 40
1
 10
13.546235
 20
11.304454
 30
0.0
 10
13.981502
 20
11.304454
 30
0.0
 10
14.338662
 20
11.661614
 30
0.0
 10
14.338662
 20
12.096882
 30
0.0
  0
SPLINE
  5
1ae
100
AcDbEntity
  8
0
 62
7
100
AcDbSpline
 70
8
 71
3
 72
8
 73
4
 74
0
 40
0
 40
0
 40
0
 40
0
 40
1
 40
1
 40
1
 40
1
 10
14.338662
 20
12.096882
 30
0.0
 10
14.338662
 20
12.283962
 30
0.0
 10
14.270357
 20
12.454659
 30
0.0
 10
14.160509
 20
12.590771
 30
0.0
  0
SPLINE
  5
1af
100
AcDbEntity
  8
0
 62
7
100
AcDbSpline
 70
8
 71
3
 72
8
 73
4
 74
0
 40
0
 40
0
 40
0
 40
0
 40
1
 40
1
 40
1
 40
1
 10
14.160509
 20
12.590771
 30
0.0
 10
14.160509
 20
12.590771
 30
0.0
 10
16.316865
 20
15.886158
 30
0.0
 10
16.316865
 20
15.886158
 30
0.0
  0
SPLINE
  5
1b0
100
AcDbEntity
  8
0
 62
7
100
AcDbSpline
 70
8
 71
3
 72
8
 73
4
 74
0
 40
0
 40
0
 40
0
 40
0
 40
1
 40
1
 40
1
 40
1
 10
16.316865
 20
15.886158
 30
0.0
 10
16.340727
 20
15.913851
 30
0.0
 10
16.358059
 20
15.946555
 30
0.0
 10
16.367577
 20
15.981850
 30
0.0
  0
SPLINE
  5
1b1
100
AcDbEntity
  8
0
 62
7
100
AcDbSpline
 70
8
 71
3
 72
8
 73
4
 74
0
 40
0
 40
0
 40
0
 40
0
 40
1
 40
1
 40
1
 40
1
 10
16.367577
 20
15.981850
 30
0.0
 10
16.372018
 20
15.996231
 30
0.0
 10
16.375119
 20
16.010993
 30
0.0
 10
16.376838
 20
16.025947
 30
0.0
  0
LINE
  5
1b2
100
AcDbEntity
  8
0
 62
7
100
AcDbLine
 10
16.376838
 20
16.025947
 30
0.0
 11
18.637263
 21
27.593538
 31
0.0
  0
LINE
  5
1b3
100
AcDbEntity
  8
0
 62
7
100
AcDbLine
 10
18.637263
 20
27.593538
 30
0.0
 11
21.340866
 21
27.595750
 31
0.0
  0
LINE
  5
1b4
100
AcDbEntity
  8
0
 62
7
100
AcDbLine
 10
21.340866
 20
27.595750
 30
0.0
 11
21.340866
 21
27.341309
 31
0.0
  0
LINE
  5
1b5
100
AcDbEntity
  8
0
 62
7
100
AcDbLine
 10
21.340866
 20
27.341309
 30
0.0
 11
25.345780
 21
27.341309
 31
0.0
  0
LINE
  5
1b6
100
AcDbEntity
  8
0
 62
7
100
AcDbLine
 10
25.345780
 20
27.341309
 30
0.0
 11
25.345780
 21
28.339671
 31
0.0
  0
LINE
  5
1b7
100
AcDbEntity
  8
0
 62
7
100
AcDbLine
 10
25.345780
 20
28.339671
 30
0.0
 11
21.340866
 21
28.339671
 31
0.0
  0
LINE
  5
1b8
100
AcDbEntity
  8
0
 62
7
100
AcDbLine
 10
21.340866
 20
28.339671
 30
0.0
 11
21.340865
 21
28.339663
 31
0.0
  0
LINE
  5
1b9
100
AcDbEntity
  8
0
 62
7
100
AcDbLine
 10
6.611501
 20
28.315851
 30
0.0
 11
6.611501
 21
27.317930
 31
0.0
  0
LINE
  5
1ba
100
AcDbEntity
  8
0
 62
7
100
AcDbLine
 10
6.611501
 20
27.317930
 30
0.0
 11
10.615972
 21
27.317930
 31
0.0
  0
LINE
  5
1bb
100
AcDbEntity
  8
0
 62
7
100
AcDbLine
 10
10.615972
 20
27.317930
 30
0.0
 11
10.615972
 21
28.315851
 31
0.0
  0
LINE
  5
1bc
100
AcDbEntity
  8
0
 62
7
100
AcDbLine
 10
10.615972
 20
28.315851
 30
0.0
 11
6.611501
 21
28.315851
 31
0.0
  0
LINE
  5
1bd
100
AcDbEntity
  8
0
 62
7
100
AcDbLine
 10
6.611501
 20
28.315851
 30
0.0
 11
6.611501
 21
28.315851
 31
0.0
  0
SPLINE
  5
1be
100
AcDbEntity
  8
0
 62
7
100
AcDbSpline
 70
8
 71
3
 72
8
 73
4
 74
0
 40
0
 40
0
 40
0
 40
0
 40
1
 40
1
 40
1
 40
1
 10
29.777551
 20
26.779943
 30
0.0
 10
29.425985
 20
26.779943
 30
0.0
 10
29.137700
 20
26.491219
 30
0.0
 10
29.137700
 20
26.139652
 30
0.0
  0
SPLINE
  5
1bf
100
AcDbEntity
  8
0
 62
7
100
AcDbSpline
 70
8
 71
3
 72
8
 73
4
 74
0
 40
0
 40
0
 40
0
 40
0
 40
1
 40
1
 40
1
 40
1
 10
29.137700
 20
26.139652
 30
0.0
 10
29.137700
 20
25.895420
 30
0.0
 10
29.278367
 20
25.684279
 30
0.0
 10
29.481217
 20
25.576530
 30
0.0
  0
LINE
  5
1c0
100
AcDbEntity
  8
0
 62
7
100
AcDbLine
 10
29.481217
 20
25.576530
 30
0.0
 11
29.330404
 21
23.932143
 31
0.0
  0
SPLINE
  5
1c1
100
AcDbEntity
  8
0
 62
7
100
AcDbSpline
 70
8
 71
3
 72
8
 73
4
 74
0
 40
0
 40
0
 40
0
 40
0
 40
1
 40
1
 40
1
 40
1
 10
29.330404
 20
23.932143
 30
0.0
 10
28.996465
 20
23.851470
 30
0.0
 10
28.744793
 20
23.550919
 30
0.0
 10
28.744793
 20
23.193514
 30
0.0
  0
SPLINE
  5
1c2
100
AcDbEntity
  8
0
 62
7
100
AcDbSpline
 70
8
 71
3
 72
8
 73
4
 74
0
 40
0
 40
0
 40
0
 40
0
 40
1
 40
1
 40
1
 40
1
 10
28.744793
 20
23.193514
 30
0.0
 10
28.744793
 20
22.775080
 30
0.0
 10
29.088801
 20
22.431955
 30
0.0
 10
29.507236
 20
22.431955
 30
0.0
  0
SPLINE
  5
1c3
100
AcDbEntity
  8
0
 62
7
100
AcDbSpline
 70
8
 71
3
 72
8
 73
4
 74
0
 40
0
 40
0
 40
0
 40
0
 40
1
 40
1
 40
1
 40
1
 10
29.507236
 20
22.431955
 30
0.0
 10
29.925672
 20
22.431955
 30
0.0
 10
30.268794
 20
22.775080
 30
0.0
 10
30.268794
 20
23.193514
 30
0.0
  0
SPLINE
  5
1c4
100
AcDbEntity
  8
0
 62
7
100
AcDbSpline
 70
8
 71
3
 72
8
 73
4
 74
0
 40
0
 40
0
 40
0
 40
0
 40
1
 40
1
 40
1
 40
1
 10
30.268794
 20
23.193514
 30
0.0
 10
30.268794
 20
23.502013
 30
0.0
 10
30.081673
 20
23.768684
 30
0.0
 10
29.815915
 20
23.888046
 30
0.0
  0
LINE
  5
1c5
100
AcDbEntity
  8
0
 62
7
100
AcDbLine
 10
29.815915
 20
23.888046
 30
0.0
 11
29.966728
 21
25.531991
 31
0.0
  0
SPLINE
  5
1c6
100
AcDbEntity
  8
0
 62
7
100
AcDbSpline
 70
8
 71
3
 72
8
 73
4
 74
0
 40
0
 40
0
 40
0
 40
0
 40
1
 40
1
 40
1
 40
1
 10
29.966728
 20
25.531991
 30
0.0
 10
30.226458
 20
25.613573
 30
0.0
 10
30.417843
 20
25.854173
 30
0.0
 10
30.417843
 20
26.139652
 30
0.0
  0
SPLINE
  5
1c7
100
AcDbEntity
  8
0
 62
7
100
AcDbSpline
 70
8
 71
3
 72
8
 73
4
 74
0
 40
0
 40
0
 40
0
 40
0
 40
1
 40
1
 40
1
 40
1
 10
30.417843
 20
26.139652
 30
0.0
 10
30.417843
 20
26.491219
 30
0.0
 10
30.129118
 20
26.779943
 30
0.0
 10
29.777551
 20
26.779943
 30
0.0
  0
LINE
  5
1c8
100
AcDbEntity
  8
0
 62
7
100
AcDbLine
 10
29.777551
 20
26.779943
 30
0.0
 11
29.777551
 21
26.779943
 31
0.0
  0
LINE
  5
1c9
100
AcDbEntity
  8
0
 62
7
100
AcDbLine
 10
21.437879
 20
26.735405
 30
0.0
 11
21.437879
 21
26.466412
 31
0.0
  0
LINE
  5
1ca
100
AcDbEntity
  8
0
 62
7
100
AcDbLine
 10
21.437879
 20
26.466412
 30
0.0
 11
19.789083
 21
26.455387
 31
0.0
  0
SPLINE
  5
1cb
100
AcDbEntity
  8
0
 62
7
100
AcDbSpline
 70
8
 71
3
 72
8
 73
4
 74
0
 40
0
 40
0
 40
0
 40
0
 40
1
 40
1
 40
1
 40
1
 10
19.789083
 20
26.455387
 30
0.0
 10
19.773651
 20
26.458062
 30
0.0
 10
19.757998
 20
26.459244
 30
0.0
 10
19.742339
 20
26.458916
 30
0.0
  0
SPLINE
  5
1cc
100
AcDbEntity
  8
0
 62
7
100
AcDbSpline
 70
8
 71
3
 72
8
 73
4
 74
0
 40
0
 40
0
 40
0
 40
0
 40
1
 40
1
 40
1
 40
1
 10
19.742339
 20
26.458916
 30
0.0
 10
19.714290
 20
26.458382
 30
0.0
 10
19.686542
 20
26.453012
 30
0.0
 10
19.660319
 20
26.443042
 30
0.0
  0
SPLINE
  5
1cd
100
AcDbEntity
  8
0
 62
7
100
AcDbSpline
 70
8
 71
3
 72
8
 73
4
 74
0
 40
0
 40
0
 40
0
 40
0
 40
1
 40
1
 40
1
 40
1
 10
19.660319
 20
26.443042
 30
0.0
 10
19.542871
 20
26.405145
 30
0.0
 10
19.472247
 20
26.285482
 30
0.0
 10
19.495836
 20
26.164347
 30
0.0
  0
LINE
  5
1ce
100
AcDbEntity
  8
0
 62
7
100
AcDbLine
 10
19.495836
 20
26.164347
 30
0.0
 11
18.560974
 21
16.771190
 31
0.0
  0
LINE
  5
1cf
100
AcDbEntity
  8
0
 62
7
100
AcDbLine
 10
18.560974
 20
16.771190
 30
0.0
 11
15.809747
 21
12.850945
 31
0.0
  0
SPLINE
  5
1d0
100
AcDbEntity
  8
0
 62
7
100
AcDbSpline
 70
8
 71
3
 72
8
 73
4
 74
0
 40
0
 40
0
 40
0
 40
0
 40
1
 40
1
 40
1
 40
1
 10
15.809747
 20
12.850945
 30
0.0
 10
15.736037
 20
12.873832
 30
0.0
 10
15.659118
 20
12.889750
 30
0.0
 10
15.578236
 20
12.889750
 30
0.0
  0
SPLINE
  5
1d1
100
AcDbEntity
  8
0
 62
7
100
AcDbSpline
 70
8
 71
3
 72
8
 73
4
 74
0
 40
0
 40
0
 40
0
 40
0
 40
1
 40
1
 40
1
 40
1
 10
15.578236
 20
12.889750
 30
0.0
 10
15.142968
 20
12.889751
 30
0.0
 10
14.785808
 20
12.532150
 30
0.0
 10
14.785808
 20
12.096882
 30
0.0
  0
SPLINE
  5
1d2
100
AcDbEntity
  8
0
 62
7
100
AcDbSpline
 70
8
 71
3
 72
8
 73
4
 74
0
 40
0
 40
0
 40
0
 40
0
 40
1
 40
1
 40
1
 40
1
 10
14.785808
 20
12.096882
 30
0.0
 10
14.785808
 20
11.661614
 30
0.0
 10
15.142968
 20
11.304454
 30
0.0
 10
15.578236
 20
11.304454
 30
0.0
  0
SPLINE
  5
1d3
100
AcDbEntity
  8
0
 62
7
100
AcDbSpline
 70
8
 71
3
 72
8
 73
4
 74
0
 40
0
 40
0
 40
0
 40
0
 40
1
 40
1
 40
1
 40
1
 10
15.578236
 20
11.304454
 30
0.0
 10
16.013504
 20
11.304454
 30
0.0
 10
16.371105
 20
11.661614
 30
0.0
 10
16.371105
 20
12.096882
 30
0.0
  0
SPLINE
  5
1d4
100
AcDbEntity
  8
0
 62
7
100
AcDbSpline
 70
8
 71
3
 72
8
 73
4
 74
0
 40
0
 40
0
 40
0
 40
0
 40
1
 40
1
 40
1
 40
1
 10
16.371105
 20
12.096882
 30
0.0
 10
16.371105
 20
12.274658
 30
0.0
 10
16.309016
 20
12.437738
 30
0.0
 10
16.208827
 20
12.570486
 30
0.0
  0
LINE
  5
1d5
100
AcDbEntity
  8
0
 62
7
100
AcDbLine
 10
16.208827
 20
12.570486
 30
0.0
 11
18.968874
 21
16.503079
 31
0.0
  0
SPLINE
  5
1d6
100
AcDbEntity
  8
0
 62
7
100
AcDbSpline
 70
8
 71
3
 72
8
 73
4
 74
0
 40
0
 40
0
 40
0
 40
0
 40
1
 40
1
 40
1
 40
1
 10
18.968874
 20
16.503079
 30
0.0
 10
19.004092
 20
16.538085
 30
0.0
 10
19.027784
 20
16.583009
 30
0.0
 10
19.036783
 20
16.631843
 30
0.0
  0
SPLINE
  5
1d7
100
AcDbEntity
  8
0
 62
7
100
AcDbSpline
 70
8
 71
3
 72
8
 73
4
 74
0
 40
0
 40
0
 40
0
 40
0
 40
1
 40
1
 40
1
 40
1
 10
19.036783
 20
16.631843
 30
0.0
 10
19.036937
 20
16.632580
 30
0.0
 10
19.037088
 20
16.633317
 30
0.0
 10
19.037235
 20
16.634056
 30
0.0
  0
SPLINE
  5
1d8
100
AcDbEntity
  8
0
 62
7
100
AcDbSpline
 70
8
 71
3
 72
8
 73
4
 74
0
 40
0
 40
0
 40
0
 40
0
 40
1
 40
1
 40
1
 40
1
 10
19.037235
 20
16.634056
 30
0.0
 10
19.037235
 20
16.634206
 30
0.0
 10
19.037235
 20
16.634357
 30
0.0
 10
19.037235
 20
16.634507
 30
0.0
  0
SPLINE
  5
1d9
100
AcDbEntity
  8
0
 62
7
100
AcDbSpline
 70
8
 71
3
 72
8
 73
4
 74
0
 40
0
 40
0
 40
0
 40
0
 40
1
 40
1
 40
1
 40
1
 10
19.037235
 20
16.634507
 30
0.0
 10
19.041201
 20
16.652460
 30
0.0
 10
19.043124
 20
16.670803
 30
0.0
 10
19.042967
 20
16.689188
 30
0.0
  0
LINE
  5
1da
100
AcDbEntity
  8
0
 62
7
100
AcDbLine
 10
19.042967
 20
16.689188
 30
0.0
 11
19.967246
 21
25.969013
 31
0.0
  0
LINE
  5
1db
100
AcDbEntity
  8
0
 62
7
100
AcDbLine
 10
19.967246
 20
25.969013
 30
0.0
 11
21.437889
 21
25.978715
 31
0.0
  0
LINE
  5
1dc
100
AcDbEntity
  8
0
 62
7
100
AcDbLine
 10
21.437889
 20
25.978715
 30
0.0
 11
21.437889
 21
25.737062
 31
0.0
  0
LINE
  5
1dd
100
AcDbEntity
  8
0
 62
7
100
AcDbLine
 10
21.437889
 20
25.737062
 30
0.0
 11
25.442802
 21
25.737062
 31
0.0
  0
LINE
  5
1de
100
AcDbEntity
  8
0
 62
7
100
AcDbLine
 10
25.442802
 20
25.737062
 30
0.0
 11
25.442802
 21
26.735424
 31
0.0
  0
LINE
  5
1df
100
AcDbEntity
  8
0
 62
7
100
AcDbLine
 10
25.442802
 20
26.735424
 30
0.0
 11
21.437889
 21
26.735424
 31
0.0
  0
LINE
  5
1e0
100
AcDbEntity
  8
0
 62
7
100
AcDbLine
 10
21.437889
 20
26.735424
 30
0.0
 11
21.437879
 21
26.735405
 31
0.0
  0
LINE
  5
1e1
100
AcDbEntity
  8
0
 62
7
100
AcDbLine
 10
6.567404
 20
26.718208
 30
0.0
 11
6.567404
 21
25.719846
 31
0.0
  0
LINE
  5
1e2
100
AcDbEntity
  8
0
 62
7
100
AcDbLine
 10
6.567404
 20
25.719846
 30
0.0
 11
10.572316
 21
25.719846
 31
0.0
  0
LINE
  5
1e3
100
AcDbEntity
  8
0
 62
7
100
AcDbLine
 10
10.572316
 20
25.719846
 30
0.0
 11
10.572316
 21
26.718208
 31
0.0
  0
LINE
  5
1e4
100
AcDbEntity
  8
0
 62
7
100
AcDbLine
 10
10.572316
 20
26.718208
 30
0.0
 11
6.567404
 21
26.718208
 31
0.0
  0
LINE
  5
1e5
100
AcDbEntity
  8
0
 62
7
100
AcDbLine
 10
6.567404
 20
26.718208
 30
0.0
 11
6.567404
 21
26.718208
 31
0.0
  0
SPLINE
  5
1e6
100
AcDbEntity
  8
0
 62
7
100
AcDbSpline
 70
8
 71
3
 72
8
 73
4
 74
0
 40
0
 40
0
 40
0
 40
0
 40
1
 40
1
 40
1
 40
1
 10
29.777551
 20
26.459357
 30
0.0
 10
29.956182
 20
26.459357
 30
0.0
 10
30.098137
 20
26.318281
 30
0.0
 10
30.098137
 20
26.139652
 30
0.0
  0
SPLINE
  5
1e7
100
AcDbEntity
  8
0
 62
7
100
AcDbSpline
 70
8
 71
3
 72
8
 73
4
 74
0
 40
0
 40
0
 40
0
 40
0
 40
1
 40
1
 40
1
 40
1
 10
30.098137
 20
26.139652
 30
0.0
 10
30.098137
 20
25.976256
 30
0.0
 10
29.979014
 20
25.845316
 30
0.0
 10
29.822090
 20
25.823915
 30
0.0
  0
SPLINE
  5
1e8
100
AcDbEntity
  8
0
 62
7
100
AcDbSpline
 70
8
 71
3
 72
8
 73
4
 74
0
 40
0
 40
0
 40
0
 40
0
 40
1
 40
1
 40
1
 40
1
 10
29.822090
 20
25.823915
 30
0.0
 10
29.790599
 20
25.837304
 30
0.0
 10
29.756643
 20
25.843915
 30
0.0
 10
29.722429
 20
25.843319
 30
0.0
  0
SPLINE
  5
1e9
100
AcDbEntity
  8
0
 62
7
100
AcDbSpline
 70
8
 71
3
 72
8
 73
4
 74
0
 40
0
 40
0
 40
0
 40
0
 40
1
 40
1
 40
1
 40
1
 10
29.722429
 20
25.843319
 30
0.0
 10
29.706700
 20
25.842920
 30
0.0
 10
29.691046
 20
25.841000
 30
0.0
 10
29.675686
 20
25.837586
 30
0.0
  0
SPLINE
  5
1ea
100
AcDbEntity
  8
0
 62
7
100
AcDbSpline
 70
8
 71
3
 72
8
 73
4
 74
0
 40
0
 40
0
 40
0
 40
0
 40
1
 40
1
 40
1
 40
1
 10
29.675686
 20
25.837586
 30
0.0
 10
29.548544
 20
25.879798
 30
0.0
 10
29.457847
 20
25.997053
 30
0.0
 10
29.457847
 20
26.139652
 30
0.0
  0
SPLINE
  5
1eb
100
AcDbEntity
  8
0
 62
7
100
AcDbSpline
 70
8
 71
3
 72
8
 73
4
 74
0
 40
0
 40
0
 40
0
 40
0
 40
1
 40
1
 40
1
 40
1
 10
29.457847
 20
26.139652
 30
0.0
 10
29.457847
 20
26.318282
 30
0.0
 10
29.598922
 20
26.459357
 30
0.0
 10
29.777551
 20
26.459357
 30
0.0
  0
LINE
  5
1ec
100
AcDbEntity
  8
0
 62
7
100
AcDbLine
 10
29.777551
 20
26.459357
 30
0.0
 11
29.777551
 21
26.459357
 31
0.0
  0
SPLINE
  5
1ed
100
AcDbEntity
  8
0
 62
7
100
AcDbSpline
 70
8
 71
3
 72
8
 73
4
 74
0
 40
0
 40
0
 40
0
 40
0
 40
1
 40
1
 40
1
 40
1
 10
4.121770
 20
25.302686
 30
0.0
 10
3.703336
 20
25.302686
 30
0.0
 10
3.360210
 20
24.959119
 30
0.0
 10
3.360210
 20
24.540685
 30
0.0
  0
SPLINE
  5
1ee
100
AcDbEntity
  8
0
 62
7
100
AcDbSpline
 70
8
 71
3
 72
8
 73
4
 74
0
 40
0
 40
0
 40
0
 40
0
 40
1
 40
1
 40
1
 40
1
 10
3.360210
 20
24.540685
 30
0.0
 10
3.360210
 20
24.122251
 30
0.0
 10
3.703336
 20
23.779126
 30
0.0
 10
4.121770
 20
23.779125
 30
0.0
  0
SPLINE
  5
1ef
100
AcDbEntity
  8
0
 62
7
100
AcDbSpline
 70
8
 71
3
 72
8
 73
4
 74
0
 40
0
 40
0
 40
0
 40
0
 40
1
 40
1
 40
1
 40
1
 10
4.121770
 20
23.779125
 30
0.0
 10
4.459401
 20
23.779125
 30
0.0
 10
4.745157
 20
24.003897
 30
0.0
 10
4.844083
 20
24.310056
 30
0.0
  0
LINE
  5
1f0
100
AcDbEntity
  8
0
 62
7
100
AcDbLine
 10
4.844083
 20
24.310056
 30
0.0
 11
6.617675
 21
24.342688
 31
0.0
  0
LINE
  5
1f1
100
AcDbEntity
  8
0
 62
7
100
AcDbLine
 10
6.617675
 20
24.342688
 30
0.0
 11
6.617675
 21
24.124848
 31
0.0
  0
LINE
  5
1f2
100
AcDbEntity
  8
0
 62
7
100
AcDbLine
 10
6.617675
 20
24.124848
 30
0.0
 11
10.622587
 21
24.124848
 31
0.0
  0
LINE
  5
1f3
100
AcDbEntity
  8
0
 62
7
100
AcDbLine
 10
10.622587
 20
24.124848
 30
0.0
 11
10.622587
 21
25.123210
 31
0.0
  0
LINE
  5
1f4
100
AcDbEntity
  8
0
 62
7
100
AcDbLine
 10
10.622587
 20
25.123210
 30
0.0
 11
6.617675
 21
25.123210
 31
0.0
  0
LINE
  5
1f5
100
AcDbEntity
  8
0
 62
7
100
AcDbLine
 10
6.617675
 20
25.123210
 30
0.0
 11
6.617675
 21
24.830845
 31
0.0
  0
LINE
  5
1f6
100
AcDbEntity
  8
0
 62
7
100
AcDbLine
 10
6.617675
 20
24.830845
 30
0.0
 11
4.835705
 21
24.798213
 31
0.0
  0
SPLINE
  5
1f7
100
AcDbEntity
  8
0
 62
7
100
AcDbSpline
 70
8
 71
3
 72
8
 73
4
 74
0
 40
0
 40
0
 40
0
 40
0
 40
1
 40
1
 40
1
 40
1
 10
4.835705
 20
24.798213
 30
0.0
 10
4.729010
 20
25.090610
 30
0.0
 10
4.449527
 20
25.302686
 30
0.0
 10
4.121770
 20
25.302686
 30
0.0
  0
LINE
  5
1f8
100
AcDbEntity
  8
0
 62
7
100
AcDbLine
 10
4.121770
 20
25.302686
 30
0.0
 11
4.121770
 21
25.302686
 31
0.0
  0
SPLINE
  5
1f9
100
AcDbEntity
  8
0
 62
7
100
AcDbSpline
 70
8
 71
3
 72
8
 73
4
 74
0
 40
0
 40
0
 40
0
 40
0
 40
1
 40
1
 40
1
 40
1
 10
4.121770
 20
24.896109
 30
0.0
 10
4.293744
 20
24.896109
 30
0.0
 10
4.434031
 20
24.778644
 30
0.0
 10
4.468816
 20
24.618296
 30
0.0
  0
SPLINE
  5
1fa
100
AcDbEntity
  8
0
 62
7
100
AcDbSpline
 70
8
 71
3
 72
8
 73
4
 74
0
 40
0
 40
0
 40
0
 40
0
 40
1
 40
1
 40
1
 40
1
 10
4.468816
 20
24.618296
 30
0.0
 10
4.455597
 20
24.571750
 30
0.0
 10
4.456518
 20
24.522324
 30
0.0
 10
4.471462
 20
24.476303
 30
0.0
  0
SPLINE
  5
1fb
100
AcDbEntity
  8
0
 62
7
100
AcDbSpline
 70
8
 71
3
 72
8
 73
4
 74
0
 40
0
 40
0
 40
0
 40
0
 40
1
 40
1
 40
1
 40
1
 10
4.471462
 20
24.476303
 30
0.0
 10
4.441726
 20
24.309203
 30
0.0
 10
4.298451
 20
24.185261
 30
0.0
 10
4.121770
 20
24.185261
 30
0.0
  0
SPLINE
  5
1fc
100
AcDbEntity
  8
0
 62
7
100
AcDbSpline
 70
8
 71
3
 72
8
 73
4
 74
0
 40
0
 40
0
 40
0
 40
0
 40
1
 40
1
 40
1
 40
1
 10
4.121770
 20
24.185261
 30
0.0
 10
3.922971
 20
24.185261
 30
0.0
 10
3.766347
 20
24.341886
 30
0.0
 10
3.766347
 20
24.540685
 30
0.0
  0
SPLINE
  5
1fd
100
AcDbEntity
  8
0
 62
7
100
AcDbSpline
 70
8
 71
3
 72
8
 73
4
 74
0
 40
0
 40
0
 40
0
 40
0
 40
1
 40
1
 40
1
 40
1
 10
3.766347
 20
24.540685
 30
0.0
 10
3.766347
 20
24.739485
 30
0.0
 10
3.922971
 20
24.896109
 30
0.0
 10
4.121770
 20
24.896109
 30
0.0
  0
LINE
  5
1fe
100
AcDbEntity
  8
0
 62
7
100
AcDbLine
 10
4.121770
 20
24.896109
 30
0.0
 11
4.121770
 21
24.896109
 31
0.0
  0
SPLINE
  5
1ff
100
AcDbEntity
  8
0
 62
7
100
AcDbSpline
 70
8
 71
3
 72
8
 73
4
 74
0
 40
0
 40
0
 40
0
 40
0
 40
1
 40
1
 40
1
 40
1
 10
29.464460
 20
23.544969
 30
0.0
 10
29.511875
 20
23.524619
 30
0.0
 10
29.564524
 20
23.519832
 30
0.0
 10
29.614832
 20
23.531298
 30
0.0
  0
SPLINE
  5
200
100
AcDbEntity
  8
0
 62
7
100
AcDbSpline
 70
8
 71
3
 72
8
 73
4
 74
0
 40
0
 40
0
 40
0
 40
0
 40
1
 40
1
 40
1
 40
1
 10
29.614832
 20
23.531298
 30
0.0
 10
29.759351
 20
23.486288
 30
0.0
 10
29.862660
 20
23.354393
 30
0.0
 10
29.862658
 20
23.193513
 30
0.0
  0
SPLINE
  5
201
100
AcDbEntity
  8
0
 62
7
100
AcDbSpline
 70
8
 71
3
 72
8
 73
4
 74
0
 40
0
 40
0
 40
0
 40
0
 40
1
 40
1
 40
1
 40
1
 10
29.862658
 20
23.193513
 30
0.0
 10
29.862658
 20
22.994714
 30
0.0
 10
29.706035
 20
22.838090
 30
0.0
 10
29.507236
 20
22.838090
 30
0.0
  0
SPLINE
  5
202
100
AcDbEntity
  8
0
 62
7
100
AcDbSpline
 70
8
 71
3
 72
8
 73
4
 74
0
 40
0
 40
0
 40
0
 40
0
 40
1
 40
1
 40
1
 40
1
 10
29.507236
 20
22.838090
 30
0.0
 10
29.308438
 20
22.838090
 30
0.0
 10
29.151369
 20
22.994714
 30
0.0
 10
29.151369
 20
23.193513
 30
0.0
  0
SPLINE
  5
203
100
AcDbEntity
  8
0
 62
7
100
AcDbSpline
 70
8
 71
3
 72
8
 73
4
 74
0
 40
0
 40
0
 40
0
 40
0
 40
1
 40
1
 40
1
 40
1
 10
29.151369
 20
23.193513
 30
0.0
 10
29.151369
 20
23.377622
 30
0.0
 10
29.286691
 20
23.524095
 30
0.0
 10
29.464460
 20
23.544968
 30
0.0
  0
LINE
  5
204
100
AcDbEntity
  8
0
 62
7
100
AcDbLine
 10
29.464460
 20
23.544968
 30
0.0
 11
29.464460
 21
23.544969
 31
0.0
  0
LINE
  5
205
100
AcDbEntity
  8
0
 62
7
100
AcDbLine
 10
6.580192
 20
23.544518
 30
0.0
 11
6.580192
 21
22.546597
 31
0.0
  0
LINE
  5
206
100
AcDbEntity
  8
0
 62
7
100
AcDbLine
 10
6.580192
 20
22.546597
 30
0.0
 11
10.584663
 21
22.546597
 31
0.0
  0
LINE
  5
207
100
AcDbEntity
  8
0
 62
7
100
AcDbLine
 10
10.584663
 20
22.546597
 30
0.0
 11
10.584663
 21
23.544518
 31
0.0
  0
LINE
  5
208
100
AcDbEntity
  8
0
 62
7
100
AcDbLine
 10
10.584663
 20
23.544518
 30
0.0
 11
6.580192
 21
23.544518
 31
0.0
  0
LINE
  5
209
100
AcDbEntity
  8
0
 62
7
100
AcDbLine
 10
6.580192
 20
23.544518
 30
0.0
 11
6.580192
 21
23.544518
 31
0.0
  0
LINE
  5
20a
100
AcDbEntity
  8
0
 62
7
100
AcDbLine
 10
21.417594
 20
23.533053
 30
0.0
 11
21.417594
 21
22.535132
 31
0.0
  0
LINE
  5
20b
100
AcDbEntity
  8
0
 62
7
100
AcDbLine
 10
21.417594
 20
22.535132
 30
0.0
 11
25.422066
 21
22.535132
 31
0.0
  0
LINE
  5
20c
100
AcDbEntity
  8
0
 62
7
100
AcDbLine
 10
25.422066
 20
22.535132
 30
0.0
 11
25.422066
 21
23.533053
 31
0.0
  0
LINE
  5
20d
100
AcDbEntity
  8
0
 62
7
100
AcDbLine
 10
25.422066
 20
23.533053
 30
0.0
 11
21.417594
 21
23.533053
 31
0.0
  0
LINE
  5
20e
100
AcDbEntity
  8
0
 62
7
100
AcDbLine
 10
21.417594
 20
23.533053
 30
0.0
 11
21.417594
 21
23.533053
 31
0.0
  0
LINE
  5
20f
100
AcDbEntity
  8
0
 62
7
100
AcDbLine
 10
21.437878
 20
21.932322
 30
0.0
 11
21.437878
 21
20.933961
 31
0.0
  0
LINE
  5
210
100
AcDbEntity
  8
0
 62
7
100
AcDbLine
 10
21.437878
 20
20.933961
 30
0.0
 11
25.442790
 21
20.933961
 31
0.0
  0
LINE
  5
211
100
AcDbEntity
  8
0
 62
7
100
AcDbLine
 10
25.442790
 20
20.933961
 30
0.0
 11
25.442790
 21
21.114318
 31
0.0
  0
LINE
  5
212
100
AcDbEntity
  8
0
 62
7
100
AcDbLine
 10
25.442790
 20
21.114318
 30
0.0
 11
32.565820
 21
20.847530
 31
0.0
  0
SPLINE
  5
213
100
AcDbEntity
  8
0
 62
7
100
AcDbSpline
 70
8
 71
3
 72
8
 73
4
 74
0
 40
0
 40
0
 40
0
 40
0
 40
1
 40
1
 40
1
 40
1
 10
32.565820
 20
20.847530
 30
0.0
 10
32.660301
 20
20.533896
 30
0.0
 10
32.950004
 20
20.302047
 30
0.0
 10
33.292983
 20
20.302047
 30
0.0
  0
SPLINE
  5
214
100
AcDbEntity
  8
0
 62
7
100
AcDbSpline
 70
8
 71
3
 72
8
 73
4
 74
0
 40
0
 40
0
 40
0
 40
0
 40
1
 40
1
 40
1
 40
1
 10
33.292983
 20
20.302047
 30
0.0
 10
33.711417
 20
20.302047
 30
0.0
 10
34.054543
 20
20.645172
 30
0.0
 10
34.054543
 20
21.063606
 30
0.0
  0
SPLINE
  5
215
100
AcDbEntity
  8
0
 62
7
100
AcDbSpline
 70
8
 71
3
 72
8
 73
4
 74
0
 40
0
 40
0
 40
0
 40
0
 40
1
 40
1
 40
1
 40
1
 10
34.054543
 20
21.063606
 30
0.0
 10
34.054543
 20
21.482040
 30
0.0
 10
33.711417
 20
21.825607
 30
0.0
 10
33.292983
 20
21.825607
 30
0.0
  0
SPLINE
  5
216
100
AcDbEntity
  8
0
 62
7
100
AcDbSpline
 70
8
 71
3
 72
8
 73
4
 74
0
 40
0
 40
0
 40
0
 40
0
 40
1
 40
1
 40
1
 40
1
 10
33.292983
 20
21.825607
 30
0.0
 10
32.970269
 20
21.825607
 30
0.0
 10
32.693933
 20
21.620197
 30
0.0
 10
32.583460
 20
21.334805
 30
0.0
  0
LINE
  5
217
100
AcDbEntity
  8
0
 62
7
100
AcDbLine
 10
32.583460
 20
21.334805
 30
0.0
 11
25.442790
 21
21.602034
 31
0.0
  0
LINE
  5
218
100
AcDbEntity
  8
0
 62
7
100
AcDbLine
 10
25.442790
 20
21.602034
 30
0.0
 11
25.442790
 21
21.932322
 31
0.0
  0
LINE
  5
219
100
AcDbEntity
  8
0
 62
7
100
AcDbLine
 10
25.442790
 20
21.932322
 30
0.0
 11
21.437878
 21
21.932322
 31
0.0
  0
LINE
  5
21a
100
AcDbEntity
  8
0
 62
7
100
AcDbLine
 10
21.437878
 20
21.932322
 30
0.0
 11
21.437878
 21
21.932322
 31
0.0
  0
LINE
  5
21b
100
AcDbEntity
  8
0
 62
7
100
AcDbLine
 10
6.580191
 20
21.914242
 30
0.0
 11
6.580191
 21
20.915880
 31
0.0
  0
LINE
  5
21c
100
AcDbEntity
  8
0
 62
7
100
AcDbLine
 10
6.580191
 20
20.915880
 30
0.0
 11
10.584662
 21
20.915880
 31
0.0
  0
LINE
  5
21d
100
AcDbEntity
  8
0
 62
7
100
AcDbLine
 10
10.584662
 20
20.915880
 30
0.0
 11
10.584662
 21
21.914242
 31
0.0
  0
LINE
  5
21e
100
AcDbEntity
  8
0
 62
7
100
AcDbLine
 10
10.584662
 20
21.914242
 30
0.0
 11
6.580191
 21
21.914242
 31
0.0
  0
LINE
  5
21f
100
AcDbEntity
  8
0
 62
7
100
AcDbLine
 10
6.580191
 20
21.914242
 30
0.0
 11
6.580191
 21
21.914242
 31
0.0
  0
SPLINE
  5
220
100
AcDbEntity
  8
0
 62
7
100
AcDbSpline
 70
8
 71
3
 72
8
 73
4
 74
0
 40
0
 40
0
 40
0
 40
0
 40
1
 40
1
 40
1
 40
1
 10
33.292983
 20
21.419030
 30
0.0
 10
33.491780
 20
21.419030
 30
0.0
 10
33.648407
 20
21.262405
 30
0.0
 10
33.648407
 20
21.063606
 30
0.0
  0
SPLINE
  5
221
100
AcDbEntity
  8
0
 62
7
100
AcDbSpline
 70
8
 71
3
 72
8
 73
4
 74
0
 40
0
 40
0
 40
0
 40
0
 40
1
 40
1
 40
1
 40
1
 10
33.648407
 20
21.063606
 30
0.0
 10
33.648407
 20
20.864807
 30
0.0
 10
33.491780
 20
20.708182
 30
0.0
 10
33.292983
 20
20.708182
 30
0.0
  0
SPLINE
  5
222
100
AcDbEntity
  8
0
 62
7
100
AcDbSpline
 70
8
 71
3
 72
8
 73
4
 74
0
 40
0
 40
0
 40
0
 40
0
 40
1
 40
1
 40
1
 40
1
 10
33.292983
 20
20.708182
 30
0.0
 10
33.117517
 20
20.708182
 30
0.0
 10
32.974473
 20
20.830341
 30
0.0
 10
32.943294
 20
20.995696
 30
0.0
  0
SPLINE
  5
223
100
AcDbEntity
  8
0
 62
7
100
AcDbSpline
 70
8
 71
3
 72
8
 73
4
 74
0
 40
0
 40
0
 40
0
 40
0
 40
1
 40
1
 40
1
 40
1
 10
32.943294
 20
20.995696
 30
0.0
 10
32.963667
 20
21.047050
 30
0.0
 10
32.965999
 20
21.103799
 30
0.0
 10
32.949909
 20
21.156651
 30
0.0
  0
SPLINE
  5
224
100
AcDbEntity
  8
0
 62
7
100
AcDbSpline
 70
8
 71
3
 72
8
 73
4
 74
0
 40
0
 40
0
 40
0
 40
0
 40
1
 40
1
 40
1
 40
1
 10
32.949909
 20
21.156651
 30
0.0
 10
32.990348
 20
21.308869
 30
0.0
 10
33.126695
 20
21.419030
 30
0.0
 10
33.292985
 20
21.419030
 30
0.0
  0
LINE
  5
225
100
AcDbEntity
  8
0
 62
7
100
AcDbLine
 10
33.292985
 20
21.419030
 30
0.0
 11
33.292983
 21
21.419030
 31
0.0
  0
LINE
  5
226
100
AcDbEntity
  8
0
 62
7
100
AcDbLine
 10
21.437878
 20
20.331151
 30
0.0
 11
21.437878
 21
19.333230
 31
0.0
  0
LINE
  5
227
100
AcDbEntity
  8
0
 62
7
100
AcDbLine
 10
21.437878
 20
19.333230
 30
0.0
 11
25.442790
 21
19.333230
 31
0.0
  0
LINE
  5
228
100
AcDbEntity
  8
0
 62
7
100
AcDbLine
 10
25.442790
 20
19.333230
 30
0.0
 11
25.442790
 21
20.331151
 31
0.0
  0
LINE
  5
229
100
AcDbEntity
  8
0
 62
7
100
AcDbLine
 10
25.442790
 20
20.331151
 30
0.0
 11
21.437878
 21
20.331151
 31
0.0
  0
LINE
  5
22a
100
AcDbEntity
  8
0
 62
7
100
AcDbLine
 10
21.437878
 20
20.331151
 30
0.0
 11
21.437878
 21
20.331151
 31
0.0
  0
LINE
  5
22b
100
AcDbEntity
  8
0
 62
7
100
AcDbLine
 10
6.623847
 20
20.321009
 30
0.0
 11
6.623847
 21
19.322647
 31
0.0
  0
LINE
  5
22c
100
AcDbEntity
  8
0
 62
7
100
AcDbLine
 10
6.623847
 20
19.322647
 30
0.0
 11
10.628760
 21
19.322647
 31
0.0
  0
LINE
  5
22d
100
AcDbEntity
  8
0
 62
7
100
AcDbLine
 10
10.628760
 20
19.322647
 30
0.0
 11
10.628760
 21
20.321009
 31
0.0
  0
LINE
  5
22e
100
AcDbEntity
  8
0
 62
7
100
AcDbLine
 10
10.628760
 20
20.321009
 30
0.0
 11
6.623847
 21
20.321009
 31
0.0
  0
LINE
  5
22f
100
AcDbEntity
  8
0
 62
7
100
AcDbLine
 10
6.623847
 20
20.321009
 30
0.0
 11
6.623847
 21
20.321009
 31
0.0
  0
SPLINE
  5
230
100
AcDbEntity
  8
0
 62
7
100
AcDbSpline
 70
8
 71
3
 72
8
 73
4
 74
0
 40
0
 40
0
 40
0
 40
0
 40
1
 40
1
 40
1
 40
1
 10
27.196539
 20
18.981334
 30
0.0
 10
26.867463
 20
18.981334
 30
0.0
 10
26.587430
 20
18.767270
 30
0.0
 10
26.481723
 20
18.472893
 30
0.0
  0
LINE
  5
231
100
AcDbEntity
  8
0
 62
7
100
AcDbLine
 10
26.481723
 20
18.472893
 30
0.0
 11
25.442790
 21
18.487887
 31
0.0
  0
LINE
  5
232
100
AcDbEntity
  8
0
 62
7
100
AcDbLine
 10
25.442790
 20
18.487887
 30
0.0
 11
25.442790
 21
18.771432
 31
0.0
  0
LINE
  5
233
100
AcDbEntity
  8
0
 62
7
100
AcDbLine
 10
25.442790
 20
18.771432
 30
0.0
 11
21.437878
 21
18.771432
 31
0.0
  0
LINE
  5
234
100
AcDbEntity
  8
0
 62
7
100
AcDbLine
 10
21.437878
 20
18.771432
 30
0.0
 11
21.437878
 21
17.773070
 31
0.0
  0
LINE
  5
235
100
AcDbEntity
  8
0
 62
7
100
AcDbLine
 10
21.437878
 20
17.773070
 30
0.0
 11
25.442790
 21
17.773070
 31
0.0
  0
LINE
  5
236
100
AcDbEntity
  8
0
 62
7
100
AcDbLine
 10
25.442790
 20
17.773070
 30
0.0
 11
25.442790
 21
17.999730
 31
0.0
  0
LINE
  5
237
100
AcDbEntity
  8
0
 62
7
100
AcDbLine
 10
25.442790
 20
17.999730
 30
0.0
 11
26.475548
 21
17.985179
 31
0.0
  0
SPLINE
  5
238
100
AcDbEntity
  8
0
 62
7
100
AcDbSpline
 70
8
 71
3
 72
8
 73
4
 74
0
 40
0
 40
0
 40
0
 40
0
 40
1
 40
1
 40
1
 40
1
 10
26.475548
 20
17.985179
 30
0.0
 10
26.575405
 20
17.680590
 30
0.0
 10
26.860032
 20
17.456894
 30
0.0
 10
27.196539
 20
17.456894
 30
0.0
  0
SPLINE
  5
239
100
AcDbEntity
  8
0
 62
7
100
AcDbSpline
 70
8
 71
3
 72
8
 73
4
 74
0
 40
0
 40
0
 40
0
 40
0
 40
1
 40
1
 40
1
 40
1
 10
27.196539
 20
17.456894
 30
0.0
 10
27.614973
 20
17.456894
 30
0.0
 10
27.958539
 20
17.800460
 30
0.0
 10
27.958539
 20
18.218894
 30
0.0
  0
SPLINE
  5
23a
100
AcDbEntity
  8
0
 62
7
100
AcDbSpline
 70
8
 71
3
 72
8
 73
4
 74
0
 40
0
 40
0
 40
0
 40
0
 40
1
 40
1
 40
1
 40
1
 10
27.958539
 20
18.218894
 30
0.0
 10
27.958539
 20
18.637328
 30
0.0
 10
27.614973
 20
18.981335
 30
0.0
 10
27.196539
 20
18.981335
 30
0.0
  0
LINE
  5
23b
100
AcDbEntity
  8
0
 62
7
100
AcDbLine
 10
27.196539
 20
18.981335
 30
0.0
 11
27.196539
 21
18.981334
 31
0.0
  0
LINE
  5
23c
100
AcDbEntity
  8
0
 62
7
100
AcDbLine
 10
6.623847
 20
18.759525
 30
0.0
 11
6.623847
 21
17.761163
 31
0.0
  0
LINE
  5
23d
100
AcDbEntity
  8
0
 62
7
100
AcDbLine
 10
6.623847
 20
17.761163
 30
0.0
 11
10.628760
 21
17.761163
 31
0.0
  0
LINE
  5
23e
100
AcDbEntity
  8
0
 62
7
100
AcDbLine
 10
10.628760
 20
17.761163
 30
0.0
 11
10.628760
 21
18.759525
 31
0.0
  0
LINE
  5
23f
100
AcDbEntity
  8
0
 62
7
100
AcDbLine
 10
10.628760
 20
18.759525
 30
0.0
 11
6.623847
 21
18.759525
 31
0.0
  0
LINE
  5
240
100
AcDbEntity
  8
0
 62
7
100
AcDbLine
 10
6.623847
 20
18.759525
 30
0.0
 11
6.623847
 21
18.759525
 31
0.0
  0
SPLINE
  5
241
100
AcDbEntity
  8
0
 62
7
100
AcDbSpline
 70
8
 71
3
 72
8
 73
4
 74
0
 40
0
 40
0
 40
0
 40
0
 40
1
 40
1
 40
1
 40
1
 10
27.196539
 20
18.574317
 30
0.0
 10
27.395338
 20
18.574317
 30
0.0
 10
27.551963
 20
18.417692
 30
0.0
 10
27.551963
 20
18.218893
 30
0.0
  0
SPLINE
  5
242
100
AcDbEntity
  8
0
 62
7
100
AcDbSpline
 70
8
 71
3
 72
8
 73
4
 74
0
 40
0
 40
0
 40
0
 40
0
 40
1
 40
1
 40
1
 40
1
 10
27.551963
 20
18.218893
 30
0.0
 10
27.551963
 20
18.020093
 30
0.0
 10
27.395338
 20
17.863469
 30
0.0
 10
27.196539
 20
17.863469
 30
0.0
  0
SPLINE
  5
243
100
AcDbEntity
  8
0
 62
7
100
AcDbSpline
 70
8
 71
3
 72
8
 73
4
 74
0
 40
0
 40
0
 40
0
 40
0
 40
1
 40
1
 40
1
 40
1
 10
27.196539
 20
17.863469
 30
0.0
 10
27.026352
 20
17.863469
 30
0.0
 10
26.887846
 20
17.978642
 30
0.0
 10
26.851256
 20
18.136431
 30
0.0
  0
SPLINE
  5
244
100
AcDbEntity
  8
0
 62
7
100
AcDbSpline
 70
8
 71
3
 72
8
 73
4
 74
0
 40
0
 40
0
 40
0
 40
0
 40
1
 40
1
 40
1
 40
1
 10
26.851256
 20
18.136431
 30
0.0
 10
26.873440
 20
18.192056
 30
0.0
 10
26.874380
 20
18.253900
 30
0.0
 10
26.853898
 20
18.310174
 30
0.0
  0
SPLINE
  5
245
100
AcDbEntity
  8
0
 62
7
100
AcDbSpline
 70
8
 71
3
 72
8
 73
4
 74
0
 40
0
 40
0
 40
0
 40
0
 40
1
 40
1
 40
1
 40
1
 10
26.853898
 20
18.310174
 30
0.0
 10
26.893630
 20
18.463290
 30
0.0
 10
27.029614
 20
18.574317
 30
0.0
 10
27.196534
 20
18.574317
 30
0.0
  0
LINE
  5
246
100
AcDbEntity
  8
0
 62
7
100
AcDbLine
 10
27.196534
 20
18.574317
 30
0.0
 11
27.196539
 21
18.574317
 31
0.0
  0
LINE
  5
247
100
AcDbEntity
  8
0
 62
7
100
AcDbLine
 10
21.437878
 20
17.129250
 30
0.0
 11
21.437878
 21
16.131329
 31
0.0
  0
LINE
  5
248
100
AcDbEntity
  8
0
 62
7
100
AcDbLine
 10
21.437878
 20
16.131329
 30
0.0
 11
22.984369
 21
16.131329
 31
0.0
  0
LINE
  5
249
100
AcDbEntity
  8
0
 62
7
100
AcDbLine
 10
22.984369
 20
16.131329
 30
0.0
 11
21.719659
 21
12.884889
 31
0.0
  0
SPLINE
  5
24a
100
AcDbEntity
  8
0
 62
7
100
AcDbSpline
 70
8
 71
3
 72
8
 73
4
 74
0
 40
0
 40
0
 40
0
 40
0
 40
1
 40
1
 40
1
 40
1
 10
21.719659
 20
12.884889
 30
0.0
 10
21.704340
 20
12.885792
 30
0.0
 10
21.689770
 20
12.889739
 30
0.0
 10
21.674239
 20
12.889739
 30
0.0
  0
SPLINE
  5
24b
100
AcDbEntity
  8
0
 62
7
100
AcDbSpline
 70
8
 71
3
 72
8
 73
4
 74
0
 40
0
 40
0
 40
0
 40
0
 40
1
 40
1
 40
1
 40
1
 10
21.674239
 20
12.889739
 30
0.0
 10
21.238971
 20
12.889739
 30
0.0
 10
20.881811
 20
12.532138
 30
0.0
 10
20.881811
 20
12.096870
 30
0.0
  0
SPLINE
  5
24c
100
AcDbEntity
  8
0
 62
7
100
AcDbSpline
 70
8
 71
3
 72
8
 73
4
 74
0
 40
0
 40
0
 40
0
 40
0
 40
1
 40
1
 40
1
 40
1
 10
20.881811
 20
12.096870
 30
0.0
 10
20.881811
 20
11.661603
 30
0.0
 10
21.238971
 20
11.304442
 30
0.0
 10
21.674239
 20
11.304442
 30
0.0
  0
SPLINE
  5
24d
100
AcDbEntity
  8
0
 62
7
100
AcDbSpline
 70
8
 71
3
 72
8
 73
4
 74
0
 40
0
 40
0
 40
0
 40
0
 40
1
 40
1
 40
1
 40
1
 10
21.674239
 20
11.304442
 30
0.0
 10
21.841594
 20
11.304442
 30
0.0
 10
21.996914
 20
11.357981
 30
0.0
 10
22.125354
 20
11.447759
 30
0.0
  0
LINE
  5
24e
100
AcDbEntity
  8
0
 62
7
100
AcDbLine
 10
22.125354
 20
11.447759
 30
0.0
 11
26.868896
 21
7.840163
 31
0.0
  0
SPLINE
  5
24f
100
AcDbEntity
  8
0
 62
7
100
AcDbSpline
 70
8
 71
3
 72
8
 73
4
 74
0
 40
0
 40
0
 40
0
 40
0
 40
1
 40
1
 40
1
 40
1
 10
26.868896
 20
7.840163
 30
0.0
 10
26.843144
 20
7.764017
 30
0.0
 10
26.826123
 20
7.684261
 30
0.0
 10
26.826123
 20
7.599834
 30
0.0
  0
SPLINE
  5
250
100
AcDbEntity
  8
0
 62
7
100
AcDbSpline
 70
8
 71
3
 72
8
 73
4
 74
0
 40
0
 40
0
 40
0
 40
0
 40
1
 40
1
 40
1
 40
1
 10
26.826123
 20
7.599834
 30
0.0
 10
26.826123
 20
7.261316
 30
0.0
 10
27.052303
 20
6.975264
 30
0.0
 10
27.359699
 20
6.877078
 30
0.0
  0
LINE
  5
251
100
AcDbEntity
  8
0
 62
7
100
AcDbLine
 10
27.359699
 20
6.877078
 30
0.0
 11
27.444366
 21
2.993876
 31
0.0
  0
LINE
  5
252
100
AcDbEntity
  8
0
 62
7
100
AcDbLine
 10
27.444366
 20
2.993876
 30
0.0
 11
12.830535
 21
1.394467
 31
0.0
  0
LINE
  5
253
100
AcDbEntity
  8
0
 62
7
100
AcDbLine
 10
12.830535
 20
1.394467
 30
0.0
 11
3.038300
 21
1.852638
 31
0.0
  0
LINE
  5
254
100
AcDbEntity
  8
0
 62
7
100
AcDbLine
 10
3.038300
 20
1.852638
 30
0.0
 11
3.038300
 21
3.724125
 31
0.0
  0
LINE
  5
255
100
AcDbEntity
  8
0
 62
7
100
AcDbLine
 10
3.038300
 20
3.724125
 30
0.0
 11
3.032567
 21
3.724125
 31
0.0
  0
LINE
  5
256
100
AcDbEntity
  8
0
 62
7
100
AcDbLine
 10
3.032567
 20
3.724125
 30
0.0
 11
4.624919
 21
7.045088
 31
0.0
  0
LINE
  5
257
100
AcDbEntity
  8
0
 62
7
100
AcDbLine
 10
4.624919
 20
7.045088
 30
0.0
 11
4.735603
 21
7.045088
 31
0.0
  0
LINE
  5
258
100
AcDbEntity
  8
0
 62
7
100
AcDbLine
 10
4.735603
 20
7.045088
 30
0.0
 11
5.358697
 21
4.835817
 31
0.0
  0
LINE
  5
259
100
AcDbEntity
  8
0
 62
7
100
AcDbLine
 10
5.358697
 20
4.835817
 30
0.0
 11
5.064569
 21
4.835817
 31
0.0
  0
LINE
  5
25a
100
AcDbEntity
  8
0
 62
7
100
AcDbLine
 10
5.064569
 20
4.835817
 30
0.0
 11
5.064569
 21
4.632529
 31
0.0
  0
LINE
  5
25b
100
AcDbEntity
  8
0
 62
7
100
AcDbLine
 10
5.064569
 20
4.632529
 30
0.0
 11
5.064569
 21
3.311816
 31
0.0
  0
LINE
  5
25c
100
AcDbEntity
  8
0
 62
7
100
AcDbLine
 10
5.064569
 20
3.311816
 30
0.0
 11
6.588570
 21
3.311816
 31
0.0
  0
LINE
  5
25d
100
AcDbEntity
  8
0
 62
7
100
AcDbLine
 10
6.588570
 20
3.311816
 30
0.0
 11
6.588570
 21
4.835817
 31
0.0
  0
LINE
  5
25e
100
AcDbEntity
  8
0
 62
7
100
AcDbLine
 10
6.588570
 20
4.835817
 30
0.0
 11
5.864933
 21
4.835817
 31
0.0
  0
LINE
  5
25f
100
AcDbEntity
  8
0
 62
7
100
AcDbLine
 10
5.864933
 20
4.835817
 30
0.0
 11
5.242280
 21
7.045088
 31
0.0
  0
LINE
  5
260
100
AcDbEntity
  8
0
 62
7
100
AcDbLine
 10
5.242280
 20
7.045088
 30
0.0
 11
5.587121
 21
7.045088
 31
0.0
  0
LINE
  5
261
100
AcDbEntity
  8
0
 62
7
100
AcDbLine
 10
5.587121
 20
7.045088
 30
0.0
 11
5.587121
 21
8.711523
 31
0.0
  0
LINE
  5
262
100
AcDbEntity
  8
0
 62
7
100
AcDbLine
 10
5.587121
 20
8.711523
 30
0.0
 11
4.869218
 21
8.711523
 31
0.0
  0
LINE
  5
263
100
AcDbEntity
  8
0
 62
7
100
AcDbLine
 10
4.869218
 20
8.711523
 30
0.0
 11
4.421630
 21
11.541245
 31
0.0
  0
LINE
  5
264
100
AcDbEntity
  8
0
 62
7
100
AcDbLine
 10
4.421630
 20
11.541245
 30
0.0
 11
4.816301
 21
11.541245
 31
0.0
  0
LINE
  5
265
100
AcDbEntity
  8
0
 62
7
100
AcDbLine
 10
4.816301
 20
11.541245
 30
0.0
 11
4.816301
 21
13.065687
 31
0.0
  0
LINE
  5
266
100
AcDbEntity
  8
0
 62
7
100
AcDbLine
 10
4.816301
 20
13.065687
 30
0.0
 11
3.292300
 21
13.065687
 31
0.0
  0
LINE
  5
267
100
AcDbEntity
  8
0
 62
7
100
AcDbLine
 10
3.292300
 20
13.065687
 30
0.0
 11
3.292300
 21
12.861958
 31
0.0
  0
LINE
  5
268
100
AcDbEntity
  8
0
 62
7
100
AcDbLine
 10
3.292300
 20
12.861958
 30
0.0
 11
3.292300
 21
11.541245
 31
0.0
  0
LINE
  5
269
100
AcDbEntity
  8
0
 62
7
100
AcDbLine
 10
3.292300
 20
11.541245
 30
0.0
 11
3.928182
 21
11.541245
 31
0.0
  0
LINE
  5
26a
100
AcDbEntity
  8
0
 62
7
100
AcDbLine
 10
3.928182
 20
11.541245
 30
0.0
 11
4.375769
 21
8.711523
 31
0.0
  0
LINE
  5
26b
100
AcDbEntity
  8
0
 62
7
100
AcDbLine
 10
4.375769
 20
8.711523
 30
0.0
 11
3.920686
 21
8.711523
 31
0.0
  0
LINE
  5
26c
100
AcDbEntity
  8
0
 62
7
100
AcDbLine
 10
3.920686
 20
8.711523
 30
0.0
 11
3.920686
 21
8.508235
 31
0.0
  0
LINE
  5
26d
100
AcDbEntity
  8
0
 62
7
100
AcDbLine
 10
3.920686
 20
8.508235
 30
0.0
 11
3.920686
 21
7.045088
 31
0.0
  0
LINE
  5
26e
100
AcDbEntity
  8
0
 62
7
100
AcDbLine
 10
3.920686
 20
7.045088
 30
0.0
 11
4.083846
 21
7.045088
 31
0.0
  0
LINE
  5
26f
100
AcDbEntity
  8
0
 62
7
100
AcDbLine
 10
4.083846
 20
7.045088
 30
0.0
 11
2.491935
 21
3.724125
 31
0.0
  0
LINE
  5
270
100
AcDbEntity
  8
0
 62
7
100
AcDbLine
 10
2.491935
 20
3.724125
 30
0.0
 11
1.187097
 21
3.724125
 31
0.0
  0
LINE
  5
271
100
AcDbEntity
  8
0
 62
7
100
AcDbLine
 10
1.187097
 20
3.724125
 30
0.0
 11
1.187097
 21
1.014790
 31
0.0
  0
LINE
  5
272
100
AcDbEntity
  8
0
 62
7
100
AcDbLine
 10
1.187097
 20
1.014790
 30
0.0
 11
3.038300
 21
1.014790
 31
0.0
  0
LINE
  5
273
100
AcDbEntity
  8
0
 62
7
100
AcDbLine
 10
3.038300
 20
1.014790
 30
0.0
 11
3.038300
 21
1.364922
 31
0.0
  0
LINE
  5
274
100
AcDbEntity
  8
0
 62
7
100
AcDbLine
 10
3.038300
 20
1.364922
 30
0.0
 11
12.792171
 21
0.908516
 31
0.0
  0
SPLINE
  5
275
100
AcDbEntity
  8
0
 62
7
100
AcDbSpline
 70
8
 71
3
 72
8
 73
4
 74
0
 40
0
 40
0
 40
0
 40
0
 40
1
 40
1
 40
1
 40
1
 10
12.792171
 20
0.908516
 30
0.0
 10
12.809516
 20
0.905749
 30
0.0
 10
12.827110
 20
0.904863
 30
0.0
 10
12.844646
 20
0.905875
 30
0.0
  0
SPLINE
  5
276
100
AcDbEntity
  8
0
 62
7
100
AcDbSpline
 70
8
 71
3
 72
8
 73
4
 74
0
 40
0
 40
0
 40
0
 40
0
 40
1
 40
1
 40
1
 40
1
 10
12.844646
 20
0.905875
 30
0.0
 10
12.864392
 20
0.905697
 30
0.0
 10
12.884086
 20
0.907919
 30
0.0
 10
12.903296
 20
0.912490
 30
0.0
  0
LINE
  5
277
100
AcDbEntity
  8
0
 62
7
100
AcDbLine
 10
12.903296
 20
0.912490
 30
0.0
 11
27.705862
 21
2.532180
 31
0.0
  0
SPLINE
  5
278
100
AcDbEntity
  8
0
 62
7
100
AcDbSpline
 70
8
 71
3
 72
8
 73
4
 74
0
 40
0
 40
0
 40
0
 40
0
 40
1
 40
1
 40
1
 40
1
 10
27.705862
 20
2.532180
 30
0.0
 10
27.710427
 20
2.532504
 30
0.0
 10
27.714982
 20
2.532955
 30
0.0
 10
27.719522
 20
2.533535
 30
0.0
  0
SPLINE
  5
279
100
AcDbEntity
  8
0
 62
7
100
AcDbSpline
 70
8
 71
3
 72
8
 73
4
 74
0
 40
0
 40
0
 40
0
 40
0
 40
1
 40
1
 40
1
 40
1
 10
27.719522
 20
2.533535
 30
0.0
 10
27.723061
 20
2.533909
 30
0.0
 10
27.726591
 20
2.534361
 30
0.0
 10
27.730111
 20
2.534890
 30
0.0
  0
SPLINE
  5
27a
100
AcDbEntity
  8
0
 62
7
100
AcDbSpline
 70
8
 71
3
 72
8
 73
4
 74
0
 40
0
 40
0
 40
0
 40
0
 40
1
 40
1
 40
1
 40
1
 10
27.730111
 20
2.534890
 30
0.0
 10
27.731287
 20
2.535182
 30
0.0
 10
27.732461
 20
2.535483
 30
0.0
 10
27.733633
 20
2.535793
 30
0.0
  0
SPLINE
  5
27b
100
AcDbEntity
  8
0
 62
7
100
AcDbSpline
 70
8
 71
3
 72
8
 73
4
 74
0
 40
0
 40
0
 40
0
 40
0
 40
1
 40
1
 40
1
 40
1
 10
27.733633
 20
2.535793
 30
0.0
 10
27.740444
 20
2.536830
 30
0.0
 10
27.747208
 20
2.538156
 30
0.0
 10
27.753908
 20
2.539766
 30
0.0
  0
SPLINE
  5
27c
100
AcDbEntity
  8
0
 62
7
100
AcDbSpline
 70
8
 71
3
 72
8
 73
4
 74
0
 40
0
 40
0
 40
0
 40
0
 40
1
 40
1
 40
1
 40
1
 10
27.753908
 20
2.539766
 30
0.0
 10
27.754209
 20
2.539916
 30
0.0
 10
27.754510
 20
2.540067
 30
0.0
 10
27.754811
 20
2.540218
 30
0.0
  0
SPLINE
  5
27d
100
AcDbEntity
  8
0
 62
7
100
AcDbSpline
 70
8
 71
3
 72
8
 73
4
 74
0
 40
0
 40
0
 40
0
 40
0
 40
1
 40
1
 40
1
 40
1
 10
27.754811
 20
2.540218
 30
0.0
 10
27.786113
 20
2.548315
 30
0.0
 10
27.815493
 20
2.562555
 30
0.0
 10
27.841241
 20
2.582111
 30
0.0
  0
SPLINE
  5
27e
100
AcDbEntity
  8
0
 62
7
100
AcDbSpline
 70
8
 71
3
 72
8
 73
4
 74
0
 40
0
 40
0
 40
0
 40
0
 40
1
 40
1
 40
1
 40
1
 10
27.841241
 20
2.582111
 30
0.0
 10
27.841391
 20
2.582111
 30
0.0
 10
27.841542
 20
2.582111
 30
0.0
 10
27.841692
 20
2.582111
 30
0.0
  0
SPLINE
  5
27f
100
AcDbEntity
  8
0
 62
7
100
AcDbSpline
 70
8
 71
3
 72
8
 73
4
 74
0
 40
0
 40
0
 40
0
 40
0
 40
1
 40
1
 40
1
 40
1
 10
27.841692
 20
2.582111
 30
0.0
 10
27.847968
 20
2.586962
 30
0.0
 10
27.854004
 20
2.592115
 30
0.0
 10
27.859777
 20
2.597554
 30
0.0
  0
SPLINE
  5
280
100
AcDbEntity
  8
0
 62
7
100
AcDbSpline
 70
8
 71
3
 72
8
 73
4
 74
0
 40
0
 40
0
 40
0
 40
0
 40
1
 40
1
 40
1
 40
1
 10
27.859777
 20
2.597554
 30
0.0
 10
27.860079
 20
2.597854
 30
0.0
 10
27.860380
 20
2.598156
 30
0.0
 10
27.860680
 20
2.598457
 30
0.0
  0
SPLINE
  5
281
100
AcDbEntity
  8
0
 62
7
100
AcDbSpline
 70
8
 71
3
 72
8
 73
4
 74
0
 40
0
 40
0
 40
0
 40
0
 40
1
 40
1
 40
1
 40
1
 10
27.860680
 20
2.598457
 30
0.0
 10
27.913744
 20
2.648355
 30
0.0
 10
27.941726
 20
2.719360
 30
0.0
 10
27.936968
 20
2.792044
 30
0.0
  0
LINE
  5
282
100
AcDbEntity
  8
0
 62
7
100
AcDbLine
 10
27.936968
 20
2.792044
 30
0.0
 11
27.847009
 21
6.886915
 31
0.0
  0
SPLINE
  5
283
100
AcDbEntity
  8
0
 62
7
100
AcDbSpline
 70
8
 71
3
 72
8
 73
4
 74
0
 40
0
 40
0
 40
0
 40
0
 40
1
 40
1
 40
1
 40
1
 10
27.847009
 20
6.886915
 30
0.0
 10
28.138507
 20
6.994089
 30
0.0
 10
28.349717
 20
7.272860
 30
0.0
 10
28.349717
 20
7.599969
 30
0.0
  0
SPLINE
  5
284
100
AcDbEntity
  8
0
 62
7
100
AcDbSpline
 70
8
 71
3
 72
8
 73
4
 74
0
 40
0
 40
0
 40
0
 40
0
 40
1
 40
1
 40
1
 40
1
 10
28.349717
 20
7.599969
 30
0.0
 10
28.349717
 20
7.974395
 30
0.0
 10
28.074119
 20
8.287117
 30
0.0
 10
27.716483
 20
8.349181
 30
0.0
  0
LINE
  5
285
100
AcDbEntity
  8
0
 62
7
100
AcDbLine
 10
27.716483
 20
8.349181
 30
0.0
 11
27.548912
 21
9.420302
 31
0.0
  0
SPLINE
  5
286
100
AcDbEntity
  8
0
 62
7
100
AcDbSpline
 70
8
 71
3
 72
8
 73
4
 74
0
 40
0
 40
0
 40
0
 40
0
 40
1
 40
1
 40
1
 40
1
 10
27.548912
 20
9.420302
 30
0.0
 10
27.790815
 20
9.548649
 30
0.0
 10
27.958575
 20
9.800572
 30
0.0
 10
27.958575
 20
10.091463
 30
0.0
  0
SPLINE
  5
287
100
AcDbEntity
  8
0
 62
7
100
AcDbSpline
 70
8
 71
3
 72
8
 73
4
 74
0
 40
0
 40
0
 40
0
 40
0
 40
1
 40
1
 40
1
 40
1
 10
27.958575
 20
10.091463
 30
0.0
 10
27.958575
 20
10.307168
 30
0.0
 10
27.866327
 20
10.501427
 30
0.0
 10
27.720449
 20
10.640473
 30
0.0
  0
LINE
  5
288
100
AcDbEntity
  8
0
 62
7
100
AcDbLine
 10
27.720449
 20
10.640473
 30
0.0
 11
29.425691
 21
14.312011
 31
0.0
  0
SPLINE
  5
289
100
AcDbEntity
  8
0
 62
7
100
AcDbSpline
 70
8
 71
3
 72
8
 73
4
 74
0
 40
0
 40
0
 40
0
 40
0
 40
1
 40
1
 40
1
 40
1
 10
29.425691
 20
14.312011
 30
0.0
 10
29.452839
 20
14.309039
 30
0.0
 10
29.479379
 20
14.303632
 30
0.0
 10
29.507272
 20
14.303632
 30
0.0
  0
SPLINE
  5
28a
100
AcDbEntity
  8
0
 62
7
100
AcDbSpline
 70
8
 71
3
 72
8
 73
4
 74
0
 40
0
 40
0
 40
0
 40
0
 40
1
 40
1
 40
1
 40
1
 10
29.507272
 20
14.303632
 30
0.0
 10
29.925708
 20
14.303632
 30
0.0
 10
30.268830
 20
14.647199
 30
0.0
 10
30.268830
 20
15.065633
 30
0.0
  0
SPLINE
  5
28b
100
AcDbEntity
  8
0
 62
7
100
AcDbSpline
 70
8
 71
3
 72
8
 73
4
 74
0
 40
0
 40
0
 40
0
 40
0
 40
1
 40
1
 40
1
 40
1
 10
30.268830
 20
15.065633
 30
0.0
 10
30.268830
 20
15.484067
 30
0.0
 10
29.925708
 20
15.827633
 30
0.0
 10
29.507272
 20
15.827633
 30
0.0
  0
SPLINE
  5
28c
100
AcDbEntity
  8
0
 62
7
100
AcDbSpline
 70
8
 71
3
 72
8
 73
4
 74
0
 40
0
 40
0
 40
0
 40
0
 40
1
 40
1
 40
1
 40
1
 10
29.507272
 20
15.827633
 30
0.0
 10
29.088838
 20
15.827633
 30
0.0
 10
28.744829
 20
15.484067
 30
0.0
 10
28.744829
 20
15.065633
 30
0.0
  0
SPLINE
  5
28d
100
AcDbEntity
  8
0
 62
7
100
AcDbSpline
 70
8
 71
3
 72
8
 73
4
 74
0
 40
0
 40
0
 40
0
 40
0
 40
1
 40
1
 40
1
 40
1
 10
28.744829
 20
15.065633
 30
0.0
 10
28.744829
 20
14.849930
 30
0.0
 10
28.837079
 20
14.655227
 30
0.0
 10
28.982954
 20
14.516181
 30
0.0
  0
LINE
  5
28e
100
AcDbEntity
  8
0
 62
7
100
AcDbLine
 10
28.982954
 20
14.516181
 30
0.0
 11
27.277715
 21
10.844644
 31
0.0
  0
SPLINE
  5
28f
100
AcDbEntity
  8
0
 62
7
100
AcDbSpline
 70
8
 71
3
 72
8
 73
4
 74
0
 40
0
 40
0
 40
0
 40
0
 40
1
 40
1
 40
1
 40
1
 10
27.277715
 20
10.844644
 30
0.0
 10
27.250630
 20
10.847601
 30
0.0
 10
27.224395
 20
10.853022
 30
0.0
 10
27.196575
 20
10.853022
 30
0.0
  0
SPLINE
  5
290
100
AcDbEntity
  8
0
 62
7
100
AcDbSpline
 70
8
 71
3
 72
8
 73
4
 74
0
 40
0
 40
0
 40
0
 40
0
 40
1
 40
1
 40
1
 40
1
 10
27.196575
 20
10.853022
 30
0.0
 10
26.778140
 20
10.853022
 30
0.0
 10
26.434574
 20
10.509897
 30
0.0
 10
26.434574
 20
10.091463
 30
0.0
  0
SPLINE
  5
291
100
AcDbEntity
  8
0
 62
7
100
AcDbSpline
 70
8
 71
3
 72
8
 73
4
 74
0
 40
0
 40
0
 40
0
 40
0
 40
1
 40
1
 40
1
 40
1
 10
26.434574
 20
10.091463
 30
0.0
 10
26.434574
 20
9.717200
 30
0.0
 10
26.709960
 20
9.404507
 30
0.0
 10
27.067371
 20
9.342251
 30
0.0
  0
LINE
  5
292
100
AcDbEntity
  8
0
 62
7
100
AcDbLine
 10
27.067371
 20
9.342251
 30
0.0
 11
27.235381
 21
8.271128
 31
0.0
  0
SPLINE
  5
293
100
AcDbEntity
  8
0
 62
7
100
AcDbSpline
 70
8
 71
3
 72
8
 73
4
 74
0
 40
0
 40
0
 40
0
 40
0
 40
1
 40
1
 40
1
 40
1
 10
27.235381
 20
8.271128
 30
0.0
 10
27.210474
 20
8.257897
 30
0.0
 10
27.184936
 20
8.245935
 30
0.0
 10
27.161737
 20
8.230117
 30
0.0
  0
LINE
  5
294
100
AcDbEntity
  8
0
 62
7
100
AcDbLine
 10
27.161737
 20
8.230117
 30
0.0
 11
22.419043
 21
11.836708
 31
0.0
  0
SPLINE
  5
295
100
AcDbEntity
  8
0
 62
7
100
AcDbSpline
 70
8
 71
3
 72
8
 73
4
 74
0
 40
0
 40
0
 40
0
 40
0
 40
1
 40
1
 40
1
 40
1
 10
22.419043
 20
11.836708
 30
0.0
 10
22.448067
 20
11.918772
 30
0.0
 10
22.467109
 20
12.005324
 30
0.0
 10
22.467109
 20
12.096882
 30
0.0
  0
SPLINE
  5
296
100
AcDbEntity
  8
0
 62
7
100
AcDbSpline
 70
8
 71
3
 72
8
 73
4
 74
0
 40
0
 40
0
 40
0
 40
0
 40
1
 40
1
 40
1
 40
1
 10
22.467109
 20
12.096882
 30
0.0
 10
22.467109
 20
12.342507
 30
0.0
 10
22.350807
 20
12.560511
 30
0.0
 10
22.173421
 20
12.706306
 30
0.0
  0
LINE
  5
297
100
AcDbEntity
  8
0
 62
7
100
AcDbLine
 10
22.173421
 20
12.706306
 30
0.0
 11
23.507804
 21
16.131339
 31
0.0
  0
LINE
  5
298
100
AcDbEntity
  8
0
 62
7
100
AcDbLine
 10
23.507804
 20
16.131339
 30
0.0
 11
25.442790
 21
16.131339
 31
0.0
  0
LINE
  5
299
100
AcDbEntity
  8
0
 62
7
100
AcDbLine
 10
25.442790
 20
16.131339
 30
0.0
 11
25.442790
 21
17.129260
 31
0.0
  0
LINE
  5
29a
100
AcDbEntity
  8
0
 62
7
100
AcDbLine
 10
25.442790
 20
17.129260
 30
0.0
 11
21.437879
 21
17.129260
 31
0.0
  0
LINE
  5
29b
100
AcDbEntity
  8
0
 62
7
100
AcDbLine
 10
21.437879
 20
17.129260
 30
0.0
 11
21.437878
 21
17.129250
 31
0.0
  0
SPLINE
  5
29c
100
AcDbEntity
  8
0
 62
7
100
AcDbSpline
 70
8
 71
3
 72
8
 73
4
 74
0
 40
0
 40
0
 40
0
 40
0
 40
1
 40
1
 40
1
 40
1
 10
4.121769
 20
16.768093
 30
0.0
 10
4.284258
 20
16.768093
 30
0.0
 10
4.417207
 20
16.662660
 30
0.0
 10
4.460877
 20
16.515857
 30
0.0
  0
SPLINE
  5
29d
100
AcDbEntity
  8
0
 62
7
100
AcDbSpline
 70
8
 71
3
 72
8
 73
4
 74
0
 40
0
 40
0
 40
0
 40
0
 40
1
 40
1
 40
1
 40
1
 10
4.460877
 20
16.515857
 30
0.0
 10
4.441214
 20
16.457490
 30
0.0
 10
4.444365
 20
16.393844
 30
0.0
 10
4.469696
 20
16.337704
 30
0.0
  0
SPLINE
  5
29e
100
AcDbEntity
  8
0
 62
7
100
AcDbSpline
 70
8
 71
3
 72
8
 73
4
 74
0
 40
0
 40
0
 40
0
 40
0
 40
1
 40
1
 40
1
 40
1
 10
4.469696
 20
16.337704
 30
0.0
 10
4.435941
 20
16.175932
 30
0.0
 10
4.294736
 20
16.056805
 30
0.0
 10
4.121768
 20
16.056805
 30
0.0
  0
SPLINE
  5
29f
100
AcDbEntity
  8
0
 62
7
100
AcDbSpline
 70
8
 71
3
 72
8
 73
4
 74
0
 40
0
 40
0
 40
0
 40
0
 40
1
 40
1
 40
1
 40
1
 10
4.121768
 20
16.056805
 30
0.0
 10
3.922969
 20
16.056805
 30
0.0
 10
3.766345
 20
16.213870
 30
0.0
 10
3.766345
 20
16.412669
 30
0.0
  0
SPLINE
  5
2a0
100
AcDbEntity
  8
0
 62
7
100
AcDbSpline
 70
8
 71
3
 72
8
 73
4
 74
0
 40
0
 40
0
 40
0
 40
0
 40
1
 40
1
 40
1
 40
1
 10
3.766345
 20
16.412669
 30
0.0
 10
3.766345
 20
16.611469
 30
0.0
 10
3.922969
 20
16.768093
 30
0.0
 10
4.121768
 20
16.768093
 30
0.0
  0
LINE
  5
2a1
100
AcDbEntity
  8
0
 62
7
100
AcDbLine
 10
4.121768
 20
16.768093
 30
0.0
 11
4.121769
 21
16.768093
 31
0.0
  0
SPLINE
  5
2a2
100
AcDbEntity
  8
0
 62
7
100
AcDbSpline
 70
8
 71
3
 72
8
 73
4
 74
0
 40
0
 40
0
 40
0
 40
0
 40
1
 40
1
 40
1
 40
1
 10
29.507236
 20
15.420922
 30
0.0
 10
29.706035
 20
15.420922
 30
0.0
 10
29.862660
 20
15.264298
 30
0.0
 10
29.862658
 20
15.065498
 30
0.0
  0
SPLINE
  5
2a3
100
AcDbEntity
  8
0
 62
7
100
AcDbSpline
 70
8
 71
3
 72
8
 73
4
 74
0
 40
0
 40
0
 40
0
 40
0
 40
1
 40
1
 40
1
 40
1
 10
29.862658
 20
15.065498
 30
0.0
 10
29.862658
 20
14.866699
 30
0.0
 10
29.706035
 20
14.709634
 30
0.0
 10
29.507236
 20
14.709634
 30
0.0
  0
SPLINE
  5
2a4
100
AcDbEntity
  8
0
 62
7
100
AcDbSpline
 70
8
 71
3
 72
8
 73
4
 74
0
 40
0
 40
0
 40
0
 40
0
 40
1
 40
1
 40
1
 40
1
 10
29.507236
 20
14.709634
 30
0.0
 10
29.480752
 20
14.709634
 30
0.0
 10
29.455225
 20
14.713160
 30
0.0
 10
29.430505
 20
14.718452
 30
0.0
  0
SPLINE
  5
2a5
100
AcDbEntity
  8
0
 62
7
100
AcDbSpline
 70
8
 71
3
 72
8
 73
4
 74
0
 40
0
 40
0
 40
0
 40
0
 40
1
 40
1
 40
1
 40
1
 10
29.430505
 20
14.718452
 30
0.0
 10
29.392082
 20
14.754847
 30
0.0
 10
29.342863
 20
14.777754
 30
0.0
 10
29.290277
 20
14.783716
 30
0.0
  0
SPLINE
  5
2a6
100
AcDbEntity
  8
0
 62
7
100
AcDbSpline
 70
8
 71
3
 72
8
 73
4
 74
0
 40
0
 40
0
 40
0
 40
0
 40
1
 40
1
 40
1
 40
1
 10
29.290277
 20
14.783716
 30
0.0
 10
29.205989
 20
14.848268
 30
0.0
 10
29.151369
 20
14.949226
 30
0.0
 10
29.151369
 20
15.065498
 30
0.0
  0
SPLINE
  5
2a7
100
AcDbEntity
  8
0
 62
7
100
AcDbSpline
 70
8
 71
3
 72
8
 73
4
 74
0
 40
0
 40
0
 40
0
 40
0
 40
1
 40
1
 40
1
 40
1
 10
29.151369
 20
15.065498
 30
0.0
 10
29.151369
 20
15.264297
 30
0.0
 10
29.308438
 20
15.420922
 30
0.0
 10
29.507236
 20
15.420922
 30
0.0
  0
LINE
  5
2a8
100
AcDbEntity
  8
0
 62
7
100
AcDbLine
 10
29.507236
 20
15.420922
 30
0.0
 11
29.507236
 21
15.420922
 31
0.0
  0
SPLINE
  5
2a9
100
AcDbEntity
  8
0
 62
7
100
AcDbSpline
 70
8
 71
3
 72
8
 73
4
 74
0
 40
0
 40
0
 40
0
 40
0
 40
1
 40
1
 40
1
 40
1
 10
11.514233
 20
12.889750
 30
0.0
 10
11.078966
 20
12.889750
 30
0.0
 10
10.721806
 20
12.532150
 30
0.0
 10
10.721806
 20
12.096882
 30
0.0
  0
SPLINE
  5
2aa
100
AcDbEntity
  8
0
 62
7
100
AcDbSpline
 70
8
 71
3
 72
8
 73
4
 74
0
 40
0
 40
0
 40
0
 40
0
 40
1
 40
1
 40
1
 40
1
 10
10.721806
 20
12.096882
 30
0.0
 10
10.721806
 20
11.661614
 30
0.0
 10
11.078966
 20
11.304454
 30
0.0
 10
11.514233
 20
11.304454
 30
0.0
  0
SPLINE
  5
2ab
100
AcDbEntity
  8
0
 62
7
100
AcDbSpline
 70
8
 71
3
 72
8
 73
4
 74
0
 40
0
 40
0
 40
0
 40
0
 40
1
 40
1
 40
1
 40
1
 10
11.514233
 20
11.304454
 30
0.0
 10
11.949501
 20
11.304454
 30
0.0
 10
12.307102
 20
11.661614
 30
0.0
 10
12.307102
 20
12.096882
 30
0.0
  0
SPLINE
  5
2ac
100
AcDbEntity
  8
0
 62
7
100
AcDbSpline
 70
8
 71
3
 72
8
 73
4
 74
0
 40
0
 40
0
 40
0
 40
0
 40
1
 40
1
 40
1
 40
1
 10
12.307102
 20
12.096882
 30
0.0
 10
12.307102
 20
12.532150
 30
0.0
 10
11.949501
 20
12.889750
 30
0.0
 10
11.514233
 20
12.889750
 30
0.0
  0
LINE
  5
2ad
100
AcDbEntity
  8
0
 62
7
100
AcDbLine
 10
11.514233
 20
12.889750
 30
0.0
 11
11.514233
 21
12.889750
 31
0.0
  0
SPLINE
  5
2ae
100
AcDbEntity
  8
0
 62
7
100
AcDbSpline
 70
8
 71
3
 72
8
 73
4
 74
0
 40
0
 40
0
 40
0
 40
0
 40
1
 40
1
 40
1
 40
1
 10
19.642680
 20
12.889750
 30
0.0
 10
19.207412
 20
12.889750
 30
0.0
 10
18.849811
 20
12.532150
 30
0.0
 10
18.849811
 20
12.096882
 30
0.0
  0
SPLINE
  5
2af
100
AcDbEntity
  8
0
 62
7
100
AcDbSpline
 70
8
 71
3
 72
8
 73
4
 74
0
 40
0
 40
0
 40
0
 40
0
 40
1
 40
1
 40
1
 40
1
 10
18.849811
 20
12.096882
 30
0.0
 10
18.849811
 20
11.661614
 30
0.0
 10
19.207412
 20
11.304454
 30
0.0
 10
19.642680
 20
11.304454
 30
0.0
  0
SPLINE
  5
2b0
100
AcDbEntity
  8
0
 62
7
100
AcDbSpline
 70
8
 71
3
 72
8
 73
4
 74
0
 40
0
 40
0
 40
0
 40
0
 40
1
 40
1
 40
1
 40
1
 10
19.642680
 20
11.304454
 30
0.0
 10
20.077948
 20
11.304454
 30
0.0
 10
20.434666
 20
11.661614
 30
0.0
 10
20.434666
 20
12.096882
 30
0.0
  0
SPLINE
  5
2b1
100
AcDbEntity
  8
0
 62
7
100
AcDbSpline
 70
8
 71
3
 72
8
 73
4
 74
0
 40
0
 40
0
 40
0
 40
0
 40
1
 40
1
 40
1
 40
1
 10
20.434666
 20
12.096882
 30
0.0
 10
20.434666
 20
12.532150
 30
0.0
 10
20.077948
 20
12.889750
 30
0.0
 10
19.642680
 20
12.889750
 30
0.0
  0
LINE
  5
2b2
100
AcDbEntity
  8
0
 62
7
100
AcDbLine
 10
19.642680
 20
12.889750
 30
0.0
 11
19.642680
 21
12.889750
 31
0.0
  0
SPLINE
  5
2b3
100
AcDbEntity
  8
0
 62
7
100
AcDbSpline
 70
8
 71
3
 72
8
 73
4
 74
0
 40
0
 40
0
 40
0
 40
0
 40
1
 40
1
 40
1
 40
1
 10
4.054301
 20
12.659122
 30
0.0
 10
4.253101
 20
12.659122
 30
0.0
 10
4.409725
 20
12.502497
 30
0.0
 10
4.409725
 20
12.303698
 30
0.0
  0
SPLINE
  5
2b4
100
AcDbEntity
  8
0
 62
7
100
AcDbSpline
 70
8
 71
3
 72
8
 73
4
 74
0
 40
0
 40
0
 40
0
 40
0
 40
1
 40
1
 40
1
 40
1
 10
4.409725
 20
12.303698
 30
0.0
 10
4.409725
 20
12.151481
 30
0.0
 10
4.317573
 20
12.024099
 30
0.0
 10
4.185270
 20
11.972528
 30
0.0
  0
SPLINE
  5
2b5
100
AcDbEntity
  8
0
 62
7
100
AcDbSpline
 70
8
 71
3
 72
8
 73
4
 74
0
 40
0
 40
0
 40
0
 40
0
 40
1
 40
1
 40
1
 40
1
 10
4.185270
 20
11.972528
 30
0.0
 10
4.174059
 20
11.974643
 30
0.0
 10
4.162712
 20
11.975970
 30
0.0
 10
4.151315
 20
11.976497
 30
0.0
  0
SPLINE
  5
2b6
100
AcDbEntity
  8
0
 62
7
100
AcDbSpline
 70
8
 71
3
 72
8
 73
4
 74
0
 40
0
 40
0
 40
0
 40
0
 40
1
 40
1
 40
1
 40
1
 10
4.151315
 20
11.976497
 30
0.0
 10
4.110583
 20
11.977470
 30
0.0
 10
4.070255
 20
11.968222
 30
0.0
 10
4.034017
 20
11.949597
 30
0.0
  0
SPLINE
  5
2b7
100
AcDbEntity
  8
0
 62
7
100
AcDbSpline
 70
8
 71
3
 72
8
 73
4
 74
0
 40
0
 40
0
 40
0
 40
0
 40
1
 40
1
 40
1
 40
1
 10
4.034017
 20
11.949597
 30
0.0
 10
3.845159
 20
11.960091
 30
0.0
 10
3.698436
 20
12.111862
 30
0.0
 10
3.698436
 20
12.303698
 30
0.0
  0
SPLINE
  5
2b8
100
AcDbEntity
  8
0
 62
7
100
AcDbSpline
 70
8
 71
3
 72
8
 73
4
 74
0
 40
0
 40
0
 40
0
 40
0
 40
1
 40
1
 40
1
 40
1
 10
3.698436
 20
12.303698
 30
0.0
 10
3.698436
 20
12.502498
 30
0.0
 10
3.855502
 20
12.659122
 30
0.0
 10
4.054301
 20
12.659122
 30
0.0
  0
LINE
  5
2b9
100
AcDbEntity
  8
0
 62
7
100
AcDbLine
 10
4.054301
 20
12.659122
 30
0.0
 11
4.054301
 21
12.659122
 31
0.0
  0
LINE
  5
2ba
100
AcDbEntity
  8
0
 62
7
100
AcDbLine
 10
6.032063
 20
12.653829
 30
0.0
 11
5.915205
 21
12.455392
 31
0.0
  0
SPLINE
  5
2bb
100
AcDbEntity
  8
0
 62
7
100
AcDbSpline
 70
8
 71
3
 72
8
 73
4
 74
0
 40
0
 40
0
 40
0
 40
0
 40
1
 40
1
 40
1
 40
1
 10
5.915205
 20
12.455392
 30
0.0
 10
5.873822
 20
12.401817
 30
0.0
 10
5.856571
 20
12.333451
 30
0.0
 10
5.867580
 20
12.266655
 30
0.0
  0
LINE
  5
2bc
100
AcDbEntity
  8
0
 62
7
100
AcDbLine
 10
5.867580
 20
12.266655
 30
0.0
 11
5.909032
 21
11.995457
 31
0.0
  0
SPLINE
  5
2bd
100
AcDbEntity
  8
0
 62
7
100
AcDbSpline
 70
8
 71
3
 72
8
 73
4
 74
0
 40
0
 40
0
 40
0
 40
0
 40
1
 40
1
 40
1
 40
1
 10
5.909032
 20
11.995457
 30
0.0
 10
5.802187
 20
12.056444
 30
0.0
 10
5.730438
 20
12.170162
 30
0.0
 10
5.730438
 20
12.303697
 30
0.0
  0
SPLINE
  5
2be
100
AcDbEntity
  8
0
 62
7
100
AcDbSpline
 70
8
 71
3
 72
8
 73
4
 74
0
 40
0
 40
0
 40
0
 40
0
 40
1
 40
1
 40
1
 40
1
 10
5.730438
 20
12.303697
 30
0.0
 10
5.730438
 20
12.483859
 30
0.0
 10
5.859877
 20
12.628110
 30
0.0
 10
6.032063
 20
12.653829
 30
0.0
  0
LINE
  5
2bf
100
AcDbEntity
  8
0
 62
7
100
AcDbLine
 10
6.032063
 20
12.653829
 30
0.0
 11
6.032063
 21
12.653829
 31
0.0
  0
SPLINE
  5
2c0
100
AcDbEntity
  8
0
 62
7
100
AcDbSpline
 70
8
 71
3
 72
8
 73
4
 74
0
 40
0
 40
0
 40
0
 40
0
 40
1
 40
1
 40
1
 40
1
 10
11.514233
 20
12.482732
 30
0.0
 10
11.729866
 20
12.482732
 30
0.0
 10
11.900525
 20
12.312514
 30
0.0
 10
11.900525
 20
12.096881
 30
0.0
  0
SPLINE
  5
2c1
100
AcDbEntity
  8
0
 62
7
100
AcDbSpline
 70
8
 71
3
 72
8
 73
4
 74
0
 40
0
 40
0
 40
0
 40
0
 40
1
 40
1
 40
1
 40
1
 10
11.900525
 20
12.096881
 30
0.0
 10
11.900525
 20
11.881248
 30
0.0
 10
11.729866
 20
11.711030
 30
0.0
 10
11.514233
 20
11.711030
 30
0.0
  0
SPLINE
  5
2c2
100
AcDbEntity
  8
0
 62
7
100
AcDbSpline
 70
8
 71
3
 72
8
 73
4
 74
0
 40
0
 40
0
 40
0
 40
0
 40
1
 40
1
 40
1
 40
1
 10
11.514233
 20
11.711030
 30
0.0
 10
11.298600
 20
11.711030
 30
0.0
 10
11.128382
 20
11.881248
 30
0.0
 10
11.128382
 20
12.096881
 30
0.0
  0
SPLINE
  5
2c3
100
AcDbEntity
  8
0
 62
7
100
AcDbSpline
 70
8
 71
3
 72
8
 73
4
 74
0
 40
0
 40
0
 40
0
 40
0
 40
1
 40
1
 40
1
 40
1
 10
11.128382
 20
12.096881
 30
0.0
 10
11.128382
 20
12.312514
 30
0.0
 10
11.298600
 20
12.482732
 30
0.0
 10
11.514233
 20
12.482732
 30
0.0
  0
LINE
  5
2c4
100
AcDbEntity
  8
0
 62
7
100
AcDbLine
 10
11.514233
 20
12.482732
 30
0.0
 11
11.514233
 21
12.482732
 31
0.0
  0
SPLINE
  5
2c5
100
AcDbEntity
  8
0
 62
7
100
AcDbSpline
 70
8
 71
3
 72
8
 73
4
 74
0
 40
0
 40
0
 40
0
 40
0
 40
1
 40
1
 40
1
 40
1
 10
13.546235
 20
12.482732
 30
0.0
 10
13.593430
 20
12.482732
 30
0.0
 10
13.637831
 20
12.473477
 30
0.0
 10
13.679408
 20
12.458479
 30
0.0
  0
SPLINE
  5
2c6
100
AcDbEntity
  8
0
 62
7
100
AcDbSpline
 70
8
 71
3
 72
8
 73
4
 74
0
 40
0
 40
0
 40
0
 40
0
 40
1
 40
1
 40
1
 40
1
 10
13.679408
 20
12.458479
 30
0.0
 10
13.714883
 20
12.409651
 30
0.0
 10
13.767204
 20
12.375713
 30
0.0
 10
13.826252
 20
12.363228
 30
0.0
  0
SPLINE
  5
2c7
100
AcDbEntity
  8
0
 62
7
100
AcDbSpline
 70
8
 71
3
 72
8
 73
4
 74
0
 40
0
 40
0
 40
0
 40
0
 40
1
 40
1
 40
1
 40
1
 10
13.826252
 20
12.363228
 30
0.0
 10
13.891882
 20
12.294307
 30
0.0
 10
13.932527
 20
12.201156
 30
0.0
 10
13.932527
 20
12.096881
 30
0.0
  0
SPLINE
  5
2c8
100
AcDbEntity
  8
0
 62
7
100
AcDbSpline
 70
8
 71
3
 72
8
 73
4
 74
0
 40
0
 40
0
 40
0
 40
0
 40
1
 40
1
 40
1
 40
1
 10
13.932527
 20
12.096881
 30
0.0
 10
13.932526
 20
11.881248
 30
0.0
 10
13.761868
 20
11.711030
 30
0.0
 10
13.546235
 20
11.711030
 30
0.0
  0
SPLINE
  5
2c9
100
AcDbEntity
  8
0
 62
7
100
AcDbSpline
 70
8
 71
3
 72
8
 73
4
 74
0
 40
0
 40
0
 40
0
 40
0
 40
1
 40
1
 40
1
 40
1
 10
13.546235
 20
11.711030
 30
0.0
 10
13.330602
 20
11.711030
 30
0.0
 10
13.160384
 20
11.881248
 30
0.0
 10
13.160384
 20
12.096881
 30
0.0
  0
SPLINE
  5
2ca
100
AcDbEntity
  8
0
 62
7
100
AcDbSpline
 70
8
 71
3
 72
8
 73
4
 74
0
 40
0
 40
0
 40
0
 40
0
 40
1
 40
1
 40
1
 40
1
 10
13.160384
 20
12.096881
 30
0.0
 10
13.160384
 20
12.312514
 30
0.0
 10
13.330602
 20
12.482732
 30
0.0
 10
13.546235
 20
12.482732
 30
0.0
  0
LINE
  5
2cb
100
AcDbEntity
  8
0
 62
7
100
AcDbLine
 10
13.546235
 20
12.482732
 30
0.0
 11
13.546235
 21
12.482732
 31
0.0
  0
SPLINE
  5
2cc
100
AcDbEntity
  8
0
 62
7
100
AcDbSpline
 70
8
 71
3
 72
8
 73
4
 74
0
 40
0
 40
0
 40
0
 40
0
 40
1
 40
1
 40
1
 40
1
 10
15.578236
 20
12.482732
 30
0.0
 10
15.635426
 20
12.482732
 30
0.0
 10
15.688955
 20
12.469955
 30
0.0
 10
15.737427
 20
12.448336
 30
0.0
  0
SPLINE
  5
2cd
100
AcDbEntity
  8
0
 62
7
100
AcDbSpline
 70
8
 71
3
 72
8
 73
4
 74
0
 40
0
 40
0
 40
0
 40
0
 40
1
 40
1
 40
1
 40
1
 10
15.737427
 20
12.448336
 30
0.0
 10
15.767787
 20
12.409265
 30
0.0
 10
15.809312
 20
12.380352
 30
0.0
 10
15.856490
 20
12.365433
 30
0.0
  0
SPLINE
  5
2ce
100
AcDbEntity
  8
0
 62
7
100
AcDbSpline
 70
8
 71
3
 72
8
 73
4
 74
0
 40
0
 40
0
 40
0
 40
0
 40
1
 40
1
 40
1
 40
1
 10
15.856490
 20
12.365433
 30
0.0
 10
15.923144
 20
12.296326
 30
0.0
 10
15.964087
 20
12.202185
 30
0.0
 10
15.964087
 20
12.096881
 30
0.0
  0
SPLINE
  5
2cf
100
AcDbEntity
  8
0
 62
7
100
AcDbSpline
 70
8
 71
3
 72
8
 73
4
 74
0
 40
0
 40
0
 40
0
 40
0
 40
1
 40
1
 40
1
 40
1
 10
15.964087
 20
12.096881
 30
0.0
 10
15.964087
 20
11.881248
 30
0.0
 10
15.793869
 20
11.711030
 30
0.0
 10
15.578236
 20
11.711030
 30
0.0
  0
SPLINE
  5
2d0
100
AcDbEntity
  8
0
 62
7
100
AcDbSpline
 70
8
 71
3
 72
8
 73
4
 74
0
 40
0
 40
0
 40
0
 40
0
 40
1
 40
1
 40
1
 40
1
 10
15.578236
 20
11.711030
 30
0.0
 10
15.362603
 20
11.711030
 30
0.0
 10
15.191944
 20
11.881248
 30
0.0
 10
15.191944
 20
12.096881
 30
0.0
  0
SPLINE
  5
2d1
100
AcDbEntity
  8
0
 62
7
100
AcDbSpline
 70
8
 71
3
 72
8
 73
4
 74
0
 40
0
 40
0
 40
0
 40
0
 40
1
 40
1
 40
1
 40
1
 10
15.191944
 20
12.096881
 30
0.0
 10
15.191944
 20
12.312514
 30
0.0
 10
15.362603
 20
12.482732
 30
0.0
 10
15.578236
 20
12.482732
 30
0.0
  0
LINE
  5
2d2
100
AcDbEntity
  8
0
 62
7
100
AcDbLine
 10
15.578236
 20
12.482732
 30
0.0
 11
15.578236
 21
12.482732
 31
0.0
  0
SPLINE
  5
2d3
100
AcDbEntity
  8
0
 62
7
100
AcDbSpline
 70
8
 71
3
 72
8
 73
4
 74
0
 40
0
 40
0
 40
0
 40
0
 40
1
 40
1
 40
1
 40
1
 10
17.610237
 20
12.482732
 30
0.0
 10
17.825870
 20
12.482732
 30
0.0
 10
17.996529
 20
12.312514
 30
0.0
 10
17.996529
 20
12.096881
 30
0.0
  0
SPLINE
  5
2d4
100
AcDbEntity
  8
0
 62
7
100
AcDbSpline
 70
8
 71
3
 72
8
 73
4
 74
0
 40
0
 40
0
 40
0
 40
0
 40
1
 40
1
 40
1
 40
1
 10
17.996529
 20
12.096881
 30
0.0
 10
17.996529
 20
11.911811
 30
0.0
 10
17.870416
 20
11.761316
 30
0.0
 10
17.698432
 20
11.722054
 30
0.0
  0
SPLINE
  5
2d5
100
AcDbEntity
  8
0
 62
7
100
AcDbSpline
 70
8
 71
3
 72
8
 73
4
 74
0
 40
0
 40
0
 40
0
 40
0
 40
1
 40
1
 40
1
 40
1
 10
17.698432
 20
11.722054
 30
0.0
 10
17.672034
 20
11.730176
 30
0.0
 10
17.644448
 20
11.733754
 30
0.0
 10
17.616852
 20
11.732637
 30
0.0
  0
SPLINE
  5
2d6
100
AcDbEntity
  8
0
 62
7
100
AcDbSpline
 70
8
 71
3
 72
8
 73
4
 74
0
 40
0
 40
0
 40
0
 40
0
 40
1
 40
1
 40
1
 40
1
 10
17.616852
 20
11.732637
 30
0.0
 10
17.591528
 20
11.731519
 30
0.0
 10
17.566534
 20
11.726461
 30
0.0
 10
17.542769
 20
11.717643
 30
0.0
  0
SPLINE
  5
2d7
100
AcDbEntity
  8
0
 62
7
100
AcDbSpline
 70
8
 71
3
 72
8
 73
4
 74
0
 40
0
 40
0
 40
0
 40
0
 40
1
 40
1
 40
1
 40
1
 10
17.542769
 20
11.717643
 30
0.0
 10
17.360290
 20
11.748996
 30
0.0
 10
17.224386
 20
11.904408
 30
0.0
 10
17.224386
 20
12.096879
 30
0.0
  0
SPLINE
  5
2d8
100
AcDbEntity
  8
0
 62
7
100
AcDbSpline
 70
8
 71
3
 72
8
 73
4
 74
0
 40
0
 40
0
 40
0
 40
0
 40
1
 40
1
 40
1
 40
1
 10
17.224386
 20
12.096879
 30
0.0
 10
17.224386
 20
12.312512
 30
0.0
 10
17.394604
 20
12.482730
 30
0.0
 10
17.610237
 20
12.482730
 30
0.0
  0
LINE
  5
2d9
100
AcDbEntity
  8
0
 62
7
100
AcDbLine
 10
17.610237
 20
12.482730
 30
0.0
 11
17.610237
 21
12.482732
 31
0.0
  0
SPLINE
  5
2da
100
AcDbEntity
  8
0
 62
7
100
AcDbSpline
 70
8
 71
3
 72
8
 73
4
 74
0
 40
0
 40
0
 40
0
 40
0
 40
1
 40
1
 40
1
 40
1
 10
19.642680
 20
12.482732
 30
0.0
 10
19.858313
 20
12.482732
 30
0.0
 10
20.028531
 20
12.312514
 30
0.0
 10
20.028531
 20
12.096881
 30
0.0
  0
SPLINE
  5
2db
100
AcDbEntity
  8
0
 62
7
100
AcDbSpline
 70
8
 71
3
 72
8
 73
4
 74
0
 40
0
 40
0
 40
0
 40
0
 40
1
 40
1
 40
1
 40
1
 10
20.028531
 20
12.096881
 30
0.0
 10
20.028531
 20
11.881248
 30
0.0
 10
19.858313
 20
11.711030
 30
0.0
 10
19.642680
 20
11.711030
 30
0.0
  0
SPLINE
  5
2dc
100
AcDbEntity
  8
0
 62
7
100
AcDbSpline
 70
8
 71
3
 72
8
 73
4
 74
0
 40
0
 40
0
 40
0
 40
0
 40
1
 40
1
 40
1
 40
1
 10
19.642680
 20
11.711030
 30
0.0
 10
19.427047
 20
11.711030
 30
0.0
 10
19.255947
 20
11.881248
 30
0.0
 10
19.255947
 20
12.096881
 30
0.0
  0
SPLINE
  5
2dd
100
AcDbEntity
  8
0
 62
7
100
AcDbSpline
 70
8
 71
3
 72
8
 73
4
 74
0
 40
0
 40
0
 40
0
 40
0
 40
1
 40
1
 40
1
 40
1
 10
19.255947
 20
12.096881
 30
0.0
 10
19.255947
 20
12.312514
 30
0.0
 10
19.427047
 20
12.482732
 30
0.0
 10
19.642680
 20
12.482732
 30
0.0
  0
LINE
  5
2de
100
AcDbEntity
  8
0
 62
7
100
AcDbLine
 10
19.642680
 20
12.482732
 30
0.0
 11
19.642680
 21
12.482732
 31
0.0
  0
SPLINE
  5
2df
100
AcDbEntity
  8
0
 62
7
100
AcDbSpline
 70
8
 71
3
 72
8
 73
4
 74
0
 40
0
 40
0
 40
0
 40
0
 40
1
 40
1
 40
1
 40
1
 10
21.674240
 20
12.482732
 30
0.0
 10
21.694084
 20
12.482732
 30
0.0
 10
21.713022
 20
12.479785
 30
0.0
 10
21.732007
 20
12.476999
 30
0.0
  0
SPLINE
  5
2e0
100
AcDbEntity
  8
0
 62
7
100
AcDbSpline
 70
8
 71
3
 72
8
 73
4
 74
0
 40
0
 40
0
 40
0
 40
0
 40
1
 40
1
 40
1
 40
1
 10
21.732007
 20
12.476999
 30
0.0
 10
21.776418
 20
12.437671
 30
0.0
 10
21.833641
 20
12.415879
 30
0.0
 10
21.892962
 20
12.415704
 30
0.0
  0
SPLINE
  5
2e1
100
AcDbEntity
  8
0
 62
7
100
AcDbSpline
 70
8
 71
3
 72
8
 73
4
 74
0
 40
0
 40
0
 40
0
 40
0
 40
1
 40
1
 40
1
 40
1
 10
21.892962
 20
12.415704
 30
0.0
 10
21.994467
 20
12.346704
 30
0.0
 10
22.060532
 20
12.230747
 30
0.0
 10
22.060532
 20
12.096881
 30
0.0
  0
SPLINE
  5
2e2
100
AcDbEntity
  8
0
 62
7
100
AcDbSpline
 70
8
 71
3
 72
8
 73
4
 74
0
 40
0
 40
0
 40
0
 40
0
 40
1
 40
1
 40
1
 40
1
 10
22.060532
 20
12.096881
 30
0.0
 10
22.060532
 20
12.036809
 30
0.0
 10
22.046391
 20
11.980959
 30
0.0
 10
22.022608
 20
11.930634
 30
0.0
  0
SPLINE
  5
2e3
100
AcDbEntity
  8
0
 62
7
100
AcDbSpline
 70
8
 71
3
 72
8
 73
4
 74
0
 40
0
 40
0
 40
0
 40
0
 40
1
 40
1
 40
1
 40
1
 10
22.022608
 20
11.930634
 30
0.0
 10
21.978047
 20
11.900785
 30
0.0
 10
21.944570
 20
11.857078
 30
0.0
 10
21.927358
 20
11.806280
 30
0.0
  0
SPLINE
  5
2e4
100
AcDbEntity
  8
0
 62
7
100
AcDbSpline
 70
8
 71
3
 72
8
 73
4
 74
0
 40
0
 40
0
 40
0
 40
0
 40
1
 40
1
 40
1
 40
1
 10
21.927358
 20
11.806280
 30
0.0
 10
21.859732
 20
11.747770
 30
0.0
 10
21.772156
 20
11.711030
 30
0.0
 10
21.674240
 20
11.711030
 30
0.0
  0
SPLINE
  5
2e5
100
AcDbEntity
  8
0
 62
7
100
AcDbSpline
 70
8
 71
3
 72
8
 73
4
 74
0
 40
0
 40
0
 40
0
 40
0
 40
1
 40
1
 40
1
 40
1
 10
21.674240
 20
11.711030
 30
0.0
 10
21.458607
 20
11.711030
 30
0.0
 10
21.288389
 20
11.881248
 30
0.0
 10
21.288389
 20
12.096881
 30
0.0
  0
SPLINE
  5
2e6
100
AcDbEntity
  8
0
 62
7
100
AcDbSpline
 70
8
 71
3
 72
8
 73
4
 74
0
 40
0
 40
0
 40
0
 40
0
 40
1
 40
1
 40
1
 40
1
 10
21.288389
 20
12.096881
 30
0.0
 10
21.288389
 20
12.312514
 30
0.0
 10
21.458607
 20
12.482732
 30
0.0
 10
21.674240
 20
12.482732
 30
0.0
  0
LINE
  5
2e7
100
AcDbEntity
  8
0
 62
7
100
AcDbLine
 10
21.674240
 20
12.482732
 30
0.0
 11
21.674240
 21
12.482732
 31
0.0
  0
SPLINE
  5
2e8
100
AcDbEntity
  8
0
 62
7
100
AcDbSpline
 70
8
 71
3
 72
8
 73
4
 74
0
 40
0
 40
0
 40
0
 40
0
 40
1
 40
1
 40
1
 40
1
 10
27.196539
 20
10.446762
 30
0.0
 10
27.224996
 20
10.446762
 30
0.0
 10
27.252163
 20
10.442705
 30
0.0
 10
27.278559
 20
10.436620
 30
0.0
  0
SPLINE
  5
2e9
100
AcDbEntity
  8
0
 62
7
100
AcDbSpline
 70
8
 71
3
 72
8
 73
4
 74
0
 40
0
 40
0
 40
0
 40
0
 40
1
 40
1
 40
1
 40
1
 10
27.278559
 20
10.436620
 30
0.0
 10
27.314876
 20
10.404299
 30
0.0
 10
27.360023
 20
10.383568
 30
0.0
 10
27.408205
 20
10.377089
 30
0.0
  0
SPLINE
  5
2ea
100
AcDbEntity
  8
0
 62
7
100
AcDbSpline
 70
8
 71
3
 72
8
 73
4
 74
0
 40
0
 40
0
 40
0
 40
0
 40
1
 40
1
 40
1
 40
1
 10
27.408205
 20
10.377089
 30
0.0
 10
27.495469
 20
10.312783
 30
0.0
 10
27.551963
 20
10.209974
 30
0.0
 10
27.551963
 20
10.091338
 30
0.0
  0
SPLINE
  5
2eb
100
AcDbEntity
  8
0
 62
7
100
AcDbSpline
 70
8
 71
3
 72
8
 73
4
 74
0
 40
0
 40
0
 40
0
 40
0
 40
1
 40
1
 40
1
 40
1
 10
27.551963
 20
10.091338
 30
0.0
 10
27.551963
 20
9.939127
 30
0.0
 10
27.459802
 20
9.811743
 30
0.0
 10
27.327508
 20
9.760168
 30
0.0
  0
SPLINE
  5
2ec
100
AcDbEntity
  8
0
 62
7
100
AcDbSpline
 70
8
 71
3
 72
8
 73
4
 74
0
 40
0
 40
0
 40
0
 40
0
 40
1
 40
1
 40
1
 40
1
 10
27.327508
 20
9.760168
 30
0.0
 10
27.316286
 20
9.762136
 30
0.0
 10
27.304940
 20
9.763315
 30
0.0
 10
27.293553
 20
9.763697
 30
0.0
  0
SPLINE
  5
2ed
100
AcDbEntity
  8
0
 62
7
100
AcDbSpline
 70
8
 71
3
 72
8
 73
4
 74
0
 40
0
 40
0
 40
0
 40
0
 40
1
 40
1
 40
1
 40
1
 10
27.293553
 20
9.763697
 30
0.0
 10
27.252709
 20
9.764881
 30
0.0
 10
27.212223
 20
9.755783
 30
0.0
 10
27.175812
 20
9.737239
 30
0.0
  0
SPLINE
  5
2ee
100
AcDbEntity
  8
0
 62
7
100
AcDbSpline
 70
8
 71
3
 72
8
 73
4
 74
0
 40
0
 40
0
 40
0
 40
0
 40
1
 40
1
 40
1
 40
1
 10
27.175812
 20
9.737239
 30
0.0
 10
27.175812
 20
9.737239
 30
0.0
 10
27.175361
 20
9.737239
 30
0.0
 10
27.175361
 20
9.737239
 30
0.0
  0
SPLINE
  5
2ef
100
AcDbEntity
  8
0
 62
7
100
AcDbSpline
 70
8
 71
3
 72
8
 73
4
 74
0
 40
0
 40
0
 40
0
 40
0
 40
1
 40
1
 40
1
 40
1
 10
27.175361
 20
9.737239
 30
0.0
 10
26.986953
 20
9.748184
 30
0.0
 10
26.840663
 20
9.899818
 30
0.0
 10
26.840663
 20
10.091340
 30
0.0
  0
SPLINE
  5
2f0
100
AcDbEntity
  8
0
 62
7
100
AcDbSpline
 70
8
 71
3
 72
8
 73
4
 74
0
 40
0
 40
0
 40
0
 40
0
 40
1
 40
1
 40
1
 40
1
 10
26.840663
 20
10.091340
 30
0.0
 10
26.840663
 20
10.290139
 30
0.0
 10
26.997728
 20
10.446763
 30
0.0
 10
27.196527
 20
10.446763
 30
0.0
  0
LINE
  5
2f1
100
AcDbEntity
  8
0
 62
7
100
AcDbLine
 10
27.196527
 20
10.446763
 30
0.0
 11
27.196539
 21
10.446762
 31
0.0
  0
SPLINE
  5
2f2
100
AcDbEntity
  8
0
 62
7
100
AcDbSpline
 70
8
 71
3
 72
8
 73
4
 74
0
 40
0
 40
0
 40
0
 40
0
 40
1
 40
1
 40
1
 40
1
 10
8.818127
 20
8.711535
 30
0.0
 10
8.360415
 20
8.711535
 30
0.0
 10
7.984689
 20
8.335811
 30
0.0
 10
7.984689
 20
7.878098
 30
0.0
  0
SPLINE
  5
2f3
100
AcDbEntity
  8
0
 62
7
100
AcDbSpline
 70
8
 71
3
 72
8
 73
4
 74
0
 40
0
 40
0
 40
0
 40
0
 40
1
 40
1
 40
1
 40
1
 10
7.984689
 20
7.878098
 30
0.0
 10
7.984689
 20
7.420385
 30
0.0
 10
8.360415
 20
7.045102
 30
0.0
 10
8.818127
 20
7.045099
 30
0.0
  0
SPLINE
  5
2f4
100
AcDbEntity
  8
0
 62
7
100
AcDbSpline
 70
8
 71
3
 72
8
 73
4
 74
0
 40
0
 40
0
 40
0
 40
0
 40
1
 40
1
 40
1
 40
1
 10
8.818127
 20
7.045099
 30
0.0
 10
8.896388
 20
7.045099
 30
0.0
 10
8.971051
 20
7.059459
 30
0.0
 10
9.043023
 20
7.079937
 30
0.0
  0
SPLINE
  5
2f5
100
AcDbEntity
  8
0
 62
7
100
AcDbSpline
 70
8
 71
3
 72
8
 73
4
 74
0
 40
0
 40
0
 40
0
 40
0
 40
1
 40
1
 40
1
 40
1
 10
9.043023
 20
7.079937
 30
0.0
 10
9.043023
 20
7.079937
 30
0.0
 10
10.521604
 20
4.788643
 30
0.0
 10
10.521604
 20
4.788643
 30
0.0
  0
SPLINE
  5
2f6
100
AcDbEntity
  8
0
 62
7
100
AcDbSpline
 70
8
 71
3
 72
8
 73
4
 74
0
 40
0
 40
0
 40
0
 40
0
 40
1
 40
1
 40
1
 40
1
 10
10.521604
 20
4.788643
 30
0.0
 10
10.541340
 20
4.754987
 30
0.0
 10
10.568862
 20
4.726558
 30
0.0
 10
10.601861
 20
4.705742
 30
0.0
  0
LINE
  5
2f7
100
AcDbEntity
  8
0
 62
7
100
AcDbLine
 10
10.601861
 20
4.705742
 30
0.0
 11
10.601861
 21
4.023556
 31
0.0
  0
LINE
  5
2f8
100
AcDbEntity
  8
0
 62
7
100
AcDbLine
 10
10.601861
 20
4.023556
 30
0.0
 11
8.600728
 21
4.239192
 31
0.0
  0
SPLINE
  5
2f9
100
AcDbEntity
  8
0
 62
7
100
AcDbSpline
 70
8
 71
3
 72
8
 73
4
 74
0
 40
0
 40
0
 40
0
 40
0
 40
1
 40
1
 40
1
 40
1
 10
8.600728
 20
4.239192
 30
0.0
 10
8.524400
 20
4.578884
 30
0.0
 10
8.220169
 20
4.835829
 30
0.0
 10
7.858571
 20
4.835829
 30
0.0
  0
SPLINE
  5
2fa
100
AcDbEntity
  8
0
 62
7
100
AcDbSpline
 70
8
 71
3
 72
8
 73
4
 74
0
 40
0
 40
0
 40
0
 40
0
 40
1
 40
1
 40
1
 40
1
 10
7.858571
 20
4.835829
 30
0.0
 10
7.440137
 20
4.835829
 30
0.0
 10
7.097012
 20
4.492703
 30
0.0
 10
7.097012
 20
4.074268
 30
0.0
  0
SPLINE
  5
2fb
100
AcDbEntity
  8
0
 62
7
100
AcDbSpline
 70
8
 71
3
 72
8
 73
4
 74
0
 40
0
 40
0
 40
0
 40
0
 40
1
 40
1
 40
1
 40
1
 10
7.097012
 20
4.074268
 30
0.0
 10
7.097012
 20
3.655834
 30
0.0
 10
7.440137
 20
3.311828
 30
0.0
 10
7.858571
 20
3.311828
 30
0.0
  0
SPLINE
  5
2fc
100
AcDbEntity
  8
0
 62
7
100
AcDbSpline
 70
8
 71
3
 72
8
 73
4
 74
0
 40
0
 40
0
 40
0
 40
0
 40
1
 40
1
 40
1
 40
1
 10
7.858571
 20
3.311828
 30
0.0
 10
8.162719
 20
3.311828
 30
0.0
 10
8.425147
 20
3.494617
 30
0.0
 10
8.546929
 20
3.754565
 30
0.0
  0
LINE
  5
2fd
100
AcDbEntity
  8
0
 62
7
100
AcDbLine
 10
8.546929
 20
3.754565
 30
0.0
 11
10.601861
 21
3.533196
 31
0.0
  0
LINE
  5
2fe
100
AcDbEntity
  8
0
 62
7
100
AcDbLine
 10
10.601861
 20
3.533196
 30
0.0
 11
10.601861
 21
2.324049
 31
0.0
  0
LINE
  5
2ff
100
AcDbEntity
  8
0
 62
7
100
AcDbLine
 10
10.601861
 20
2.324049
 30
0.0
 11
12.453064
 21
2.324049
 31
0.0
  0
LINE
  5
300
100
AcDbEntity
  8
0
 62
7
100
AcDbLine
 10
12.453064
 20
2.324049
 30
0.0
 11
12.453064
 21
5.033384
 31
0.0
  0
SPLINE
  5
301
100
AcDbEntity
  8
0
 62
7
100
AcDbSpline
 70
8
 71
3
 72
8
 73
4
 74
0
 40
0
 40
0
 40
0
 40
0
 40
1
 40
1
 40
1
 40
1
 10
12.453064
 20
5.033384
 30
0.0
 10
12.453064
 20
5.033384
 30
0.0
 10
10.943174
 20
5.033384
 30
0.0
 10
10.943174
 20
5.033384
 30
0.0
  0
SPLINE
  5
302
100
AcDbEntity
  8
0
 62
7
100
AcDbSpline
 70
8
 71
3
 72
8
 73
4
 74
0
 40
0
 40
0
 40
0
 40
0
 40
1
 40
1
 40
1
 40
1
 10
10.943174
 20
5.033384
 30
0.0
 10
10.939498
 20
5.039885
 30
0.0
 10
10.935525
 20
5.046213
 30
0.0
 10
10.931269
 20
5.052350
 30
0.0
  0
LINE
  5
303
100
AcDbEntity
  8
0
 62
7
100
AcDbLine
 10
10.931269
 20
5.052350
 30
0.0
 11
9.452246
 21
7.345402
 31
0.0
  0
SPLINE
  5
304
100
AcDbEntity
  8
0
 62
7
100
AcDbSpline
 70
8
 71
3
 72
8
 73
4
 74
0
 40
0
 40
0
 40
0
 40
0
 40
1
 40
1
 40
1
 40
1
 10
9.452246
 20
7.345402
 30
0.0
 10
9.574424
 20
7.490435
 30
0.0
 10
9.651125
 20
7.674993
 30
0.0
 10
9.651125
 20
7.878098
 30
0.0
  0
SPLINE
  5
305
100
AcDbEntity
  8
0
 62
7
100
AcDbSpline
 70
8
 71
3
 72
8
 73
4
 74
0
 40
0
 40
0
 40
0
 40
0
 40
1
 40
1
 40
1
 40
1
 10
9.651125
 20
7.878098
 30
0.0
 10
9.651125
 20
8.335811
 30
0.0
 10
9.275840
 20
8.711535
 30
0.0
 10
8.818127
 20
8.711535
 30
0.0
  0
LINE
  5
306
100
AcDbEntity
  8
0
 62
7
100
AcDbLine
 10
8.818127
 20
8.711535
 30
0.0
 11
8.818127
 21
8.711535
 31
0.0
  0
SPLINE
  5
307
100
AcDbEntity
  8
0
 62
7
100
AcDbSpline
 70
8
 71
3
 72
8
 73
4
 74
0
 40
0
 40
0
 40
0
 40
0
 40
1
 40
1
 40
1
 40
1
 10
19.459676
 20
8.361845
 30
0.0
 10
19.125817
 20
8.361845
 30
0.0
 10
18.842889
 20
8.141653
 30
0.0
 10
18.740891
 20
7.840614
 30
0.0
  0
LINE
  5
308
100
AcDbEntity
  8
0
 62
7
100
AcDbLine
 10
18.740891
 20
7.840614
 30
0.0
 11
17.624349
 21
7.836641
 31
0.0
  0
SPLINE
  5
309
100
AcDbEntity
  8
0
 62
7
100
AcDbSpline
 70
8
 71
3
 72
8
 73
4
 74
0
 40
0
 40
0
 40
0
 40
0
 40
1
 40
1
 40
1
 40
1
 10
17.624349
 20
7.836641
 30
0.0
 10
17.524394
 20
8.092689
 30
0.0
 10
17.276049
 20
8.276732
 30
0.0
 10
16.986261
 20
8.276732
 30
0.0
  0
SPLINE
  5
30a
100
AcDbEntity
  8
0
 62
7
100
AcDbSpline
 70
8
 71
3
 72
8
 73
4
 74
0
 40
0
 40
0
 40
0
 40
0
 40
1
 40
1
 40
1
 40
1
 10
16.986261
 20
8.276732
 30
0.0
 10
16.609581
 20
8.276732
 30
0.0
 10
16.299226
 20
7.966820
 30
0.0
 10
16.299226
 20
7.590139
 30
0.0
  0
SPLINE
  5
30b
100
AcDbEntity
  8
0
 62
7
100
AcDbSpline
 70
8
 71
3
 72
8
 73
4
 74
0
 40
0
 40
0
 40
0
 40
0
 40
1
 40
1
 40
1
 40
1
 10
16.299226
 20
7.590139
 30
0.0
 10
16.299226
 20
7.213458
 30
0.0
 10
16.609581
 20
6.903543
 30
0.0
 10
16.986261
 20
6.903543
 30
0.0
  0
SPLINE
  5
30c
100
AcDbEntity
  8
0
 62
7
100
AcDbSpline
 70
8
 71
3
 72
8
 73
4
 74
0
 40
0
 40
0
 40
0
 40
0
 40
1
 40
1
 40
1
 40
1
 10
16.986261
 20
6.903543
 30
0.0
 10
17.277855
 20
6.903543
 30
0.0
 10
17.527422
 20
7.090226
 30
0.0
 10
17.626112
 20
7.348927
 30
0.0
  0
LINE
  5
30d
100
AcDbEntity
  8
0
 62
7
100
AcDbLine
 10
17.626112
 20
7.348927
 30
0.0
 11
18.742655
 21
7.353329
 31
0.0
  0
SPLINE
  5
30e
100
AcDbEntity
  8
0
 62
7
100
AcDbSpline
 70
8
 71
3
 72
8
 73
4
 74
0
 40
0
 40
0
 40
0
 40
0
 40
1
 40
1
 40
1
 40
1
 10
18.742655
 20
7.353329
 30
0.0
 10
18.846189
 20
7.055151
 30
0.0
 10
19.127766
 20
6.837833
 30
0.0
 10
19.459676
 20
6.837833
 30
0.0
  0
SPLINE
  5
30f
100
AcDbEntity
  8
0
 62
7
100
AcDbSpline
 70
8
 71
3
 72
8
 73
4
 74
0
 40
0
 40
0
 40
0
 40
0
 40
1
 40
1
 40
1
 40
1
 10
19.459676
 20
6.837833
 30
0.0
 10
19.878110
 20
6.837833
 30
0.0
 10
20.221677
 20
7.181399
 30
0.0
 10
20.221677
 20
7.599834
 30
0.0
  0
SPLINE
  5
310
100
AcDbEntity
  8
0
 62
7
100
AcDbSpline
 70
8
 71
3
 72
8
 73
4
 74
0
 40
0
 40
0
 40
0
 40
0
 40
1
 40
1
 40
1
 40
1
 10
20.221677
 20
7.599834
 30
0.0
 10
20.221677
 20
8.018268
 30
0.0
 10
19.878110
 20
8.361834
 30
0.0
 10
19.459676
 20
8.361834
 30
0.0
  0
LINE
  5
311
100
AcDbEntity
  8
0
 62
7
100
AcDbLine
 10
19.459676
 20
8.361834
 30
0.0
 11
19.459676
 21
8.361845
 31
0.0
  0
SPLINE
  5
312
100
AcDbEntity
  8
0
 62
7
100
AcDbSpline
 70
8
 71
3
 72
8
 73
4
 74
0
 40
0
 40
0
 40
0
 40
0
 40
1
 40
1
 40
1
 40
1
 10
8.818127
 20
8.305401
 30
0.0
 10
9.056205
 20
8.305401
 30
0.0
 10
9.244989
 20
8.116176
 30
0.0
 10
9.244989
 20
7.878098
 30
0.0
  0
SPLINE
  5
313
100
AcDbEntity
  8
0
 62
7
100
AcDbSpline
 70
8
 71
3
 72
8
 73
4
 74
0
 40
0
 40
0
 40
0
 40
0
 40
1
 40
1
 40
1
 40
1
 10
9.244989
 20
7.878098
 30
0.0
 10
9.244989
 20
7.755523
 30
0.0
 10
9.194567
 20
7.646766
 30
0.0
 10
9.113579
 20
7.569417
 30
0.0
  0
SPLINE
  5
314
100
AcDbEntity
  8
0
 62
7
100
AcDbSpline
 70
8
 71
3
 72
8
 73
4
 74
0
 40
0
 40
0
 40
0
 40
0
 40
1
 40
1
 40
1
 40
1
 10
9.113579
 20
7.569417
 30
0.0
 10
9.059926
 20
7.556604
 30
0.0
 10
9.012203
 20
7.525979
 30
0.0
 10
8.978200
 20
7.482544
 30
0.0
  0
SPLINE
  5
315
100
AcDbEntity
  8
0
 62
7
100
AcDbSpline
 70
8
 71
3
 72
8
 73
4
 74
0
 40
0
 40
0
 40
0
 40
0
 40
1
 40
1
 40
1
 40
1
 10
8.978200
 20
7.482544
 30
0.0
 10
8.928855
 20
7.462902
 30
0.0
 10
8.875027
 20
7.451236
 30
0.0
 10
8.818127
 20
7.451236
 30
0.0
  0
SPLINE
  5
316
100
AcDbEntity
  8
0
 62
7
100
AcDbSpline
 70
8
 71
3
 72
8
 73
4
 74
0
 40
0
 40
0
 40
0
 40
0
 40
1
 40
1
 40
1
 40
1
 10
8.818127
 20
7.451236
 30
0.0
 10
8.580050
 20
7.451236
 30
0.0
 10
8.391707
 20
7.640020
 30
0.0
 10
8.391707
 20
7.878098
 30
0.0
  0
SPLINE
  5
317
100
AcDbEntity
  8
0
 62
7
100
AcDbSpline
 70
8
 71
3
 72
8
 73
4
 74
0
 40
0
 40
0
 40
0
 40
0
 40
1
 40
1
 40
1
 40
1
 10
8.391707
 20
7.878098
 30
0.0
 10
8.391707
 20
8.116176
 30
0.0
 10
8.580050
 20
8.305401
 30
0.0
 10
8.818127
 20
8.305401
 30
0.0
  0
LINE
  5
318
100
AcDbEntity
  8
0
 62
7
100
AcDbLine
 10
8.818127
 20
8.305401
 30
0.0
 11
8.818127
 21
8.305401
 31
0.0
  0
SPLINE
  5
319
100
AcDbEntity
  8
0
 62
7
100
AcDbSpline
 70
8
 71
3
 72
8
 73
4
 74
0
 40
0
 40
0
 40
0
 40
0
 40
1
 40
1
 40
1
 40
1
 10
4.760739
 20
8.304498
 30
0.0
 10
4.995595
 20
8.300930
 30
0.0
 10
5.180986
 20
8.113882
 30
0.0
 10
5.180986
 20
7.878078
 30
0.0
  0
SPLINE
  5
31a
100
AcDbEntity
  8
0
 62
7
100
AcDbSpline
 70
8
 71
3
 72
8
 73
4
 74
0
 40
0
 40
0
 40
0
 40
0
 40
1
 40
1
 40
1
 40
1
 10
5.180986
 20
7.878078
 30
0.0
 10
5.180986
 20
7.708561
 30
0.0
 10
5.084300
 20
7.565755
 30
0.0
 10
4.943302
 20
7.496635
 30
0.0
  0
SPLINE
  5
31b
100
AcDbEntity
  8
0
 62
7
100
AcDbSpline
 70
8
 71
3
 72
8
 73
4
 74
0
 40
0
 40
0
 40
0
 40
0
 40
1
 40
1
 40
1
 40
1
 10
4.943302
 20
7.496635
 30
0.0
 10
4.939778
 20
7.496862
 30
0.0
 10
4.936250
 20
7.497013
 30
0.0
 10
4.932720
 20
7.497087
 30
0.0
  0
SPLINE
  5
31c
100
AcDbEntity
  8
0
 62
7
100
AcDbSpline
 70
8
 71
3
 72
8
 73
4
 74
0
 40
0
 40
0
 40
0
 40
0
 40
1
 40
1
 40
1
 40
1
 10
4.932720
 20
7.497087
 30
0.0
 10
4.883090
 20
7.497628
 30
0.0
 10
4.834476
 20
7.483013
 30
0.0
 10
4.793372
 20
7.455193
 30
0.0
  0
SPLINE
  5
31d
100
AcDbEntity
  8
0
 62
7
100
AcDbSpline
 70
8
 71
3
 72
8
 73
4
 74
0
 40
0
 40
0
 40
0
 40
0
 40
1
 40
1
 40
1
 40
1
 10
4.793372
 20
7.455193
 30
0.0
 10
4.780268
 20
7.454065
 30
0.0
 10
4.767570
 20
7.451220
 30
0.0
 10
4.754126
 20
7.451220
 30
0.0
  0
SPLINE
  5
31e
100
AcDbEntity
  8
0
 62
7
100
AcDbSpline
 70
8
 71
3
 72
8
 73
4
 74
0
 40
0
 40
0
 40
0
 40
0
 40
1
 40
1
 40
1
 40
1
 10
4.754126
 20
7.451220
 30
0.0
 10
4.715414
 20
7.451220
 30
0.0
 10
4.678937
 20
7.458174
 30
0.0
 10
4.643442
 20
7.467544
 30
0.0
  0
SPLINE
  5
31f
100
AcDbEntity
  8
0
 62
7
100
AcDbSpline
 70
8
 71
3
 72
8
 73
4
 74
0
 40
0
 40
0
 40
0
 40
0
 40
1
 40
1
 40
1
 40
1
 10
4.643442
 20
7.467544
 30
0.0
 10
4.604571
 20
7.505519
 30
0.0
 10
4.554130
 20
7.529423
 30
0.0
 10
4.500125
 20
7.535462
 30
0.0
  0
SPLINE
  5
320
100
AcDbEntity
  8
0
 62
7
100
AcDbSpline
 70
8
 71
3
 72
8
 73
4
 74
0
 40
0
 40
0
 40
0
 40
0
 40
1
 40
1
 40
1
 40
1
 10
4.500125
 20
7.535462
 30
0.0
 10
4.395525
 20
7.612735
 30
0.0
 10
4.327704
 20
7.736142
 30
0.0
 10
4.327704
 20
7.878098
 30
0.0
  0
SPLINE
  5
321
100
AcDbEntity
  8
0
 62
7
100
AcDbSpline
 70
8
 71
3
 72
8
 73
4
 74
0
 40
0
 40
0
 40
0
 40
0
 40
1
 40
1
 40
1
 40
1
 10
4.327704
 20
7.878098
 30
0.0
 10
4.327704
 20
8.068363
 30
0.0
 10
4.448856
 20
8.225401
 30
0.0
 10
4.618746
 20
8.281588
 30
0.0
  0
SPLINE
  5
322
100
AcDbEntity
  8
0
 62
7
100
AcDbSpline
 70
8
 71
3
 72
8
 73
4
 74
0
 40
0
 40
0
 40
0
 40
0
 40
1
 40
1
 40
1
 40
1
 10
4.618746
 20
8.281588
 30
0.0
 10
4.667306
 20
8.274782
 30
0.0
 10
4.716790
 20
8.282773
 30
0.0
 10
4.760739
 20
8.304518
 30
0.0
  0
LINE
  5
323
100
AcDbEntity
  8
0
 62
7
100
AcDbLine
 10
4.760739
 20
8.304518
 30
0.0
 11
4.760739
 21
8.304498
 31
0.0
  0
SPLINE
  5
324
100
AcDbEntity
  8
0
 62
7
100
AcDbSpline
 70
8
 71
3
 72
8
 73
4
 74
0
 40
0
 40
0
 40
0
 40
0
 40
1
 40
1
 40
1
 40
1
 10
6.811702
 20
8.302692
 30
0.0
 10
7.037261
 20
8.289393
 30
0.0
 10
7.212547
 20
8.107306
 30
0.0
 10
7.212546
 20
7.878035
 30
0.0
  0
SPLINE
  5
325
100
AcDbEntity
  8
0
 62
7
100
AcDbSpline
 70
8
 71
3
 72
8
 73
4
 74
0
 40
0
 40
0
 40
0
 40
0
 40
1
 40
1
 40
1
 40
1
 10
7.212546
 20
7.878035
 30
0.0
 10
7.212546
 20
7.639957
 30
0.0
 10
7.024204
 20
7.451172
 30
0.0
 10
6.786126
 20
7.451172
 30
0.0
  0
SPLINE
  5
326
100
AcDbEntity
  8
0
 62
7
100
AcDbSpline
 70
8
 71
3
 72
8
 73
4
 74
0
 40
0
 40
0
 40
0
 40
0
 40
1
 40
1
 40
1
 40
1
 10
6.786126
 20
7.451172
 30
0.0
 10
6.548048
 20
7.451172
 30
0.0
 10
6.359265
 20
7.639957
 30
0.0
 10
6.359265
 20
7.878035
 30
0.0
  0
SPLINE
  5
327
100
AcDbEntity
  8
0
 62
7
100
AcDbSpline
 70
8
 71
3
 72
8
 73
4
 74
0
 40
0
 40
0
 40
0
 40
0
 40
1
 40
1
 40
1
 40
1
 10
6.359265
 20
7.878035
 30
0.0
 10
6.359265
 20
8.061832
 30
0.0
 10
6.472321
 20
8.215284
 30
0.0
 10
6.633109
 20
8.276233
 30
0.0
  0
SPLINE
  5
328
100
AcDbEntity
  8
0
 62
7
100
AcDbSpline
 70
8
 71
3
 72
8
 73
4
 74
0
 40
0
 40
0
 40
0
 40
0
 40
1
 40
1
 40
1
 40
1
 10
6.633109
 20
8.276233
 30
0.0
 10
6.693833
 20
8.261879
 30
0.0
 10
6.757748
 20
8.271348
 30
0.0
 10
6.811702
 20
8.302692
 30
0.0
  0
LINE
  5
329
100
AcDbEntity
  8
0
 62
7
100
AcDbLine
 10
6.811702
 20
8.302692
 30
0.0
 11
6.811702
 21
8.302692
 31
0.0
  0
SPLINE
  5
32a
100
AcDbEntity
  8
0
 62
7
100
AcDbSpline
 70
8
 71
3
 72
8
 73
4
 74
0
 40
0
 40
0
 40
0
 40
0
 40
1
 40
1
 40
1
 40
1
 10
19.459676
 20
7.955206
 30
0.0
 10
19.658475
 20
7.955206
 30
0.0
 10
19.815541
 20
7.798579
 30
0.0
 10
19.815541
 20
7.599782
 30
0.0
  0
SPLINE
  5
32b
100
AcDbEntity
  8
0
 62
7
100
AcDbSpline
 70
8
 71
3
 72
8
 73
4
 74
0
 40
0
 40
0
 40
0
 40
0
 40
1
 40
1
 40
1
 40
1
 10
19.815541
 20
7.599782
 30
0.0
 10
19.815541
 20
7.400982
 30
0.0
 10
19.658475
 20
7.243915
 30
0.0
 10
19.459676
 20
7.243915
 30
0.0
  0
SPLINE
  5
32c
100
AcDbEntity
  8
0
 62
7
100
AcDbSpline
 70
8
 71
3
 72
8
 73
4
 74
0
 40
0
 40
0
 40
0
 40
0
 40
1
 40
1
 40
1
 40
1
 10
19.459676
 20
7.243915
 30
0.0
 10
19.292073
 20
7.243915
 30
0.0
 10
19.155690
 20
7.356172
 30
0.0
 10
19.116599
 20
7.510263
 30
0.0
  0
SPLINE
  5
32d
100
AcDbEntity
  8
0
 62
7
100
AcDbSpline
 70
8
 71
3
 72
8
 73
4
 74
0
 40
0
 40
0
 40
0
 40
0
 40
1
 40
1
 40
1
 40
1
 10
19.116599
 20
7.510263
 30
0.0
 10
19.138325
 20
7.567109
 30
0.0
 10
19.138011
 20
7.630025
 30
0.0
 10
19.115719
 20
7.686652
 30
0.0
  0
SPLINE
  5
32e
100
AcDbEntity
  8
0
 62
7
100
AcDbSpline
 70
8
 71
3
 72
8
 73
4
 74
0
 40
0
 40
0
 40
0
 40
0
 40
1
 40
1
 40
1
 40
1
 10
19.115719
 20
7.686652
 30
0.0
 10
19.153904
 20
7.842105
 30
0.0
 10
19.291124
 20
7.955206
 30
0.0
 10
19.459677
 20
7.955206
 30
0.0
  0
LINE
  5
32f
100
AcDbEntity
  8
0
 62
7
100
AcDbLine
 10
19.459677
 20
7.955206
 30
0.0
 11
19.459676
 21
7.955206
 31
0.0
  0
SPLINE
  5
330
100
AcDbEntity
  8
0
 62
7
100
AcDbSpline
 70
8
 71
3
 72
8
 73
4
 74
0
 40
0
 40
0
 40
0
 40
0
 40
1
 40
1
 40
1
 40
1
 10
27.609290
 20
7.952948
 30
0.0
 10
27.797480
 20
7.941817
 30
0.0
 10
27.943105
 20
7.791101
 30
0.0
 10
27.943105
 20
7.599730
 30
0.0
  0
SPLINE
  5
331
100
AcDbEntity
  8
0
 62
7
100
AcDbSpline
 70
8
 71
3
 72
8
 73
4
 74
0
 40
0
 40
0
 40
0
 40
0
 40
1
 40
1
 40
1
 40
1
 10
27.943105
 20
7.599730
 30
0.0
 10
27.943105
 20
7.429886
 30
0.0
 10
27.828319
 20
7.291818
 30
0.0
 10
27.671024
 20
7.254888
 30
0.0
  0
SPLINE
  5
332
100
AcDbEntity
  8
0
 62
7
100
AcDbSpline
 70
8
 71
3
 72
8
 73
4
 74
0
 40
0
 40
0
 40
0
 40
0
 40
1
 40
1
 40
1
 40
1
 10
27.671024
 20
7.254888
 30
0.0
 10
27.645330
 20
7.262767
 30
0.0
 10
27.618511
 20
7.266345
 30
0.0
 10
27.591650
 20
7.265477
 30
0.0
  0
SPLINE
  5
333
100
AcDbEntity
  8
0
 62
7
100
AcDbSpline
 70
8
 71
3
 72
8
 73
4
 74
0
 40
0
 40
0
 40
0
 40
0
 40
1
 40
1
 40
1
 40
1
 10
27.591650
 20
7.265477
 30
0.0
 10
27.566374
 20
7.264643
 30
0.0
 10
27.541381
 20
7.259882
 30
0.0
 10
27.517568
 20
7.251366
 30
0.0
  0
SPLINE
  5
334
100
AcDbEntity
  8
0
 62
7
100
AcDbSpline
 70
8
 71
3
 72
8
 73
4
 74
0
 40
0
 40
0
 40
0
 40
0
 40
1
 40
1
 40
1
 40
1
 10
27.517568
 20
7.251366
 30
0.0
 10
27.353312
 20
7.283279
 30
0.0
 10
27.232257
 20
7.425034
 30
0.0
 10
27.232257
 20
7.599734
 30
0.0
  0
SPLINE
  5
335
100
AcDbEntity
  8
0
 62
7
100
AcDbSpline
 70
8
 71
3
 72
8
 73
4
 74
0
 40
0
 40
0
 40
0
 40
0
 40
1
 40
1
 40
1
 40
1
 10
27.232257
 20
7.599734
 30
0.0
 10
27.232257
 20
7.649432
 30
0.0
 10
27.242236
 20
7.696430
 30
0.0
 10
27.260039
 20
7.739080
 30
0.0
  0
SPLINE
  5
336
100
AcDbEntity
  8
0
 62
7
100
AcDbSpline
 70
8
 71
3
 72
8
 73
4
 74
0
 40
0
 40
0
 40
0
 40
0
 40
1
 40
1
 40
1
 40
1
 10
27.260039
 20
7.739080
 30
0.0
 10
27.311082
 20
7.770516
 30
0.0
 10
27.348758
 20
7.819652
 30
0.0
 10
27.365872
 20
7.877105
 30
0.0
  0
SPLINE
  5
337
100
AcDbEntity
  8
0
 62
7
100
AcDbSpline
 70
8
 71
3
 72
8
 73
4
 74
0
 40
0
 40
0
 40
0
 40
0
 40
1
 40
1
 40
1
 40
1
 10
27.365872
 20
7.877105
 30
0.0
 10
27.393268
 20
7.898937
 30
0.0
 10
27.423351
 20
7.917054
 30
0.0
 10
27.456714
 20
7.930022
 30
0.0
  0
SPLINE
  5
338
100
AcDbEntity
  8
0
 62
7
100
AcDbSpline
 70
8
 71
3
 72
8
 73
4
 74
0
 40
0
 40
0
 40
0
 40
0
 40
1
 40
1
 40
1
 40
1
 10
27.456714
 20
7.930022
 30
0.0
 10
27.508714
 20
7.920952
 30
0.0
 10
27.562253
 20
7.928998
 30
0.0
 10
27.609290
 20
7.952952
 30
0.0
  0
LINE
  5
339
100
AcDbEntity
  8
0
 62
7
100
AcDbLine
 10
27.609290
 20
7.952952
 30
0.0
 11
27.609290
 21
7.952948
 31
0.0
  0
SPLINE
  5
33a
100
AcDbEntity
  8
0
 62
7
100
AcDbSpline
 70
8
 71
3
 72
8
 73
4
 74
0
 40
0
 40
0
 40
0
 40
0
 40
1
 40
1
 40
1
 40
1
 10
16.986261
 20
7.869604
 30
0.0
 10
17.119564
 20
7.869604
 30
0.0
 10
17.227181
 20
7.781090
 30
0.0
 10
17.257018
 20
7.658378
 30
0.0
  0
SPLINE
  5
33b
100
AcDbEntity
  8
0
 62
7
100
AcDbSpline
 70
8
 71
3
 72
8
 73
4
 74
0
 40
0
 40
0
 40
0
 40
0
 40
1
 40
1
 40
1
 40
1
 10
17.257018
 20
7.658378
 30
0.0
 10
17.244869
 20
7.614626
 30
0.0
 10
17.245174
 20
7.568351
 30
0.0
 10
17.257899
 20
7.524762
 30
0.0
  0
SPLINE
  5
33c
100
AcDbEntity
  8
0
 62
7
100
AcDbSpline
 70
8
 71
3
 72
8
 73
4
 74
0
 40
0
 40
0
 40
0
 40
0
 40
1
 40
1
 40
1
 40
1
 10
17.257899
 20
7.524762
 30
0.0
 10
17.229025
 20
7.400508
 30
0.0
 10
17.120553
 20
7.310009
 30
0.0
 10
16.986260
 20
7.310009
 30
0.0
  0
SPLINE
  5
33d
100
AcDbEntity
  8
0
 62
7
100
AcDbSpline
 70
8
 71
3
 72
8
 73
4
 74
0
 40
0
 40
0
 40
0
 40
0
 40
1
 40
1
 40
1
 40
1
 10
16.986260
 20
7.310009
 30
0.0
 10
16.829214
 20
7.310009
 30
0.0
 10
16.706243
 20
7.432981
 30
0.0
 10
16.706242
 20
7.590028
 30
0.0
  0
SPLINE
  5
33e
100
AcDbEntity
  8
0
 62
7
100
AcDbSpline
 70
8
 71
3
 72
8
 73
4
 74
0
 40
0
 40
0
 40
0
 40
0
 40
1
 40
1
 40
1
 40
1
 10
16.706242
 20
7.590028
 30
0.0
 10
16.706243
 20
7.747072
 30
0.0
 10
16.829214
 20
7.869604
 30
0.0
 10
16.986260
 20
7.869604
 30
0.0
  0
LINE
  5
33f
100
AcDbEntity
  8
0
 62
7
100
AcDbLine
 10
16.986260
 20
7.869604
 30
0.0
 11
16.986261
 21
7.869604
 31
0.0
  0
SPLINE
  5
340
100
AcDbEntity
  8
0
 62
7
100
AcDbSpline
 70
8
 71
3
 72
8
 73
4
 74
0
 40
0
 40
0
 40
0
 40
0
 40
1
 40
1
 40
1
 40
1
 10
15.326441
 20
7.863441
 30
0.0
 10
15.369837
 20
7.849480
 30
0.0
 10
15.416277
 20
7.847955
 30
0.0
 10
15.460496
 20
7.859038
 30
0.0
  0
SPLINE
  5
341
100
AcDbEntity
  8
0
 62
7
100
AcDbSpline
 70
8
 71
3
 72
8
 73
4
 74
0
 40
0
 40
0
 40
0
 40
0
 40
1
 40
1
 40
1
 40
1
 10
15.460496
 20
7.859038
 30
0.0
 10
15.580081
 20
7.827215
 30
0.0
 10
15.665990
 20
7.721081
 30
0.0
 10
15.665990
 20
7.590046
 30
0.0
  0
SPLINE
  5
342
100
AcDbEntity
  8
0
 62
7
100
AcDbSpline
 70
8
 71
3
 72
8
 73
4
 74
0
 40
0
 40
0
 40
0
 40
0
 40
1
 40
1
 40
1
 40
1
 10
15.665990
 20
7.590046
 30
0.0
 10
15.665990
 20
7.432999
 30
0.0
 10
15.543018
 20
7.310027
 30
0.0
 10
15.385972
 20
7.310027
 30
0.0
  0
SPLINE
  5
343
100
AcDbEntity
  8
0
 62
7
100
AcDbSpline
 70
8
 71
3
 72
8
 73
4
 74
0
 40
0
 40
0
 40
0
 40
0
 40
1
 40
1
 40
1
 40
1
 10
15.385972
 20
7.310027
 30
0.0
 10
15.228926
 20
7.310027
 30
0.0
 10
15.105954
 20
7.432999
 30
0.0
 10
15.105954
 20
7.590046
 30
0.0
  0
SPLINE
  5
344
100
AcDbEntity
  8
0
 62
7
100
AcDbSpline
 70
8
 71
3
 72
8
 73
4
 74
0
 40
0
 40
0
 40
0
 40
0
 40
1
 40
1
 40
1
 40
1
 10
15.105954
 20
7.590046
 30
0.0
 10
15.105954
 20
7.726472
 30
0.0
 10
15.199118
 20
7.836837
 30
0.0
 10
15.326441
 20
7.863447
 30
0.0
  0
LINE
  5
345
100
AcDbEntity
  8
0
 62
7
100
AcDbLine
 10
15.326441
 20
7.863447
 30
0.0
 11
15.326441
 21
7.863441
 31
0.0
  0
LINE
  5
346
100
AcDbEntity
  8
0
 62
7
100
AcDbLine
 10
1.457414
 20
4.761200
 30
0.0
 11
1.457414
 21
4.590103
 31
0.0
  0
LINE
  5
347
100
AcDbEntity
  8
0
 62
7
100
AcDbLine
 10
1.457414
 20
4.590103
 30
0.0
 11
2.000692
 21
4.590103
 31
0.0
  0
LINE
  5
348
100
AcDbEntity
  8
0
 62
7
100
AcDbLine
 10
2.000692
 20
4.590103
 30
0.0
 11
2.000692
 21
4.761200
 31
0.0
  0
LINE
  5
349
100
AcDbEntity
  8
0
 62
7
100
AcDbLine
 10
2.000692
 20
4.761200
 30
0.0
 11
1.996283
 21
4.761200
 31
0.0
  0
LINE
  5
34a
100
AcDbEntity
  8
0
 62
7
100
AcDbLine
 10
1.996283
 20
4.761200
 30
0.0
 11
1.457414
 21
4.761200
 31
0.0
  0
LINE
  5
34b
100
AcDbEntity
  8
0
 62
7
100
AcDbLine
 10
1.457414
 20
4.761200
 30
0.0
 11
1.457414
 21
4.761200
 31
0.0
  0
LINE
  5
34c
100
AcDbEntity
  8
0
 62
7
100
AcDbLine
 10
1.466234
 20
4.752372
 30
0.0
 11
1.991873
 21
4.752372
 31
0.0
  0
LINE
  5
34d
100
AcDbEntity
  8
0
 62
7
100
AcDbLine
 10
1.991873
 20
4.752372
 30
0.0
 11
1.991873
 21
4.598913
 31
0.0
  0
LINE
  5
34e
100
AcDbEntity
  8
0
 62
7
100
AcDbLine
 10
1.991873
 20
4.598913
 30
0.0
 11
1.466234
 21
4.598913
 31
0.0
  0
LINE
  5
34f
100
AcDbEntity
  8
0
 62
7
100
AcDbLine
 10
1.466234
 20
4.598913
 30
0.0
 11
1.466234
 21
4.752372
 31
0.0
  0
LINE
  5
350
100
AcDbEntity
  8
0
 62
7
100
AcDbLine
 10
1.466234
 20
4.752372
 30
0.0
 11
1.466234
 21
4.752372
 31
0.0
  0
SPLINE
  5
351
100
AcDbEntity
  8
0
 62
7
100
AcDbSpline
 70
8
 71
3
 72
8
 73
4
 74
0
 40
0
 40
0
 40
0
 40
0
 40
1
 40
1
 40
1
 40
1
 10
5.827011
 20
4.429580
 30
0.0
 10
6.025810
 20
4.429580
 30
0.0
 10
6.182435
 20
4.272955
 30
0.0
 10
6.182435
 20
4.074155
 30
0.0
  0
SPLINE
  5
352
100
AcDbEntity
  8
0
 62
7
100
AcDbSpline
 70
8
 71
3
 72
8
 73
4
 74
0
 40
0
 40
0
 40
0
 40
0
 40
1
 40
1
 40
1
 40
1
 10
6.182435
 20
4.074155
 30
0.0
 10
6.182435
 20
3.875356
 30
0.0
 10
6.025810
 20
3.718291
 30
0.0
 10
5.827011
 20
3.718291
 30
0.0
  0
SPLINE
  5
353
100
AcDbEntity
  8
0
 62
7
100
AcDbSpline
 70
8
 71
3
 72
8
 73
4
 74
0
 40
0
 40
0
 40
0
 40
0
 40
1
 40
1
 40
1
 40
1
 10
5.827011
 20
3.718291
 30
0.0
 10
5.628212
 20
3.718291
 30
0.0
 10
5.470705
 20
3.875356
 30
0.0
 10
5.470705
 20
4.074155
 30
0.0
  0
SPLINE
  5
354
100
AcDbEntity
  8
0
 62
7
100
AcDbSpline
 70
8
 71
3
 72
8
 73
4
 74
0
 40
0
 40
0
 40
0
 40
0
 40
1
 40
1
 40
1
 40
1
 10
5.470705
 20
4.074155
 30
0.0
 10
5.470705
 20
4.208001
 30
0.0
 10
5.542921
 20
4.321240
 30
0.0
 10
5.650181
 20
4.381954
 30
0.0
  0
SPLINE
  5
355
100
AcDbEntity
  8
0
 62
7
100
AcDbSpline
 70
8
 71
3
 72
8
 73
4
 74
0
 40
0
 40
0
 40
0
 40
0
 40
1
 40
1
 40
1
 40
1
 10
5.650181
 20
4.381954
 30
0.0
 10
5.709093
 20
4.376828
 30
0.0
 10
5.767861
 20
4.393283
 30
0.0
 10
5.815545
 20
4.428257
 30
0.0
  0
SPLINE
  5
356
100
AcDbEntity
  8
0
 62
7
100
AcDbSpline
 70
8
 71
3
 72
8
 73
4
 74
0
 40
0
 40
0
 40
0
 40
0
 40
1
 40
1
 40
1
 40
1
 10
5.815545
 20
4.428257
 30
0.0
 10
5.819458
 20
4.428378
 30
0.0
 10
5.823064
 20
4.429611
 30
0.0
 10
5.827010
 20
4.429611
 30
0.0
  0
LINE
  5
357
100
AcDbEntity
  8
0
 62
7
100
AcDbLine
 10
5.827010
 20
4.429611
 30
0.0
 11
5.827011
 21
4.429580
 31
0.0
  0
SPLINE
  5
358
100
AcDbEntity
  8
0
 62
7
100
AcDbSpline
 70
8
 71
3
 72
8
 73
4
 74
0
 40
0
 40
0
 40
0
 40
0
 40
1
 40
1
 40
1
 40
1
 10
7.858571
 20
4.429580
 30
0.0
 10
8.043730
 20
4.429580
 30
0.0
 10
8.190497
 20
4.293124
 30
0.0
 10
8.210026
 20
4.113843
 30
0.0
  0
SPLINE
  5
359
100
AcDbEntity
  8
0
 62
7
100
AcDbSpline
 70
8
 71
3
 72
8
 73
4
 74
0
 40
0
 40
0
 40
0
 40
0
 40
1
 40
1
 40
1
 40
1
 10
8.210026
 20
4.113843
 30
0.0
 10
8.187729
 20
4.065287
 30
0.0
 10
8.181997
 20
4.010752
 30
0.0
 10
8.193709
 20
3.958620
 30
0.0
  0
SPLINE
  5
35a
100
AcDbEntity
  8
0
 62
7
100
AcDbSpline
 70
8
 71
3
 72
8
 73
4
 74
0
 40
0
 40
0
 40
0
 40
0
 40
1
 40
1
 40
1
 40
1
 10
8.193709
 20
3.958620
 30
0.0
 10
8.146351
 20
3.818306
 30
0.0
 10
8.016482
 20
3.718291
 30
0.0
 10
7.858570
 20
3.718291
 30
0.0
  0
SPLINE
  5
35b
100
AcDbEntity
  8
0
 62
7
100
AcDbSpline
 70
8
 71
3
 72
8
 73
4
 74
0
 40
0
 40
0
 40
0
 40
0
 40
1
 40
1
 40
1
 40
1
 10
7.858570
 20
3.718291
 30
0.0
 10
7.659771
 20
3.718291
 30
0.0
 10
7.503146
 20
3.875356
 30
0.0
 10
7.503146
 20
4.074155
 30
0.0
  0
SPLINE
  5
35c
100
AcDbEntity
  8
0
 62
7
100
AcDbSpline
 70
8
 71
3
 72
8
 73
4
 74
0
 40
0
 40
0
 40
0
 40
0
 40
1
 40
1
 40
1
 40
1
 10
7.503146
 20
4.074155
 30
0.0
 10
7.503146
 20
4.272955
 30
0.0
 10
7.659771
 20
4.429580
 30
0.0
 10
7.858570
 20
4.429580
 30
0.0
  0
LINE
  5
35d
100
AcDbEntity
  8
0
 62
7
100
AcDbLine
 10
7.858570
 20
4.429580
 30
0.0
 11
7.858571
 21
4.429580
 31
0.0
  0
LINE
  5
35e
100
AcDbEntity
  8
0
 62
7
100
AcDbLine
 10
13.494200
 20
4.042407
 30
0.0
 11
13.494200
 21
4.038004
 31
0.0
  0
LINE
  5
35f
100
AcDbEntity
  8
0
 62
7
100
AcDbLine
 10
13.494200
 20
4.038004
 30
0.0
 11
13.494200
 21
3.490314
 31
0.0
  0
LINE
  5
360
100
AcDbEntity
  8
0
 62
7
100
AcDbLine
 10
13.494200
 20
3.490314
 30
0.0
 11
12.941220
 21
3.490314
 31
0.0
  0
LINE
  5
361
100
AcDbEntity
  8
0
 62
7
100
AcDbLine
 10
12.941220
 20
3.490314
 30
0.0
 11
12.941220
 21
3.312162
 31
0.0
  0
LINE
  5
362
100
AcDbEntity
  8
0
 62
7
100
AcDbLine
 10
12.941220
 20
3.312162
 30
0.0
 11
13.494200
 21
3.312162
 31
0.0
  0
LINE
  5
363
100
AcDbEntity
  8
0
 62
7
100
AcDbLine
 10
13.494200
 20
3.312162
 30
0.0
 11
13.494200
 21
2.760065
 31
0.0
  0
LINE
  5
364
100
AcDbEntity
  8
0
 62
7
100
AcDbLine
 10
13.494200
 20
2.760065
 30
0.0
 11
13.670148
 21
2.760065
 31
0.0
  0
LINE
  5
365
100
AcDbEntity
  8
0
 62
7
100
AcDbLine
 10
13.670148
 20
2.760065
 30
0.0
 11
13.670148
 21
3.312162
 31
0.0
  0
LINE
  5
366
100
AcDbEntity
  8
0
 62
7
100
AcDbLine
 10
13.670148
 20
3.312162
 30
0.0
 11
14.222246
 21
3.312162
 31
0.0
  0
LINE
  5
367
100
AcDbEntity
  8
0
 62
7
100
AcDbLine
 10
14.222246
 20
3.312162
 30
0.0
 11
14.222246
 21
3.490314
 31
0.0
  0
LINE
  5
368
100
AcDbEntity
  8
0
 62
7
100
AcDbLine
 10
14.222246
 20
3.490314
 30
0.0
 11
13.670148
 21
3.490314
 31
0.0
  0
LINE
  5
369
100
AcDbEntity
  8
0
 62
7
100
AcDbLine
 10
13.670148
 20
3.490314
 30
0.0
 11
13.670148
 21
4.042413
 31
0.0
  0
LINE
  5
36a
100
AcDbEntity
  8
0
 62
7
100
AcDbLine
 10
13.670148
 20
4.042413
 30
0.0
 11
13.494200
 21
4.042413
 31
0.0
  0
LINE
  5
36b
100
AcDbEntity
  8
0
 62
7
100
AcDbLine
 10
13.494200
 20
4.042413
 30
0.0
 11
13.494200
 21
4.042407
 31
0.0
  0
LINE
  5
36c
100
AcDbEntity
  8
0
 62
7
100
AcDbLine
 10
13.503019
 20
4.033579
 30
0.0
 11
13.660887
 21
4.033579
 31
0.0
  0
LINE
  5
36d
100
AcDbEntity
  8
0
 62
7
100
AcDbLine
 10
13.660887
 20
4.033579
 30
0.0
 11
13.660887
 21
3.481041
 31
0.0
  0
LINE
  5
36e
100
AcDbEntity
  8
0
 62
7
100
AcDbLine
 10
13.660887
 20
3.481041
 30
0.0
 11
14.213425
 21
3.481041
 31
0.0
  0
LINE
  5
36f
100
AcDbEntity
  8
0
 62
7
100
AcDbLine
 10
14.213425
 20
3.481041
 30
0.0
 11
14.213425
 21
3.321410
 31
0.0
  0
LINE
  5
370
100
AcDbEntity
  8
0
 62
7
100
AcDbLine
 10
14.213425
 20
3.321410
 30
0.0
 11
13.660887
 21
3.321410
 31
0.0
  0
LINE
  5
371
100
AcDbEntity
  8
0
 62
7
100
AcDbLine
 10
13.660887
 20
3.321410
 30
0.0
 11
13.660887
 21
2.768870
 31
0.0
  0
LINE
  5
372
100
AcDbEntity
  8
0
 62
7
100
AcDbLine
 10
13.660887
 20
2.768870
 30
0.0
 11
13.503019
 21
2.768870
 31
0.0
  0
LINE
  5
373
100
AcDbEntity
  8
0
 62
7
100
AcDbLine
 10
13.503019
 20
2.768870
 30
0.0
 11
13.503019
 21
3.321410
 31
0.0
  0
LINE
  5
374
100
AcDbEntity
  8
0
 62
7
100
AcDbLine
 10
13.503019
 20
3.321410
 30
0.0
 11
12.950921
 21
3.321410
 31
0.0
  0
LINE
  5
375
100
AcDbEntity
  8
0
 62
7
100
AcDbLine
 10
12.950921
 20
3.321410
 30
0.0
 11
12.950921
 21
3.481041
 31
0.0
  0
LINE
  5
376
100
AcDbEntity
  8
0
 62
7
100
AcDbLine
 10
12.950921
 20
3.481041
 30
0.0
 11
13.503019
 21
3.481041
 31
0.0
  0
LINE
  5
377
100
AcDbEntity
  8
0
 62
7
100
AcDbLine
 10
13.503019
 20
3.481041
 30
0.0
 11
13.503019
 21
4.033579
 31
0.0
  0
LINE
  5
378
100
AcDbEntity
  8
0
 62
7
100
AcDbLine
 10
13.503019
 20
4.033579
 30
0.0
 11
13.503019
 21
4.033579
 31
0.0
  0
ENDSEC
  0
SECTION
  2
OBJECTS
  0
DICTIONARY
  5
C
330
0
100
AcDbDictionary
  3
ACAD_GROUP
350
D
  3
ACAD_MLINESTYLE
350
17
  0
DICTIONARY
  5
D
330
C
100
AcDbDictionary
  0
DICTIONARY
  5
1A
330
C
100
AcDbDictionary
  0
DICTIONARY
  5
17
330
C
100
AcDbDictionary
  3
STANDARD
350
18
  0
DICTIONARY
  5
19
330
C
100
AcDbDictionary
  0
ENDSEC
  0
EOF
